<?xml version="1.0" encoding="UTF-8"?>
<svg version="1.1" xmlns="http://www.w3.org/2000/svg" width="400" height="199">
<path d="M0 0 C1.68238518 -0.01925285 1.68238518 -0.01925285 3.39875793 -0.03889465 C5.21750679 -0.04997505 5.21750679 -0.04997505 7.07299805 -0.0612793 C8.94304756 -0.07338692 8.94304756 -0.07338692 10.85087585 -0.08573914 C13.49127925 -0.09957912 16.13155784 -0.11059582 18.77197266 -0.11816406 C21.47532682 -0.12702565 24.17816723 -0.14790364 26.88134766 -0.1796875 C30.77872262 -0.22228566 34.6754194 -0.23852321 38.57299805 -0.2487793 C39.77942459 -0.26628738 40.98585114 -0.28379547 42.22883606 -0.30183411 C48.57501535 -0.28541907 52.77172933 -0.25355261 57.5222168 4.17700195 C58.74915377 6.82571139 58.77528912 9.28392515 58.5222168 12.17700195 C57.31210828 15.10673836 56.4227284 16.6159895 53.73268127 18.29187012 C51.13037927 19.33390466 49.14319891 19.44156638 46.34228516 19.46411133 C44.7956443 19.48423279 44.7956443 19.48423279 43.21775818 19.50476074 C42.11037796 19.51003784 41.00299774 19.51531494 39.86206055 19.52075195 C38.14993126 19.54268616 38.14993126 19.54268616 36.4032135 19.56506348 C31.51745689 19.62736918 26.63157397 19.66698806 21.74560547 19.70874023 C18.18012093 19.74241491 14.6149077 19.78753773 11.04956055 19.83325195 C9.9401561 19.83852905 8.83075165 19.84380615 7.68772888 19.84924316 C6.65978714 19.86265747 5.6318454 19.87607178 4.57275391 19.88989258 C3.21518227 19.90082947 3.21518227 19.90082947 1.83018494 19.9119873 C-0.7526249 20.03077954 -0.7526249 20.03077954 -3.4777832 22.17700195 C-3.81118791 25.21895622 -3.81118791 25.21895622 -3.4777832 28.17700195 C-1.44835625 30.20642891 2.75440695 29.33809841 5.5456543 29.3527832 C7.22405178 29.37601573 8.90243719 29.40013436 10.58081055 29.42504883 C13.22460595 29.45990617 15.86796764 29.48935175 18.51196289 29.50292969 C42.77945793 29.6519366 42.77945793 29.6519366 52.08862305 38.4699707 C57.41624216 44.81375695 59.06557088 52.02669073 58.5222168 60.17700195 C56.97018267 68.07956104 53.08843192 74.04702838 46.41917419 78.61856079 C39.29820314 82.50419826 33.19158698 82.85355693 25.18237305 82.70043945 C23.93846298 82.69573639 22.69455292 82.69103333 21.41294861 82.68618774 C17.4696242 82.66496867 13.5276779 82.60838849 9.5847168 82.55200195 C6.9095947 82.53224382 4.23450194 82.52113733 1.55932617 82.5090332 C-3.31511706 82.47516066 -8.189416 82.44049011 -13.06347656 82.36987305 C-14.52713905 82.35058243 -14.52713905 82.35058243 -16.02037048 82.3309021 C-18.4777832 82.17700195 -18.4777832 82.17700195 -21.4777832 81.17700195 C-21.4777832 80.51700195 -21.4777832 79.85700195 -21.4777832 79.17700195 C-22.1377832 79.17700195 -22.7977832 79.17700195 -23.4777832 79.17700195 C-25.03413721 75.08133351 -25.80516372 73.04456032 -24.2277832 68.86450195 C-22.4777832 66.17700195 -22.4777832 66.17700195 -20.4777832 64.17700195 C-18.29679871 63.91871643 -18.29679871 63.91871643 -15.55664062 63.90576172 C-14.53185104 63.8955751 -13.50706146 63.88538849 -12.45121765 63.87489319 C-11.33978897 63.87275314 -10.22836029 63.8706131 -9.08325195 63.8684082 C-6.74275471 63.8432449 -4.40225997 63.81784693 -2.06176758 63.79223633 C1.63817681 63.76349365 5.33807745 63.73948489 9.03808594 63.72070312 C12.60204086 63.69905727 16.16547347 63.65961163 19.72924805 63.6184082 C20.83460403 63.61829239 21.93996002 63.61817657 23.07881165 63.61805725 C24.11305771 63.60471848 25.14730377 63.5913797 26.21289062 63.57763672 C27.11952957 63.57256607 28.02616852 63.56749542 28.96028137 63.56227112 C32.08723257 63.09203371 33.98434448 62.03938356 36.5222168 60.17700195 C37.68412054 56.85727697 37.64605529 55.54851742 36.5222168 52.17700195 C32.14888336 49.63769841 27.61928786 49.88139399 22.71362305 49.8684082 C20.97989567 49.84325235 19.24617179 49.81785426 17.51245117 49.79223633 C14.79590736 49.76350153 12.07942417 49.7394654 9.36279297 49.72070312 C6.72942404 49.69898708 4.09674981 49.65955105 1.46362305 49.6184082 C0.65719864 49.61829239 -0.14922577 49.61817657 -0.98008728 49.61805725 C-8.24404927 49.49127092 -13.47401941 46.84988206 -18.8684082 42.0402832 C-21.87833703 38.55548696 -23.20942631 34.54805986 -24.4777832 30.17700195 C-24.77555664 29.16959961 -24.77555664 29.16959961 -25.0793457 28.1418457 C-26.48631337 21.4242648 -23.72733615 15.04591394 -20.3762207 9.2824707 C-15.61131678 2.88064401 -7.70660005 0.07679927 0 0 Z " fill="#070707" transform="translate(83.477783203125,60.822998046875)"/>
<path d="M0 0 C9.91664295 6.77104115 15.63187961 14.64645168 18.62866211 26.31762695 C19.26655892 30.31812735 19.27624712 34.25146424 19.296875 38.296875 C19.30257507 39.16578369 19.30827515 40.03469238 19.31414795 40.92993164 C19.32356843 42.76219474 19.33012016 44.59447457 19.33398438 46.42675781 C19.34371707 49.22490868 19.37477888 52.02233291 19.40625 54.8203125 C19.41277823 56.60416232 19.41802941 58.38801738 19.421875 60.171875 C19.4342218 61.00533447 19.4465686 61.83879395 19.45928955 62.69750977 C19.4414336 67.36402364 19.13680329 70.44861668 16.09375 74.234375 C15.10375 74.729375 15.10375 74.729375 14.09375 75.234375 C13.76375 82.824375 13.43375 90.414375 13.09375 98.234375 C6.09375 100.234375 6.09375 100.234375 4.09375 99.234375 C4.09375 98.244375 4.09375 97.254375 4.09375 96.234375 C1.11027464 96.92401943 1.11027464 96.92401943 -0.12109375 98.7734375 C-2.92738019 101.07004829 -6.00776151 100.66831331 -9.46875 100.609375 C-10.15388672 100.62097656 -10.83902344 100.63257813 -11.54492188 100.64453125 C-13.53515625 100.6328125 -13.53515625 100.6328125 -16.90625 100.234375 C-17.56625 99.244375 -18.22625 98.254375 -18.90625 97.234375 C-21.90884517 96.90219308 -21.90884517 96.90219308 -23.59375 98.734375 C-24.026875 99.229375 -24.46 99.724375 -24.90625 100.234375 C-25.89625 99.739375 -25.89625 99.739375 -26.90625 99.234375 C-26.45630243 97.44058402 -25.99600857 95.64938572 -25.53125 93.859375 C-25.27601563 92.86164063 -25.02078125 91.86390625 -24.7578125 90.8359375 C-23.90625 88.234375 -23.90625 88.234375 -21.90625 86.234375 C-20.58625 86.234375 -19.26625 86.234375 -17.90625 86.234375 C-16.91625 89.204375 -15.92625 92.174375 -14.90625 95.234375 C-14.15669562 92.2361575 -13.49554011 89.26500987 -12.90625 86.234375 C-11.91625 86.234375 -10.92625 86.234375 -9.90625 86.234375 C-9.41125 91.184375 -9.41125 91.184375 -8.90625 96.234375 C-5.93625 95.739375 -5.93625 95.739375 -2.90625 95.234375 C-2.90625 93.914375 -2.90625 92.594375 -2.90625 91.234375 C-2.24625 91.234375 -1.58625 91.234375 -0.90625 91.234375 C-0.57625 89.584375 -0.24625 87.934375 0.09375 86.234375 C1.41375 85.904375 2.73375 85.574375 4.09375 85.234375 C5.08375 87.544375 6.07375 89.854375 7.09375 92.234375 C7.42375 86.624375 7.75375 81.014375 8.09375 75.234375 C6.44375 74.904375 4.79375 74.574375 3.09375 74.234375 C0.19045081 71.76101793 0.08640871 70.15982548 -0.29101562 66.32714844 C-0.3121529 64.7494743 -0.31840452 63.17155468 -0.3125 61.59375 C-0.32333618 60.75273743 -0.33417236 59.91172485 -0.34533691 59.04522705 C-0.37956816 56.35819844 -0.39517564 53.67159279 -0.40625 50.984375 C-0.4208984 47.45793124 -0.45477222 43.93241977 -0.5 40.40625 C-0.49697876 39.60701111 -0.49395752 38.80777222 -0.49084473 37.98431396 C-0.57970524 31.24100486 -1.80361434 25.66049307 -6.34375 20.421875 C-7.6121875 19.3390625 -7.6121875 19.3390625 -8.90625 18.234375 C-9.545625 17.6775 -10.185 17.120625 -10.84375 16.546875 C-15.64332995 13.49259685 -20.28829085 12.66305712 -25.90625 13.234375 C-28.34229807 14.15590634 -30.6551478 15.20284758 -32.98828125 16.359375 C-34.90625 17.234375 -34.90625 17.234375 -36.90625 17.234375 C-36.90625 17.894375 -36.90625 18.554375 -36.90625 19.234375 C-38.21754922 20.58938419 -39.55316687 21.92108843 -40.90625 23.234375 C-44.45943311 28.56414966 -44.0577819 34.53293631 -44.1171875 40.73828125 C-44.14523766 42.38217173 -44.17390198 44.02605183 -44.203125 45.66992188 C-44.24444684 48.239501 -44.28137263 50.80888208 -44.30761719 53.37866211 C-44.33525504 55.87393137 -44.38109696 58.3683437 -44.4296875 60.86328125 C-44.43294037 61.62798233 -44.43619324 62.39268341 -44.43954468 63.18055725 C-44.54334612 67.69831796 -45.14168739 70.62420661 -47.90625 74.234375 C-50.53977638 76.3035743 -51.9443531 76.23368222 -55.34375 76.171875 C-59.75222765 75.0117493 -61.14127463 73.84881322 -63.90625 70.234375 C-64.63369336 67.08519224 -64.60761756 64.01825061 -64.5703125 60.796875 C-64.57509613 59.88035156 -64.57987976 58.96382813 -64.58480835 58.01953125 C-64.58820608 56.0795724 -64.57901248 54.1395562 -64.55810547 52.19970703 C-64.53158271 49.27111226 -64.55772794 46.34643685 -64.58984375 43.41796875 C-64.61565335 29.62674609 -62.99169356 18.72893998 -54.23828125 7.52734375 C-52.90625 6.234375 -52.90625 6.234375 -50.90625 6.234375 C-50.90625 5.574375 -50.90625 4.914375 -50.90625 4.234375 C-36.46066369 -7.77017473 -16.03587508 -9.74222518 0 0 Z " fill="#0E0D0D" transform="translate(215.90625,66.765625)"/>
<path d="M0 0 C1.55662245 -0.00490326 1.55662245 -0.00490326 3.14469182 -0.00990558 C6.59086664 -0.01713655 10.03660929 -0.00307718 13.48275757 0.01104736 C15.96548535 0.01025583 18.44821301 0.00815656 20.93093872 0.00485229 C26.95305196 0.00026395 32.97499864 0.0094838 38.99708124 0.02514026 C46.01055324 0.04273379 53.02400086 0.04410058 60.03749149 0.04475585 C72.54433958 0.04644041 85.05112941 0.06221778 97.55795288 0.08624268 C109.6985828 0.1095472 121.83917577 0.12367478 133.97982788 0.1272583 C135.10372917 0.12759245 135.10372917 0.12759245 136.25033553 0.12793335 C137.75972656 0.12837595 139.26911759 0.12881797 140.77850863 0.12925942 C141.52304436 0.12947899 142.26758009 0.12969855 143.03467751 0.12992477 C143.77731825 0.13014076 144.519959 0.13035675 145.28510401 0.13057928 C156.85711733 0.13427502 168.42912469 0.14563041 180.00113148 0.15805517 C184.19739006 0.16249415 188.39364807 0.16593081 192.58990808 0.1686773 C199.85728412 0.17351307 207.12462839 0.18359791 214.39199066 0.19950485 C216.81041327 0.20404279 219.22883975 0.20687003 221.64726639 0.20791245 C224.93284222 0.20964715 228.21834523 0.2175005 231.50390625 0.22705078 C232.47400906 0.2261843 233.44411187 0.22531782 234.44361174 0.22442508 C235.75314631 0.23018679 235.75314631 0.23018679 237.08913612 0.23606491 C237.84830979 0.23731141 238.60748346 0.23855791 239.38966238 0.23984218 C241.11703491 0.36749268 241.11703491 0.36749268 242.11703491 1.36749268 C242.25818652 4.03808119 242.15950599 6.69181505 242.11703491 9.36749268 C200.42897853 9.95267437 158.74256112 10.42820274 117.05057621 10.60157728 C114.1864638 10.61359013 111.32235392 10.62608734 108.45824432 10.63875198 C91.05726536 10.71565731 73.65627839 10.78830747 56.25521851 10.84429932 C47.49349155 10.87255042 38.7318221 10.90778416 29.9701556 10.95095307 C24.51359353 10.97746667 19.05709463 10.99551445 13.60048127 11.00699031 C10.26136429 11.01608461 6.92232891 11.03341157 3.58325958 11.05316925 C2.04005328 11.06064875 0.4968262 11.06472605 -1.04639816 11.06516457 C-3.14710179 11.06624453 -5.24738977 11.07946238 -7.34802246 11.0957489 C-9.10744077 11.10209681 -9.10744077 11.10209681 -10.90240288 11.10857296 C-13.83837083 11.3636188 -15.46729451 11.72026155 -17.88296509 13.36749268 C-18.87296509 14.85249268 -18.87296509 14.85249268 -19.88296509 16.36749268 C-20.54296509 16.36749268 -21.20296509 16.36749268 -21.88296509 16.36749268 C-21.89327255 17.26729355 -21.90358002 18.16709442 -21.91419983 19.09416199 C-22.0119985 27.55570054 -22.11448729 36.01716627 -22.22230434 44.47858334 C-22.27757294 48.82914073 -22.33099908 53.1797048 -22.38027954 57.53033447 C-22.42786523 61.72545478 -22.48020567 65.9204908 -22.53590584 70.11551094 C-22.55635575 71.71953813 -22.57506438 73.32358845 -22.59203911 74.92765617 C-22.61602506 77.16672036 -22.64608703 79.40562384 -22.67764282 81.64459229 C-22.6931871 82.92144394 -22.70873138 84.19829559 -22.7247467 85.51383972 C-22.88296509 88.36749268 -22.88296509 88.36749268 -23.88296509 89.36749268 C-26.21593942 89.40842205 -28.55001733 89.40990991 -30.88296509 89.36749268 C-31.68928558 69.35959321 -32.17564253 49.39410255 -31.88296509 29.36749268 C-31.87039673 28.4935083 -31.85782837 27.61952393 -31.84487915 26.71905518 C-31.65715078 17.61614461 -31.07129496 11.93657981 -24.82046509 5.11749268 C-17.2199455 0.58952356 -8.66239716 -0.07363167 0 0 Z " fill="#272727" transform="translate(54.882965087890625,35.63250732421875)"/>
<path d="M0 0 C1.02780327 -0.00810448 1.02780327 -0.00810448 2.07637024 -0.01637268 C4.33065622 -0.02883174 6.58365785 -0.0123896 8.83789062 0.00561523 C10.41060452 0.00546018 11.9833188 0.00397011 13.55603027 0.00120544 C16.84791002 -0.00017727 20.1393534 0.01235766 23.43115234 0.03515625 C27.64458966 0.06354087 31.85730221 0.06080204 36.07079315 0.04806614 C39.3170996 0.0411015 42.56323938 0.04890714 45.80952454 0.06132317 C47.36281189 0.06583006 48.91611719 0.06618113 50.46940613 0.06225777 C52.64273573 0.05933773 54.81507678 0.07588859 56.98828125 0.09765625 C58.84096619 0.10576073 58.84096619 0.10576073 60.7310791 0.11402893 C64.26918822 0.53438703 66.17812148 1.35213656 68.99414062 3.50170898 C69.73632812 5.65795898 69.73632812 5.65795898 69.86914062 8.00170898 C69.9284375 8.77514648 69.98773438 9.54858398 70.04882812 10.34545898 C69.99414062 12.50170898 69.99414062 12.50170898 68.99414062 15.50170898 C64.32051762 19.6990392 58.35361242 18.98691787 52.43164062 19.06420898 C50.3676797 19.09871483 48.30383479 19.14135934 46.24023438 19.19311523 C45.32943115 19.20544189 44.41862793 19.21776855 43.48022461 19.23046875 C40.8849211 19.51362521 39.23047886 20.19007653 36.99414062 21.50170898 C36.69851695 26.82341393 36.69851695 26.82341393 38.99414062 31.50170898 C38.99414062 32.49170898 38.99414062 33.48170898 38.99414062 34.50170898 C38.00414062 34.99670898 38.00414062 34.99670898 36.99414062 35.50170898 C36.58684835 37.82327496 36.24975386 40.15858768 35.99414062 42.50170898 C37.64414062 43.16170898 39.29414063 43.82170898 40.99414062 44.50170898 C40.99414062 45.16170898 40.99414062 45.82170898 40.99414062 46.50170898 C40.33414063 47.05858398 39.67414063 47.61545898 38.99414062 48.18920898 C36.61828393 50.4670483 36.61828393 50.4670483 36.74414062 54.25170898 C36.82664062 55.32420898 36.90914063 56.39670898 36.99414062 57.50170898 C37.65414062 57.50170898 38.31414062 57.50170898 38.99414062 57.50170898 C38.99414062 58.49170898 38.99414062 59.48170898 38.99414062 60.50170898 C38.33414063 60.50170898 37.67414063 60.50170898 36.99414062 60.50170898 C36.99414062 63.80170898 36.99414062 67.10170898 36.99414062 70.50170898 C38.31414062 71.16170898 39.63414062 71.82170898 40.99414062 72.50170898 C40.49914062 73.98670898 40.49914062 73.98670898 39.99414062 75.50170898 C39.33414063 75.50170898 38.67414063 75.50170898 37.99414062 75.50170898 C37.71570313 76.64639648 37.71570313 76.64639648 37.43164062 77.81420898 C35.99414062 80.50170898 35.99414062 80.50170898 32.80664062 82.50170898 C28.99414062 83.50170898 28.99414062 83.50170898 25.24414062 82.56420898 C21.28345953 80.05069983 20.57762824 78.90796095 18.99414062 74.50170898 C18.59037687 70.29235965 18.64535466 66.10974819 18.70117188 61.88452148 C18.70541672 60.6722287 18.70966156 59.45993591 18.71403503 58.21090698 C18.73079117 54.34927916 18.76843918 50.48817836 18.80664062 46.62670898 C18.82169136 44.0043207 18.83537908 41.38192422 18.84765625 38.75952148 C18.88068477 32.34007166 18.93085444 25.92092798 18.99414062 19.50170898 C17.85199097 19.48769043 17.85199097 19.48769043 16.68676758 19.47338867 C13.22607442 19.41959961 9.76672045 19.33596715 6.30664062 19.25170898 C5.10845703 19.2375293 3.91027344 19.22334961 2.67578125 19.20874023 C0.94038086 19.16040039 0.94038086 19.16040039 -0.83007812 19.11108398 C-2.42468872 19.07966309 -2.42468872 19.07966309 -4.05151367 19.04760742 C-7.68297779 18.37659232 -9.39121146 17.06630871 -12.00585938 14.50170898 C-12.66992188 12.06420898 -12.66992188 12.06420898 -12.63085938 9.50170898 C-12.64375 8.65608398 -12.65664062 7.81045898 -12.66992188 6.93920898 C-10.97864248 0.73121875 -5.68245174 0.00076449 0 0 Z " fill="#080808" transform="translate(251.005859375,60.498291015625)"/>
<path d="M0 0 C0 1.98 0 3.96 0 6 C-2.64 6.66 -5.28 7.32 -8 8 C-8.33 9.32 -8.66 10.64 -9 12 C-6.03 12.33 -3.06 12.66 0 13 C0.125 15.375 0.125 15.375 0 18 C-0.66 18.66 -1.32 19.32 -2 20 C-1.34 20.99 -0.68 21.98 0 23 C0.23046875 24.9375 0.23046875 24.9375 0.1875 27 C0.18105469 27.680625 0.17460937 28.36125 0.16796875 29.0625 C0 31 0 31 -1 34 C-0.505 34.495 -0.505 34.495 0 35 C0.08851529 37.59359322 0.11525945 40.16039691 0.09765625 42.75390625 C0.0962413 43.52935287 0.09482635 44.3047995 0.09336853 45.10374451 C0.08775345 47.59003494 0.07519846 50.0762366 0.0625 52.5625 C0.05748694 54.24413933 0.0529237 55.92578006 0.04882812 57.60742188 C0.03777913 61.73831566 0.02050445 65.86914276 0 70 C-0.66 70 -1.32 70 -2 70 C-1.67 70.680625 -1.34 71.36125 -1 72.0625 C0.3589532 76.05442503 0.64693042 79.92982265 -0.625 84 C-1.20412705 86.22365267 -1.20412705 86.22365267 0 89.1875 C1.19608048 93.74755681 1.47704016 97.48199481 0 102 C-2.625 104.6875 -2.625 104.6875 -6 106 C-9.5625 105.25 -9.5625 105.25 -13 104 C-15.79244045 103.83071457 -15.79244045 103.83071457 -18 104 C-18.495 101.03 -18.495 101.03 -19 98 C-17.02 97.505 -17.02 97.505 -15 97 C-14.28740158 90.27556152 -14.28740158 90.27556152 -17.0625 84.5 C-19.78748746 80.98388715 -19.12037091 78.48338899 -18.65234375 74.20703125 C-18 72 -18 72 -15 70 C-15.47824219 69.608125 -15.95648438 69.21625 -16.44921875 68.8125 C-18.42083188 66.50814612 -18.54943091 64.99631236 -18.8125 62 C-18.90144531 61.13375 -18.99039062 60.2675 -19.08203125 59.375 C-19 57 -19 57 -17 54 C-17.66 53.01 -18.32 52.02 -19 51 C-19.125 48.3125 -19.125 48.3125 -19 46 C-17.35 45.34 -15.7 44.68 -14 44 C-14 41.03 -14 38.06 -14 35 C-14.66 35 -15.32 35 -16 35 C-19.11295959 31.0489359 -19.54003936 27.95036082 -19 23 C-17.625 20.5625 -17.625 20.5625 -16 19 C-15.34 19 -14.68 19 -14 19 C-15.24155863 15.36705432 -15.24155863 15.36705432 -17.6875 12.5 C-19 11 -19 11 -19.125 8.6875 C-15.45061474 -0.09019812 -8.67894881 -0.84749229 0 0 Z M-11 24 C-11.33 25.32 -11.66 26.64 -12 28 C-10.68 28.33 -9.36 28.66 -8 29 C-7.67 27.68 -7.34 26.36 -7 25 C-8.32 24.67 -9.64 24.34 -11 24 Z M-7 43 C-6 46 -6 46 -6 46 Z M-11 76 C-11.33 77.32 -11.66 78.64 -12 80 C-10.68 80.33 -9.36 80.66 -8 81 C-7.67 79.68 -7.34 78.36 -7 77 C-8.32 76.67 -9.64 76.34 -11 76 Z " fill="#E8C7D4" transform="translate(339,78)"/>
<path d="M0 0 C9.29990975 0.67798517 15.31561579 2.81132427 21.55078125 9.84765625 C25.13530008 16.19476602 25.06691532 23.26767851 25.03613281 30.34765625 C25.03963745 31.35034546 25.04314209 32.35303467 25.04675293 33.3861084 C25.055512 36.68065437 25.04974164 39.97498332 25.04296875 43.26953125 C25.04431707 45.57063844 25.046259 47.87174535 25.04876709 50.17285156 C25.05171047 54.98765789 25.04744596 59.80238984 25.03808594 64.6171875 C25.02669196 70.77726157 25.03325563 76.93716133 25.04523087 83.097229 C25.05247065 87.8465302 25.05015179 92.59579032 25.04497528 97.34509277 C25.04364465 99.6160077 25.04526588 101.8869264 25.04993439 104.15783691 C25.05503442 107.33579332 25.04724046 110.51347054 25.03613281 113.69140625 C25.04018127 114.62255249 25.04422974 115.55369873 25.04840088 116.51306152 C24.99180799 125.28859761 23.82381815 131.78596912 17.64453125 138.32421875 C11.71537035 143.70759915 5.27742895 144.12714686 -2.33203125 144.15234375 C-4.22265625 144.01953125 -4.22265625 144.01953125 -5.22265625 143.01953125 C-5.35546875 141.20703125 -5.35546875 141.20703125 -5.34765625 139.01953125 C-5.35152344 137.93671875 -5.35152344 137.93671875 -5.35546875 136.83203125 C-5.22265625 135.01953125 -5.22265625 135.01953125 -4.22265625 134.01953125 C-2.47535486 133.86121871 -0.72435566 133.7428887 1.02734375 133.64453125 C6.92325127 133.17418955 6.92325127 133.17418955 11.77734375 130.01953125 C14.96764563 124.12903879 15.18528058 119.1918901 15.08959961 112.57373047 C15.08670929 111.54686127 15.08381897 110.51999207 15.08084106 109.46200562 C15.06691049 106.0824453 15.0304895 102.70358449 14.9921875 99.32421875 C14.97429375 96.96966107 14.9571797 94.61509734 14.94081116 92.26052856 C14.90283516 87.33287308 14.85334691 82.40549577 14.79614258 77.47802734 C14.7240373 71.16189028 14.6837575 64.84600903 14.65245724 58.52955437 C14.62434149 53.67041333 14.57780664 48.81157991 14.5258503 43.95264053 C14.5034704 41.62347549 14.48720465 39.29424341 14.47715569 36.96499252 C14.46067419 33.71164413 14.4190284 30.45955543 14.37084961 27.20654297 C14.37132545 25.76323608 14.37132545 25.76323608 14.37181091 24.29077148 C14.28535731 20.08064327 14.14743557 17.63991997 11.95509338 13.96487427 C7.82516566 10.27568707 3.12780381 9.86216478 -2.22265625 10.01953125 C-3.22265625 9.01953125 -3.22265625 9.01953125 -3.35546875 7.20703125 C-3.35160156 6.12421875 -3.35160156 6.12421875 -3.34765625 5.01953125 C-3.35023438 4.29765625 -3.3528125 3.57578125 -3.35546875 2.83203125 C-3.15525684 0.09972757 -2.73872472 0.02406612 0 0 Z " fill="#262626" transform="translate(352.22265625,35.98046875)"/>
<path d="M0 0 C0.33 0.99 0.66 1.98 1 3 C4.3 3.33 7.6 3.66 11 4 C10.98839844 5.20398438 10.97679687 6.40796875 10.96484375 7.6484375 C10.95546566 9.22395679 10.94636548 10.79947775 10.9375 12.375 C10.92912109 13.1690625 10.92074219 13.963125 10.91210938 14.78125 C10.76959849 19.02392222 10.76959849 19.02392222 12 23 C12.23178808 29.25827815 12.23178808 29.25827815 11.375 32 C10.79587295 34.22365267 10.79587295 34.22365267 12 37.1875 C13.19608048 41.74755681 13.47704016 45.48199481 12 50 C9.375 52.6875 9.375 52.6875 6 54 C2.4375 53.25 2.4375 53.25 -1 52 C-3.79244045 51.83071457 -3.79244045 51.83071457 -6 52 C-6.33 50.02 -6.66 48.04 -7 46 C-5.02 45.505 -5.02 45.505 -3 45 C-2.28740158 38.27556152 -2.28740158 38.27556152 -5.0625 32.5 C-7.78748746 28.98388715 -7.12037091 26.48338899 -6.65234375 22.20703125 C-6 20 -6 20 -3 18 C-3.47824219 17.608125 -3.95648438 17.21625 -4.44921875 16.8125 C-6.42083188 14.50814612 -6.54943091 12.99631236 -6.8125 10 C-6.94591797 8.700625 -6.94591797 8.700625 -7.08203125 7.375 C-7 5 -7 5 -5 2 C-2.375 0.8125 -2.375 0.8125 0 0 Z M1 24 C0.67 25.32 0.34 26.64 0 28 C1.32 28.33 2.64 28.66 4 29 C4.33 27.68 4.66 26.36 5 25 C3.68 24.67 2.36 24.34 1 24 Z " fill="#D5A0B5" transform="translate(327,130)"/>
<path d="M0 0 C2.35279946 1.33537266 3.68942206 2.11162941 4.59277344 4.69555664 C5.44930304 9.54254878 5.22586209 14.50850187 5.24023438 19.41723633 C5.24995246 21.42766511 5.28101006 23.43707583 5.3125 25.44726562 C5.31765625 26.72150391 5.3228125 27.99574219 5.328125 29.30859375 C5.34214355 31.05354126 5.34214355 31.05354126 5.35644531 32.83374023 C4.84110673 37.41142931 3.23601574 39.99782507 -0.3125 42.875 C-3.75309569 44.31524936 -5.46443189 44.1283728 -9 43 C-11.15039062 41.43554688 -11.15039062 41.43554688 -13 39 C-13.39806287 36.22858117 -13.56185389 33.86195576 -13.53125 31.09375 C-13.5350769 30.33203491 -13.53890381 29.57031982 -13.54284668 28.78552246 C-13.54556313 27.17845332 -13.53822044 25.57133976 -13.52148438 23.96435547 C-13.50006786 21.50778413 -13.52129178 19.05413689 -13.546875 16.59765625 C-13.54423167 15.03384773 -13.53910658 13.47004102 -13.53125 11.90625 C-13.53934692 11.17386108 -13.54744385 10.44147217 -13.55578613 9.68688965 C-13.49275724 6.25010345 -13.25827586 4.3402682 -11.15429688 1.56835938 C-7.21730738 -1.29782608 -4.59472458 -1.12523867 0 0 Z " fill="#0D0D0D" transform="translate(198,100)"/>
<path d="M0 0 C6.80786621 2.23274089 12.16835944 5.89008668 16 12 C17.87401363 15.83145937 18.27111772 18.93755856 18.25 23.1875 C18.25515625 24.23292969 18.2603125 25.27835938 18.265625 26.35546875 C18 29 18 29 16 31 C11.44444444 30.44444444 11.44444444 30.44444444 10 29 C9.76518307 26.81707226 9.58636677 24.62796826 9.4375 22.4375 C9.31181641 20.64119141 9.31181641 20.64119141 9.18359375 18.80859375 C9.12300781 17.88175781 9.06242187 16.95492187 9 16 C8.34 16 7.68 16 7 16 C7.33 16.66 7.66 17.32 8 18 C9.29840675 21.89522025 9.20493143 24.90137142 9 29 C8 30 8 30 5.5 30.125 C3 30 3 30 2 29 C1.896875 27.741875 1.79375 26.48375 1.6875 25.1875 C1.33916227 22.3705079 1.01953659 21.03174696 -0.5 18.5625 C-4.14942683 16.28160823 -7.76451519 16.18100362 -12 16 C-12.625 13.625 -12.625 13.625 -13 11 C-11 9 -11 9 -8.87109375 8.83984375 C-7.66646484 8.88818359 -7.66646484 8.88818359 -6.4375 8.9375 C-4.95918728 8.99190191 -3.47917459 9.02026267 -2 9 C-1.67 8.67 -1.34 8.34 -1 8 C-4.63 8 -8.26 8 -12 8 C-12.33 6.02 -12.66 4.04 -13 2 C-8.68410169 -0.87726554 -5.06417619 -0.6876392 0 0 Z M0 9 C0 9.66 0 10.32 0 11 C1.55855981 12.35712166 1.55855981 12.35712166 3.5 13.625 C4.1496875 14.07101563 4.799375 14.51703125 5.46875 14.9765625 C5.9740625 15.31429687 6.479375 15.65203125 7 16 C6.34158405 12.7125998 6.34158405 12.7125998 4.0625 10.25 C2.11688783 8.82723276 2.11688783 8.82723276 0 9 Z " fill="#252525" transform="translate(317,22)"/>
<path d="M0 0 C3.57104439 1.87949705 5.54744301 3.17053157 7 7 C7.33 5.02 7.66 3.04 8 1 C11.10843678 0.11187521 12.57398759 -0.1724336 15.625 1.0625 C16.40875 1.371875 17.1925 1.68125 18 2 C18.99 1.34 19.98 0.68 21 0 C22.32 0.66 23.64 1.32 25 2 C25.66 1.34 26.32 0.68 27 0 C29.98095703 -0.13525391 29.98095703 -0.13525391 33.7578125 0.0234375 C34.42086395 0.04846344 35.08391541 0.07348938 35.76705933 0.09927368 C37.88689015 0.18151267 40.00579437 0.27808365 42.125 0.375 C43.56115994 0.43323582 44.99735802 0.49053919 46.43359375 0.546875 C49.95623602 0.68709542 53.4781866 0.840176 57 1 C56.67 1.99 56.34 2.98 56 4 C55.01 4 54.02 4 53 4 C53.04125 5.0725 53.0825 6.145 53.125 7.25 C53.0114175 10.65747485 52.78726636 12.20739631 51 15 C50.34 14.67 49.68 14.34 49 14 C48.5859375 11.93359375 48.5859375 11.93359375 48.375 9.4375 C48.30023438 8.61121094 48.22546875 7.78492188 48.1484375 6.93359375 C48.09945312 6.29550781 48.05046875 5.65742188 48 5 C45.525 4.505 45.525 4.505 43 4 C42.67 7.3 42.34 10.6 42 14 C41.01 14.33 40.02 14.66 39 15 C36.5705484 11.3558226 36.83820425 9.28758728 37 5 C36.01 5 35.02 5 34 5 C34 7.64 34 10.28 34 13 C33.01 13.33 32.02 13.66 31 14 C30.34 12.02 29.68 10.04 29 8 C28.34 9.98 27.68 11.96 27 14 C25.33388095 14.042721 23.66617115 14.04063832 22 14 C21.67 13.67 21.34 13.34 21 13 C20.67 13.33 20.34 13.66 20 14 C18.33382885 14.04063832 16.66611905 14.042721 15 14 C15 12.35 15 10.7 15 9 C14.34 8.67 13.68 8.34 13 8 C13.33 7.34 13.66 6.68 14 6 C13.34 6 12.68 6 12 6 C12 8.64 12 11.28 12 14 C9.1875 14.6875 9.1875 14.6875 6 15 C4.3125 13.5625 4.3125 13.5625 3 12 C-0.00259517 11.66781808 -0.00259517 11.66781808 -1.6875 13.5 C-2.120625 13.995 -2.55375 14.49 -3 15 C-3.66 14.34 -4.32 13.68 -5 13 C-4.75704021 7.77636459 -2.68742135 4.33455057 0 0 Z " fill="#686868" transform="translate(110,152)"/>
<path d="M0 0 C10.17362409 2.76320654 16.82099362 7.5493785 22.46875 16.5 C26.3688753 23.51792458 27.55590292 30.51069015 26.46875 38.5 C24.46875 40.5 24.46875 40.5 21.84375 40.625 C21.06 40.58375 20.27625 40.5425 19.46875 40.5 C17.9821162 38.02227699 17.42886209 36.2093881 17.03125 33.3125 C15.93144186 25.85824481 14.04647737 19.82982837 8.46875 14.5 C2.90635814 10.49666334 -3.08102283 9.75304207 -9.7734375 8.9921875 C-12.53125 8.5 -12.53125 8.5 -14.53125 6.5 C-14.84375 4 -14.84375 4 -14.53125 1.5 C-9.87414584 -1.60473611 -5.38785835 -1.06426832 0 0 Z " fill="#1E1E1E" transform="translate(319.53125,11.5)"/>
<path d="M0 0 C3 1.1875 3 1.1875 5 3.1875 C5.53625 2.506875 6.0725 1.82625 6.625 1.125 C9 -0.8125 9 -0.8125 12.0625 -0.6875 C15 0.1875 15 0.1875 18 2.1875 C18.7936065 5.97239253 19.32610865 8.8105968 18.4375 12.5625 C16.21395876 15.07606836 14.26876635 15.61065888 11 16.1875 C8.05549106 14.87882936 6.45298569 14.09347137 5 11.1875 C3.9790625 12.2084375 3.9790625 12.2084375 2.9375 13.25 C0 15.1875 0 15.1875 -3.8125 14.9375 C-4.864375 14.69 -5.91625 14.4425 -7 14.1875 C-7.66 12.5375 -8.32 10.8875 -9 9.1875 C-9.66 9.1875 -10.32 9.1875 -11 9.1875 C-11 10.8375 -11 12.4875 -11 14.1875 C-11.99 14.1875 -12.98 14.1875 -14 14.1875 C-14 12.8675 -14 11.5475 -14 10.1875 C-15.32 10.1875 -16.64 10.1875 -18 10.1875 C-18 11.5075 -18 12.8275 -18 14.1875 C-18.99 14.5175 -19.98 14.8475 -21 15.1875 C-22 14.1875 -22 14.1875 -22.09765625 11.24609375 C-22.08605469 10.05113281 -22.07445312 8.85617188 -22.0625 7.625 C-22.05347656 6.42746094 -22.04445313 5.22992188 -22.03515625 3.99609375 C-22.02355469 3.06925781 -22.01195312 2.14242187 -22 1.1875 C-20.68 1.1875 -19.36 1.1875 -18 1.1875 C-18 2.8375 -18 4.4875 -18 6.1875 C-16.68 6.1875 -15.36 6.1875 -14 6.1875 C-14 4.5375 -14 2.8875 -14 1.1875 C-12.0625 1.5625 -12.0625 1.5625 -10 2.1875 C-9.67 2.8475 -9.34 3.5075 -9 4.1875 C-8.38125 3.548125 -7.7625 2.90875 -7.125 2.25 C-3.75814413 -1.0178307 -3.75814413 -1.0178307 0 0 Z M-4 5.1875 C-4.99 6.6725 -4.99 6.6725 -6 8.1875 C-5.01 9.6725 -5.01 9.6725 -4 11.1875 C-2.68 10.8575 -1.36 10.5275 0 10.1875 C0 8.5375 0 6.8875 0 5.1875 C-1.32 5.1875 -2.64 5.1875 -4 5.1875 Z M10 5.1875 C9.67 6.8375 9.34 8.4875 9 10.1875 C10.32 10.5175 11.64 10.8475 13 11.1875 C13.66 9.5375 14.32 7.8875 15 6.1875 C13.35 5.8575 11.7 5.5275 10 5.1875 Z " fill="#C6859B" transform="translate(286,151.8125)"/>
<path d="M0 0 C0 7.59 0 15.18 0 23 C-7 25 -7 25 -9 24 C-9 23.01 -9 22.02 -9 21 C-11.98347536 21.68964443 -11.98347536 21.68964443 -13.21484375 23.5390625 C-16.02113019 25.83567329 -19.10151151 25.43393831 -22.5625 25.375 C-23.24763672 25.38660156 -23.93277344 25.39820313 -24.63867188 25.41015625 C-26.62890625 25.3984375 -26.62890625 25.3984375 -30 25 C-30.66 24.01 -31.32 23.02 -32 22 C-35.00259517 21.66781808 -35.00259517 21.66781808 -36.6875 23.5 C-37.120625 23.995 -37.55375 24.49 -38 25 C-38.66 24.67 -39.32 24.34 -40 24 C-39.55005243 22.20620902 -39.08975857 20.41501072 -38.625 18.625 C-38.36976563 17.62726563 -38.11453125 16.62953125 -37.8515625 15.6015625 C-37 13 -37 13 -35 11 C-33.68 11 -32.36 11 -31 11 C-30.01 13.97 -29.02 16.94 -28 20 C-27.25044562 17.0017825 -26.58929011 14.03063487 -26 11 C-25.01 11 -24.02 11 -23 11 C-22.67 14.3 -22.34 17.6 -22 21 C-20.02 20.67 -18.04 20.34 -16 20 C-16 18.68 -16 17.36 -16 16 C-15.34 16 -14.68 16 -14 16 C-13.67 14.35 -13.34 12.7 -13 11 C-11.68 10.67 -10.36 10.34 -9 10 C-7.515 13.465 -7.515 13.465 -6 17 C-5.95101562 15.85660156 -5.90203125 14.71320313 -5.8515625 13.53515625 C-5.77654811 12.04424527 -5.70099972 10.55336108 -5.625 9.0625 C-5.5940625 8.30775391 -5.563125 7.55300781 -5.53125 6.77539062 C-5.4273685 4.84492605 -5.22104386 2.92057919 -5 1 C-3 0 -3 0 0 0 Z " fill="#4F4F51" transform="translate(229,142)"/>
<path d="M0 0 C11.55 0.33 23.1 0.66 35 1 C35 1.33 35 1.66 35 2 C34.32420898 2.01981934 33.64841797 2.03963867 32.95214844 2.06005859 C29.88437956 2.15543238 26.81728002 2.26506165 23.75 2.375 C22.15478516 2.42140625 22.15478516 2.42140625 20.52734375 2.46875 C19.50253906 2.50742188 18.47773438 2.54609375 17.421875 2.5859375 C16.47924805 2.6173584 15.53662109 2.6487793 14.56542969 2.68115234 C11.95164571 3.00600977 10.25646966 3.67676162 8 5 C7.70437633 10.32170494 7.70437633 10.32170494 10 15 C10 15.99 10 16.98 10 18 C9.34 18.33 8.68 18.66 8 19 C7.59270772 21.32156597 7.25561323 23.6568787 7 26 C9.475 26.99 9.475 26.99 12 28 C12 28.66 12 29.32 12 30 C11.360625 30.598125 10.72125 31.19625 10.0625 31.8125 C7.74825544 34.26700181 7.36608527 35.70523261 7 39 C6.505 37.515 6.505 37.515 6 36 C4.35 36 2.7 36 1 36 C0.67 33.03 0.34 30.06 0 27 C2.49092811 25.75453595 3.41080733 26.2232422 6 27 C5.814375 26.21625 5.62875 25.4325 5.4375 24.625 C5 22 5 22 6 20 C4.02 20 2.04 20 0 20 C0 13.4 0 6.8 0 0 Z " fill="#222223" transform="translate(280,77)"/>
<path d="M0 0 C0 1.65 0 3.3 0 5 C-0.66 5.33 -1.32 5.66 -2 6 C-2.33 5.01 -2.66 4.02 -3 3 C-4.91800557 3.00138269 -4.91800557 3.00138269 -6.87475872 3.00279331 C-37.21919077 3.02444525 -67.56362074 3.04093756 -97.90805865 3.05106533 C-101.64191216 3.05231606 -105.37576566 3.05361038 -109.10961914 3.05493164 C-110.22464643 3.05532511 -110.22464643 3.05532511 -111.36219952 3.05572652 C-123.40272975 3.06007932 -135.44325521 3.06796474 -147.48378261 3.0771528 C-159.83597201 3.08650016 -172.1881589 3.09205791 -184.54035169 3.09408849 C-192.16396781 3.09546147 -199.78757046 3.09979989 -207.41118244 3.10791647 C-213.2542903 3.11382099 -219.09739123 3.11445621 -224.94050217 3.11310768 C-227.33950064 3.1133834 -229.7384996 3.11538054 -232.13749504 3.11920547 C-235.40692382 3.1241637 -238.67629443 3.12299034 -241.94572449 3.12025452 C-242.90000641 3.12316736 -243.85428832 3.1260802 -244.83748788 3.12908131 C-249.01967257 3.11958999 -252.92412855 3.07250134 -257 2 C-257 1.67 -257 1.34 -257 1 C-224.69296671 0.87253769 -192.38593319 0.74513554 -160.07889934 0.61781773 C-156.26736192 0.6027969 -152.45582452 0.58777556 -148.64428711 0.57275391 C-147.88545789 0.56976329 -147.12662867 0.56677268 -146.34480462 0.56369144 C-134.04749787 0.51522541 -121.75019128 0.46671767 -109.45288476 0.41819459 C-96.84080204 0.36843039 -84.22871915 0.31871082 -71.6166361 0.26903296 C-63.83025972 0.2383617 -56.04388348 0.20765536 -48.25750742 0.17690456 C-42.29343504 0.15335432 -36.32936241 0.1298661 -30.36528969 0.10640144 C-27.91385007 0.09674684 -25.46241053 0.08707186 -23.01097107 0.07737541 C-19.6751762 0.06418397 -16.33938105 0.05106454 -13.00358582 0.03796387 C-11.5342423 0.03212744 -11.5342423 0.03212744 -10.03521508 0.02617311 C-8.69908165 0.02094802 -8.69908165 0.02094802 -7.33595562 0.01561737 C-6.56550307 0.01257961 -5.79505052 0.00954185 -5.00125092 0.00641203 C-3.33417447 0.0010707 -1.66708501 0 0 0 Z " fill="#0F0F0F" transform="translate(297,37)"/>
<path d="M0 0 C1.92453003 0.0942627 1.92453003 0.0942627 3.88793945 0.19042969 C4.571772 0.21828552 5.25560455 0.24614136 5.9601593 0.27484131 C8.14188188 0.36813338 10.32096057 0.48983165 12.5012207 0.61230469 C13.98095301 0.68058758 15.46077212 0.74701616 16.94067383 0.81152344 C20.56627662 0.97362123 24.19004763 1.16121786 27.8137207 1.36230469 C27.4837207 2.35230469 27.1537207 3.34230469 26.8137207 4.36230469 C25.8237207 4.36230469 24.8337207 4.36230469 23.8137207 4.36230469 C23.8549707 5.43480469 23.8962207 6.50730469 23.9387207 7.61230469 C23.82513821 11.01977954 23.60098707 12.56970099 21.8137207 15.36230469 C21.1537207 15.03230469 20.4937207 14.70230469 19.8137207 14.36230469 C19.3996582 12.29589844 19.3996582 12.29589844 19.1887207 9.79980469 C19.11395508 8.97351563 19.03918945 8.14722656 18.9621582 7.29589844 C18.91317383 6.6578125 18.86418945 6.01972656 18.8137207 5.36230469 C16.3387207 4.86730469 16.3387207 4.86730469 13.8137207 4.36230469 C13.4837207 7.66230469 13.1537207 10.96230469 12.8137207 14.36230469 C11.8237207 14.69230469 10.8337207 15.02230469 9.8137207 15.36230469 C7.3842691 11.71812729 7.65192496 9.64989197 7.8137207 5.36230469 C6.8237207 5.36230469 5.8337207 5.36230469 4.8137207 5.36230469 C4.8137207 8.00230469 4.8137207 10.64230469 4.8137207 13.36230469 C3.8237207 13.69230469 2.8337207 14.02230469 1.8137207 14.36230469 C1.1537207 12.38230469 0.4937207 10.40230469 -0.1862793 8.36230469 C-0.8462793 10.34230469 -1.5062793 12.32230469 -2.1862793 14.36230469 C-3.9339471 11.11663592 -5.36077245 7.96451639 -6.1862793 4.36230469 C-4.60791636 0.97700665 -3.75127322 0.42654888 0 0 Z " fill="#5B5B5C" transform="translate(139.186279296875,151.6376953125)"/>
<path d="M0 0 C0 1.98 0 3.96 0 6 C-2.64 6.66 -5.28 7.32 -8 8 C-8.33 9.32 -8.66 10.64 -9 12 C-6.03 12.33 -3.06 12.66 0 13 C0.20086443 16.71599191 0.1519437 17.77208445 -2 21 C-3.32 21 -4.64 21 -6 21 C-6 20.34 -6 19.68 -6 19 C-8.64 19 -11.28 19 -14 19 C-14.268125 18.236875 -14.53625 17.47375 -14.8125 16.6875 C-15.78608483 13.98113866 -15.78608483 13.98113866 -17.6875 12.5 C-19 11 -19 11 -19.125 8.6875 C-15.45061474 -0.09019812 -8.67894881 -0.84749229 0 0 Z " fill="#D09BB0" transform="translate(339,78)"/>
<path d="M0 0 C0.33 0.99 0.66 1.98 1 3 C4.3 3.33 7.6 3.66 11 4 C11 8.62 11 13.24 11 18 C8.54066009 17.88630789 6.0832091 17.75957349 3.625 17.625 C2.92632812 17.5940625 2.22765625 17.563125 1.5078125 17.53125 C-3.7734375 17.2265625 -3.7734375 17.2265625 -6 15 C-6.484375 12.72265625 -6.484375 12.72265625 -6.75 10.0625 C-6.84796875 9.18722656 -6.9459375 8.31195313 -7.046875 7.41015625 C-7 5 -7 5 -5 2 C-2.375 0.8125 -2.375 0.8125 0 0 Z " fill="#D19AB0" transform="translate(327,130)"/>
<path d="M0 0 C1.32 0.33 2.64 0.66 4 1 C4 2.32 4 3.64 4 5 C4.99 5 5.98 5 7 5 C7 3.35 7 1.7 7 0 C8.65 0 10.3 0 12 0 C13 4.875 13 4.875 13 6 C13.226875 5.195625 13.45375 4.39125 13.6875 3.5625 C14.120625 2.716875 14.55375 1.87125 15 1 C17.625 0.1875 17.625 0.1875 20 0 C20.28875 0.969375 20.5775 1.93875 20.875 2.9375 C21.64214682 6.10664203 21.64214682 6.10664203 24 7 C24 8.98 24 10.96 24 13 C22.68 12.67 21.36 12.34 20 12 C20 11.34 20 10.68 20 10 C18.68 10 17.36 10 16 10 C16.33 10.99 16.66 11.98 17 13 C14.03 13 11.06 13 8 13 C7.67 11.68 7.34 10.36 7 9 C6.01 9 5.02 9 4 9 C3.67 10.32 3.34 11.64 3 13 C2.01 13 1.02 13 0 13 C0 8.71 0 4.42 0 0 Z " fill="#5B5B5B" transform="translate(59,153)"/>
<path d="M0 0 C0 0.66 0 1.32 0 2 C1.65 2 3.3 2 5 2 C6.58512383 5.17024765 6.42372144 8.54667028 6 12 C4.5 14 4.5 14 3 15 C3.33 15.66 3.66 16.32 4 17 C2.125 17.625 2.125 17.625 0 18 C-0.66 17.34 -1.32 16.68 -2 16 C-1.79296875 13.6875 -1.79296875 13.6875 -1.1875 11 C-0.99542969 10.113125 -0.80335938 9.22625 -0.60546875 8.3125 C0 6 0 6 1 4 C-0.98 4.66 -2.96 5.32 -5 6 C-4.814375 7.093125 -4.62875 8.18625 -4.4375 9.3125 C-4 13 -4 13 -5 16 C-7.3125 16.3125 -7.3125 16.3125 -10 16 C-12.50553676 13.14887196 -12.97730838 11.21557035 -13.375 7.4375 C-12.98357529 3.84944015 -12.56692217 2.47185098 -10 0 C-6.30581799 -1.231394 -3.7943739 -0.64432764 0 0 Z " fill="#D1AFBF" transform="translate(333,97)"/>
<path d="M0 0 C3.67098741 1.43647333 4.99110939 2.65864128 6.875 6.125 C6.875 9.9387751 6.72485071 12.14924548 4.1875 15.0625 C1.0885552 16.4863395 -0.74682812 16.67653827 -4.125 16.125 C-7.44169279 13.67353142 -8.88580628 12.16875441 -9.8125 8.125 C-9.125 5.125 -9.125 5.125 -6.5 2.1875 C-3.125 0.125 -3.125 0.125 0 0 Z " fill="#1F1F1F" transform="translate(311.125,38.875)"/>
<path d="M0 0 C0.33 8.25 0.66 16.5 1 25 C-1.31 25.66 -3.62 26.32 -6 27 C-6 18.75 -6 10.5 -6 2 C-2 0 -2 0 0 0 Z " fill="#0F0A0B" transform="translate(233,114)"/>
<path d="M0 0 C2.24004999 3.36007498 2.11758489 5.03042011 1.875 8.96484375 C0.48114965 12.20679033 -1.84847601 13.67756517 -5 15 C-8.95140464 15.58498475 -12.86662258 15.55740758 -16.85546875 15.5390625 C-18.5633532 15.55675186 -18.5633532 15.55675186 -20.30574036 15.57479858 C-23.93313351 15.61003456 -27.55994971 15.61922862 -31.1875 15.625 C-34.82558917 15.6413283 -38.46342035 15.66331629 -42.10139465 15.69662476 C-44.36279133 15.71629631 -46.62430665 15.72558519 -48.88578796 15.72354126 C-50.4180175 15.73397964 -50.4180175 15.73397964 -51.98120117 15.74462891 C-52.88021652 15.74588776 -53.77923187 15.74714661 -54.70549011 15.7484436 C-57.27724817 15.8520909 -57.27724817 15.8520909 -60 18 C-61.19232613 20.05003955 -61.19232613 20.05003955 -62 22 C-62 20.02 -62 18.04 -62 16 C-61.34 16 -60.68 16 -60 16 C-60 15.34 -60 14.68 -60 14 C-53.97147461 12.96023782 -48.06648001 12.81759851 -41.95703125 12.75390625 C-39.81054237 12.72099589 -37.66405809 12.68778382 -35.51757812 12.65429688 C-32.15343093 12.60674796 -28.78930605 12.56223087 -25.42504883 12.52319336 C-22.1646926 12.48354583 -18.904692 12.43201922 -15.64453125 12.37890625 C-14.63719437 12.3704921 -13.62985748 12.36207794 -12.59199524 12.35340881 C-11.65389511 12.33676682 -10.71579498 12.32012482 -9.74926758 12.30297852 C-8.51518913 12.28751732 -8.51518913 12.28751732 -7.25617981 12.27174377 C-4.7446246 11.96924151 -3.11901737 11.37513764 -1 10 C-0.29823412 7.58320293 -0.29823412 7.58320293 -0.25 4.875 C-0.16492188 3.50988281 -0.16492188 3.50988281 -0.078125 2.1171875 C-0.03945312 1.06917969 -0.03945312 1.06917969 0 0 Z " fill="#555555" transform="translate(140,65)"/>
<path d="M0 0 C4.95 0 9.9 0 15 0 C15.33 0.66 15.66 1.32 16 2 C16.598125 1.67 17.19625 1.34 17.8125 1 C20 0 20 0 23 0 C22.625 2.9375 22.625 2.9375 22 6 C21.01 6.495 21.01 6.495 20 7 C19.27840576 8.64363134 18.60648579 10.31050386 18 12 C17.01 12 16.02 12 15 12 C13.74335022 9.09399739 13 7.20395416 13 4 C12.34 4 11.68 4 11 4 C11 3.34 11 2.68 11 2 C10.34 2 9.68 2 9 2 C8.87625 3.2375 8.7525 4.475 8.625 5.75 C8.24253695 8.8762197 7.69450477 11.28879237 6 14 C5.34 13.67 4.68 13.34 4 13 C4 9.37 4 5.74 4 2 C2.68 2 1.36 2 0 2 C0 1.34 0 0.68 0 0 Z " fill="#5A5A5A" transform="translate(83,153)"/>
<path d="M0 0 C0.33 0.66 0.66 1.32 1 2 C1.66 2 2.32 2 3 2 C3 2.99 3 3.98 3 5 C2.34 5 1.68 5 1 5 C1 8.3 1 11.6 1 15 C2.32 15.66 3.64 16.32 5 17 C4.67 17.99 4.34 18.98 4 20 C3.34 20 2.68 20 2 20 C1.67 20.66 1.34 21.32 1 22 C1 21.01 1 20.02 1 19 C-1.97 19 -4.94 19 -8 19 C-8 16.03 -8 13.06 -8 10 C-6.68 9.67 -5.36 9.34 -4 9 C-4.66 8.67 -5.32 8.34 -6 8 C-5.67 6.68 -5.34 5.36 -5 4 C-4.01 4 -3.02 4 -2 4 C-2.33 3.01 -2.66 2.02 -3 1 C-2.01 0.67 -1.02 0.34 0 0 Z " fill="#0C0D0F" transform="translate(287,116)"/>
<path d="M0 0 C0 3.63 0 7.26 0 11 C-0.99 11 -1.98 11 -3 11 C-1.35 11.33 0.3 11.66 2 12 C2.33 11.34 2.66 10.68 3 10 C3 10.99 3 11.98 3 13 C3.66 13 4.32 13 5 13 C5 12.34 5 11.68 5 11 C5.66 11 6.32 11 7 11 C7 11.99 7 12.98 7 14 C3.42771221 16.23157731 0.46913776 16.23870158 -3.6875 16.1875 C-5.42580078 16.17783203 -5.42580078 16.17783203 -7.19921875 16.16796875 C-10 16 -10 16 -11 15 C-11.04063832 13.33382885 -11.042721 11.66611905 -11 10 C-9.35 9.34 -7.7 8.68 -6 8 C-5.67 5.69 -5.34 3.38 -5 1 C-2 0 -2 0 0 0 Z " fill="#DEB3C3" transform="translate(331,114)"/>
<path d="M0 0 C0.98329211 4.05607995 1.23600253 7.83062202 1 12 C-1 14 -1 14 -3.9375 14.3125 C-7 14 -7 14 -8.6796875 12.8046875 C-10.45899579 10.37261522 -10.30357277 8.79170104 -10.1875 5.8125 C-10.16042969 4.91144531 -10.13335937 4.01039063 -10.10546875 3.08203125 C-10.07066406 2.39496094 -10.03585938 1.70789063 -10 1 C-6.25712373 -1.13181214 -4.21015871 -0.95685425 0 0 Z M-5 3 C-5 3.66 -5 4.32 -5 5 C-4.34 5 -3.68 5 -3 5 C-3 4.34 -3 3.68 -3 3 C-3.66 3 -4.32 3 -5 3 Z M-7 8 C-7 8.66 -7 9.32 -7 10 C-5.68 10.33 -4.36 10.66 -3 11 C-3 10.34 -3 9.68 -3 9 C-4.32 8.67 -5.64 8.34 -7 8 Z " fill="#C78296" transform="translate(248,153)"/>
<path d="M0 0 C6.27 0 12.54 0 19 0 C19.33 1.65 19.66 3.3 20 5 C19.01 5.495 19.01 5.495 18 6 C18 6.66 18 7.32 18 8 C15.69 8 13.38 8 11 8 C10.67 6.35 10.34 4.7 10 3 C9.62875 3.825 9.2575 4.65 8.875 5.5 C7.946875 6.7375 7.946875 6.7375 7 8 C3.8125 8.3125 3.8125 8.3125 1 8 C0 6 0 6 0 0 Z " fill="#7C7C7C" transform="translate(114,173)"/>
<path d="M0 0 C0.33 1.65 0.66 3.3 1 5 C-0.32 5 -1.64 5 -3 5 C-3 4.34 -3 3.68 -3 3 C-4.32 3.33 -5.64 3.66 -7 4 C-7 5.65 -7 7.3 -7 9 C-6.4225 8.855625 -5.845 8.71125 -5.25 8.5625 C-3.16666667 8.04166667 -1.08333333 7.52083333 1 7 C0.6875 9.375 0.6875 9.375 0 12 C-3 14 -3 14 -6.5625 13.8125 C-10 13 -10 13 -12 10 C-12.08203125 7.80859375 -12.08203125 7.80859375 -11.8125 5.4375 C-11.73644531 4.65246094 -11.66039062 3.86742187 -11.58203125 3.05859375 C-9.93314894 -2.7733591 -4.48705384 -0.7355826 0 0 Z " fill="#DAA6B8" transform="translate(262,153)"/>
<path d="M0 0 C0 7.59 0 15.18 0 23 C-1.65 23.33 -3.3 23.66 -5 24 C-6.0625 22.1875 -6.0625 22.1875 -7 20 C-6.505 18.515 -6.505 18.515 -6 17 C-5.77357216 13.54248286 -5.60586212 10.0912547 -5.48242188 6.62890625 C-5.39129606 4.74793188 -5.20313498 2.87219248 -5 1 C-3 0 -3 0 0 0 Z " fill="#F0D4E3" transform="translate(229,142)"/>
<path d="M0 0 C0 0.99 0 1.98 0 3 C0.99 3.33 1.98 3.66 3 4 C1.68 4.33 0.36 4.66 -1 5 C-1 7.64 -1 10.28 -1 13 C-1.99 13.33 -2.98 13.66 -4 14 C-4.66 12.02 -5.32 10.04 -6 8 C-6.66 9.98 -7.32 11.96 -8 14 C-9.7476678 10.75433123 -11.17449315 7.6022117 -12 4 C-10.09820184 -1.55910232 -4.92306664 -0.3715522 0 0 Z " fill="#7C7C7C" transform="translate(145,152)"/>
<path d="M0 0 C0.12375 0.639375 0.2475 1.27875 0.375 1.9375 C0.58125 2.618125 0.7875 3.29875 1 4 C1.66 4.33 2.32 4.66 3 5 C3.59355614 7.64860427 3.74209269 10.29197322 4 13 C2.68 13 1.36 13 0 13 C-0.33 12.34 -0.66 11.68 -1 11 C-1.99 10.67 -2.98 10.34 -4 10 C-4.33 10.99 -4.66 11.98 -5 13 C-5.99 13 -6.98 13 -8 13 C-7.66666667 11 -7.33333333 9 -7 7 C-6.855625 5.906875 -6.71125 4.81375 -6.5625 3.6875 C-6.376875 2.800625 -6.19125 1.91375 -6 1 C-4 0 -4 0 0 0 Z " fill="#585859" transform="translate(174,153)"/>
<path d="M0 0 C3 2 3 2 3.58203125 4.171875 C4.04045777 9.30003611 4.15893508 13.17414512 2 18 C0.0625 17.1875 0.0625 17.1875 -2 16 C-2.33 15.01 -2.66 14.02 -3 13 C-3.66 13 -4.32 13 -5 13 C-5 9.7 -5 6.4 -5 3 C-3.68 2.67 -2.36 2.34 -1 2 C-0.67 1.34 -0.34 0.68 0 0 Z " fill="#E8BACC" transform="translate(336,163)"/>
<path d="M0 0 C1.6415049 3.2830098 0.51888624 6.42545033 0 10 C0.99 9.67 1.98 9.34 3 9 C3 9.99 3 10.98 3 12 C4.26444946 12.03758423 4.26444946 12.03758423 5.55444336 12.07592773 C8.67241674 12.17088155 11.79021503 12.27012448 14.90795898 12.37231445 C16.25914147 12.41571223 17.61038053 12.4573837 18.96166992 12.49731445 C20.90036701 12.55489952 22.83886276 12.61914298 24.77734375 12.68359375 C25.94515381 12.72025146 27.11296387 12.75690918 28.31616211 12.79467773 C31 13 31 13 32 14 C32.07205511 15.68608966 32.08386068 17.37500659 32.0625 19.0625 C32.05347656 19.98160156 32.04445313 20.90070313 32.03515625 21.84765625 C32.02355469 22.55792969 32.01195312 23.26820312 32 24 C31.01 24.495 31.01 24.495 30 25 C30 22.03 30 19.06 30 16 C28.85785034 15.98598145 28.85785034 15.98598145 27.69262695 15.97167969 C24.2319338 15.91789063 20.77257982 15.83425816 17.3125 15.75 C16.11431641 15.73582031 14.91613281 15.72164062 13.68164062 15.70703125 C11.94624023 15.65869141 11.94624023 15.65869141 10.17578125 15.609375 C8.58117065 15.5779541 8.58117065 15.5779541 6.9543457 15.54589844 C3.32076694 14.87449259 1.60773427 13.57629792 -1 11 C-1.5234375 8.45703125 -1.5234375 8.45703125 -1.375 5.8125 C-1.34148437 4.93207031 -1.30796875 4.05164063 -1.2734375 3.14453125 C-1 1 -1 1 0 0 Z " fill="#434343" transform="translate(240,64)"/>
<path d="M0 0 C2.4375 0.9375 2.4375 0.9375 5 3 C5.87522037 5.98668951 6.22987567 8.89373127 6 12 C5.34 12.66 4.68 13.32 4 14 C3.67 13.34 3.34 12.68 3 12 C-0.00259517 11.66781808 -0.00259517 11.66781808 -1.6875 13.5 C-2.120625 13.995 -2.55375 14.49 -3 15 C-3.66 14.34 -4.32 13.68 -5 13 C-4.75704021 7.77636459 -2.68742135 4.33455057 0 0 Z " fill="#353535" transform="translate(110,152)"/>
<path d="M0 0 C-1 3 -1 3 -3 4 C-4.87379605 4.07033769 -6.75001102 4.0843022 -8.625 4.0625 C-9.62789063 4.05347656 -10.63078125 4.04445312 -11.6640625 4.03515625 C-12.43492187 4.02355469 -13.20578125 4.01195312 -14 4 C-13.67 5.65 -13.34 7.3 -13 9 C-7.07029617 9.49414199 -2.99554426 8.99739381 2.17578125 5.97265625 C4.10059233 4.94636512 5.87238079 4.44618946 8 4 C4.00156162 8.77232968 0.10017395 10.75044824 -6 12 C-9.02436916 12.25512317 -11.98104458 12.35041447 -15 12 C-16 11 -16 11 -16.1328125 9.1875 C-16.13023437 8.465625 -16.12765625 7.74375 -16.125 7 C-16.12757813 6.278125 -16.13015625 5.55625 -16.1328125 4.8125 C-16 3 -16 3 -15 2 C-13.19188816 1.79103683 -11.37783968 1.63219639 -9.5625 1.5 C-6.24399425 1.25771014 -3.15528811 0 0 0 Z " fill="#575657" transform="translate(363,168)"/>
<path d="M0 0 C0.12375 0.804375 0.2475 1.60875 0.375 2.4375 C0.58125 3.283125 0.7875 4.12875 1 5 C1.66 5.33 2.32 5.66 3 6 C3 7.98 3 9.96 3 12 C1.68 11.67 0.36 11.34 -1 11 C-1 10.34 -1 9.68 -1 9 C-2.32 9 -3.64 9 -5 9 C-4.67 9.99 -4.34 10.98 -4 12 C-4.99 12 -5.98 12 -7 12 C-7.91464004 7.33533582 -8.36608693 4.23405029 -6 0 C-3.50907189 -1.24546405 -2.58919267 -0.7767578 0 0 Z " fill="#4E4E4E" transform="translate(80,154)"/>
<path d="M0 0 C2.38564077 0.57584432 4.66682784 1.22227595 7 2 C8.66362417 2.34820041 10.32995171 2.68404492 12 3 C13.04449911 6.13349732 12.93423645 6.98968256 12 10 C10.02 10 8.04 10 6 10 C5.34 8.35 4.68 6.7 4 5 C3.3503125 6.2375 3.3503125 6.2375 2.6875 7.5 C1.8521875 8.7375 1.8521875 8.7375 1 10 C0.01 10 -0.98 10 -2 10 C-3.39195915 5.82412255 -1.82323219 3.86525224 0 0 Z " fill="#9D9C9D" transform="translate(276,171)"/>
<path d="M0 0 C2.52561648 3.78842473 2.25391573 6.78533329 2.1953125 11.16796875 C2.1924826 11.96278152 2.18965271 12.7575943 2.18673706 13.57649231 C2.17554705 16.11364838 2.15044491 18.65045072 2.125 21.1875 C2.11496866 22.90819802 2.10584308 24.62890159 2.09765625 26.34960938 C2.07561161 30.56654243 2.04109006 34.78321125 2 39 C2.99 39.33 3.98 39.66 5 40 C5 40.99 5 41.98 5 43 C2 42 2 42 0 39 C-0.17222348 36.02608939 -0.23194201 33.14797082 -0.1953125 30.17578125 C-0.1924826 29.31438034 -0.18965271 28.45297943 -0.18673706 27.56547546 C-0.17554237 24.81434231 -0.15043921 22.06353475 -0.125 19.3125 C-0.11496927 17.44727033 -0.10584359 15.58203555 -0.09765625 13.71679688 C-0.07560538 9.1444058 -0.04108049 4.57225811 0 0 Z " fill="#494949" transform="translate(216,98)"/>
<path d="M0 0 C2.375 -0.125 2.375 -0.125 5 0 C5.66 0.66 6.32 1.32 7 2 C7.66 1.34 8.32 0.68 9 0 C10.32 0 11.64 0 13 0 C12.67 1.65 12.34 3.3 12 5 C11.34 5 10.68 5 10 5 C9.34 7.31 8.68 9.62 8 12 C4.3392481 10.77974937 4.07660559 9.873509 2.3125 6.5625 C1.87550781 5.75941406 1.43851563 4.95632812 0.98828125 4.12890625 C0 2 0 2 0 0 Z " fill="#5C5C5E" transform="translate(177,153)"/>
<path d="M0 0 C1.32 0 2.64 0 4 0 C4 1.65 4 3.3 4 5 C5.32 5 6.64 5 8 5 C8 3.35 8 1.7 8 0 C8.99 0 9.98 0 11 0 C11 2.31 11 4.62 11 7 C8.29120665 8.35439668 5.99066732 8.06501451 3 8 C3 9.65 3 11.3 3 13 C2.01 13 1.02 13 0 13 C0 8.71 0 4.42 0 0 Z " fill="#C37892" transform="translate(264,153)"/>
<path d="M0 0 C-0.66 1.32 -1.32 2.64 -2 4 C-2.66 4 -3.32 4 -4 4 C-4.33 5.65 -4.66 7.3 -5 9 C-3.68 9.66 -2.36 10.32 -1 11 C-2.47906892 11.02689216 -3.95827483 11.04634621 -5.4375 11.0625 C-6.67306641 11.07990234 -6.67306641 11.07990234 -7.93359375 11.09765625 C-10 11 -10 11 -11 10 C-11.66 10.66 -12.32 11.32 -13 12 C-13.66 10.68 -14.32 9.36 -15 8 C-11.125 7 -11.125 7 -10 7 C-10 5.02 -10 3.04 -10 1 C-6.78548731 -0.60725635 -3.56387464 -0.05748185 0 0 Z " fill="#E4A7BD" transform="translate(336,135)"/>
<path d="M0 0 C0.69848264 1.93356782 1.38344814 3.87202298 2.0625 5.8125 C2.44535156 6.89144531 2.82820312 7.97039062 3.22265625 9.08203125 C4 12 4 12 3 15 C2.01 14.67 1.02 14.34 0 14 C0 13.01 0 12.02 0 11 C-1.89179203 10.3185177 -1.89179203 10.3185177 -4 10 C-4.66 10.66 -5.32 11.32 -6 12 C-5.91253716 10.56138706 -5.80434652 9.12402492 -5.6875 7.6875 C-5.62949219 6.88699219 -5.57148438 6.08648437 -5.51171875 5.26171875 C-4.78420948 2.04623884 -3.45396859 0 0 0 Z " fill="#29282A" transform="translate(220,152)"/>
<path d="M0 0 C-0.99 3.96 -1.98 7.92 -3 12 C-2.01 12.33 -1.02 12.66 0 13 C-0.165 14.051875 -0.33 15.10375 -0.5 16.1875 C-0.89569678 19.20468796 -1.09178971 21.97093972 -1 25 C-2.65 25.33 -4.3 25.66 -6 26 C-6 25.34 -6 24.68 -6 24 C-5.01 24 -4.02 24 -3 24 C-3 20.37 -3 16.74 -3 13 C-7.23578792 15.10390941 -7.23578792 15.10390941 -9 19 C-9 16.69 -9 14.38 -9 12 C-8.01 12 -7.02 12 -6 12 C-6 10.02 -6 8.04 -6 6 C-5.01 5.67 -4.02 5.34 -3 5 C-2.67 4.01 -2.34 3.02 -2 2 C-2.99 1.67 -3.98 1.34 -5 1 C-2 0 -2 0 0 0 Z " fill="#EABFD4" transform="translate(334,101)"/>
<path d="M0 0 C0.33 0 0.66 0 1 0 C1.16783252 6.53263301 1.32779476 13.06542405 1.48217773 19.59838867 C1.53568392 21.82271736 1.59101963 24.0470028 1.64819336 26.27124023 C1.7298646 29.46067982 1.80504388 32.65021499 1.87890625 35.83984375 C1.90594131 36.84087631 1.93297638 37.84190887 1.96083069 38.87327576 C1.98092697 39.79415482 2.00102325 40.71503387 2.02172852 41.66381836 C2.04171402 42.47878281 2.06169952 43.29374725 2.08229065 44.13340759 C2 46 2 46 1 47 C-1.33297433 47.04092937 -3.66705225 47.04241723 -6 47 C-5.67 46.01 -5.34 45.02 -5 44 C-3.68 44 -2.36 44 -1 44 C-0.67 29.48 -0.34 14.96 0 0 Z " fill="#0D0D0D" transform="translate(30,78)"/>
<path d="M0 0 C1 3 1 3 0.0625 5.1875 C-0.288125 5.785625 -0.63875 6.38375 -1 7 C-3.64 7 -6.28 7 -9 7 C-9.625 4.6875 -9.625 4.6875 -10 2 C-8 -1 -8 -1 -6.125 -1.8125 C-3.43308754 -2.05002169 -2.21087988 -1.52474475 0 0 Z " fill="#737275" transform="translate(300,174)"/>
<path d="M0 0 C0.33 0.66 0.66 1.32 1 2 C0.01 2 -0.98 2 -2 2 C-2 3.65 -2 5.3 -2 7 C-2.99 7 -3.98 7 -5 7 C-5 12.61 -5 18.22 -5 24 C-6.65 24 -8.3 24 -10 24 C-10.33 22.02 -10.66 20.04 -11 18 C-9.68 17.67 -8.36 17.34 -7 17 C-6.97301811 15.37509046 -6.95361243 13.75005367 -6.9375 12.125 C-6.92589844 11.22007812 -6.91429687 10.31515625 -6.90234375 9.3828125 C-6.83750743 6.9831415 -6.83750743 6.9831415 -8 5 C-7.01 4.67 -6.02 4.34 -5 4 C-4.34 3.01 -3.68 2.02 -3 1 C-2.01 0.67 -1.02 0.34 0 0 Z " fill="#E0BACA" transform="translate(331,158)"/>
<path d="M0 0 C0.33 0.66 0.66 1.32 1 2 C1.66 2 2.32 2 3 2 C3 2.99 3 3.98 3 5 C2.34 5 1.68 5 1 5 C0.67 7.64 0.34 10.28 0 13 C-3 14 -3 14 -5.1875 13.0625 C-5.785625 12.711875 -6.38375 12.36125 -7 12 C-6.01 11.01 -5.02 10.02 -4 9 C-4.66 8.67 -5.32 8.34 -6 8 C-5.67 6.68 -5.34 5.36 -5 4 C-4.01 4 -3.02 4 -2 4 C-2.33 3.01 -2.66 2.02 -3 1 C-2.01 0.67 -1.02 0.34 0 0 Z " fill="#232426" transform="translate(287,116)"/>
<path d="M0 0 C1.32 0 2.64 0 4 0 C4 4.29 4 8.58 4 13 C2.02 13.33 0.04 13.66 -2 14 C-3.1577506 10.52674819 -3.06866652 7.63932552 -3 4 C-2.34 4.66 -1.68 5.32 -1 6 C-0.67 4.02 -0.34 2.04 0 0 Z " fill="#616161" transform="translate(118,153)"/>
<path d="M0 0 C2.64 0 5.28 0 8 0 C7.67 4.29 7.34 8.58 7 13 C6.01 13.33 5.02 13.66 4 14 C1.55423173 10.33134759 1.76392746 8.32799657 2 4 C2.33 3.34 2.66 2.68 3 2 C2.01 2 1.02 2 0 2 C0 1.34 0 0.68 0 0 Z " fill="#2E2E2E" transform="translate(145,153)"/>
<path d="M0 0 C2.97 0.33 5.94 0.66 9 1 C9.20086443 4.71599191 9.1519437 5.77208445 7 9 C5.68 9 4.36 9 3 9 C3 8.34 3 7.68 3 7 C0.36 7 -2.28 7 -5 7 C-5 6.34 -5 5.68 -5 5 C-3.35 5 -1.7 5 0 5 C0 3.68 0 2.36 0 1 C0 0.67 0 0.34 0 0 Z " fill="#E3B4C6" transform="translate(330,90)"/>
<path d="M0 0 C0.625 2.3125 0.625 2.3125 1 5 C0.01 6.485 0.01 6.485 -1 8 C-4 8.375 -4 8.375 -7 8 C-9 5 -9 5 -9 1 C-6.04335481 -0.4783226 -3.25770263 -0.06032783 0 0 Z " fill="#5A5A5B" transform="translate(211,173)"/>
<path d="M0 0 C0.66 0.33 1.32 0.66 2 1 C2 4.3 2 7.6 2 11 C3.65 11 5.3 11 7 11 C7.33 12.32 7.66 13.64 8 15 C1.9453125 15.1953125 1.9453125 15.1953125 0 15 C-2 13 -2 13 -2.01171875 10.21484375 C-1.90472656 9.13332031 -1.79773438 8.05179688 -1.6875 6.9375 C-1.58824219 5.85339844 -1.48898437 4.76929688 -1.38671875 3.65234375 C-1 1 -1 1 0 0 Z " fill="#D492A4" transform="translate(307,152)"/>
<path d="M0 0 C1.32 0 2.64 0 4 0 C4.33 -0.66 4.66 -1.32 5 -2 C5 -1.01 5 -0.02 5 1 C5.66 1 6.32 1 7 1 C7 0.34 7 -0.32 7 -1 C7.66 -1 8.32 -1 9 -1 C9 -0.01 9 0.98 9 2 C5.40537669 4.25998595 2.43404325 4.20868087 -1.75 4.125 C-2.92046875 4.10695312 -4.0909375 4.08890625 -5.296875 4.0703125 C-6.63492187 4.03550781 -6.63492187 4.03550781 -8 4 C-8 2.35 -8 0.7 -8 -1 C-4.30558125 -2.23147292 -3.48015214 -1.44298991 0 0 Z " fill="#D09EB2" transform="translate(329,126)"/>
<path d="M0 0 C2.0625 0.4375 2.0625 0.4375 4 1 C3.83701416 1.70664795 3.67402832 2.4132959 3.50610352 3.14135742 C2.98646586 6.07644539 2.88641651 8.75988693 2.90234375 11.73828125 C2.90556641 12.80498047 2.90878906 13.87167969 2.91210938 14.97070312 C2.92048828 16.07349609 2.92886719 17.17628906 2.9375 18.3125 C2.94201172 19.43462891 2.94652344 20.55675781 2.95117188 21.71289062 C2.96292687 24.4753151 2.97935923 27.23762998 3 30 C4.32 30.33 5.64 30.66 7 31 C1.04296875 32.7578125 1.04296875 32.7578125 -1 33 C-1.99 32.34 -2.98 31.68 -4 31 C-2.35 31 -0.7 31 1 31 C0.86076952 26.93724554 0.71246082 22.87487143 0.5625 18.8125 C0.52318359 17.66201172 0.48386719 16.51152344 0.44335938 15.32617188 C0.40146484 14.21435547 0.35957031 13.10253906 0.31640625 11.95703125 C0.27974854 10.93585205 0.24309082 9.91467285 0.20532227 8.86254883 C0.06284338 5.99133958 0.06284338 5.99133958 -0.58227539 3.19018555 C-0.72012451 2.46742432 -0.85797363 1.74466309 -1 1 C-0.67 0.67 -0.34 0.34 0 0 Z " fill="#755B64" transform="translate(225,110)"/>
<path d="M0 0 C2.25998595 3.59462331 2.20868087 6.56595675 2.125 10.75 C2.10695313 11.92046875 2.08890625 13.0909375 2.0703125 14.296875 C2.03550781 15.63492188 2.03550781 15.63492188 2 17 C1.34 17 0.68 17 0 17 C0 17.66 0 18.32 0 19 C-0.66 19 -1.32 19 -2 19 C-2.93385816 16.19842552 -3.16354595 14.34552197 -3.1875 11.4375 C-3.20167969 10.65246094 -3.21585937 9.86742188 -3.23046875 9.05859375 C-3 7 -3 7 -1 5 C-0.35232207 2.42938689 -0.35232207 2.42938689 0 0 Z " fill="#E3AEC0" transform="translate(336,108)"/>
<path d="M0 0 C2.31 0 4.62 0 7 0 C6.51020408 6.48979592 6.51020408 6.48979592 4.0625 8.9375 C2 10 2 10 0 10 C-2.21538462 4.58461538 -2.21538462 4.58461538 -1.125 1.625 C-0.75375 1.08875 -0.3825 0.5525 0 0 Z " fill="#8B8B8B" transform="translate(83,173)"/>
<path d="M0 0 C2.97 0 5.94 0 9 0 C10.2077558 3.62326739 9.54311128 4.64146369 8 8 C3.55063291 8.36075949 3.55063291 8.36075949 1.1875 6.8125 C-0.36678206 4.44017475 -0.22537188 2.77958655 0 0 Z " fill="#898989" transform="translate(135,173)"/>
<path d="M0 0 C0.59732819 2.76264289 1 5.16032769 1 8 C0.01 8 -0.98 8 -2 8 C-2.33 8.99 -2.66 9.98 -3 11 C-3 10.34 -3 9.68 -3 9 C-3.66 8.67 -4.32 8.34 -5 8 C-4.34 6.35 -3.68 4.7 -3 3 C-3.66 3 -4.32 3 -5 3 C-5.33 3.66 -5.66 4.32 -6 5 C-6.66 4.01 -7.32 3.02 -8 2 C-8.66 3.32 -9.32 4.64 -10 6 C-10 4.35 -10 2.7 -10 1 C-6.42181037 -1.33958553 -4.07775191 -0.9267618 0 0 Z " fill="#D4A3B3" transform="translate(248,153)"/>
<path d="M0 0 C6 3 6 3 6.875 5.1875 C6.936875 6.0846875 6.936875 6.0846875 7 7 C6.01 7 5.02 7 4 7 C4 7.66 4 8.32 4 9 C4.66 9.33 5.32 9.66 6 10 C5.360625 10.103125 4.72125 10.20625 4.0625 10.3125 C3.0415625 10.6528125 3.0415625 10.6528125 2 11 C1.67 11.99 1.34 12.98 1 14 C1.99 14.33 2.98 14.66 4 15 C2.02 15.99 2.02 15.99 0 17 C0 11.39 0 5.78 0 0 Z " fill="#151516" transform="translate(280,110)"/>
<path d="M0 0 C0.33 0 0.66 0 1 0 C2.35384615 7.38461538 2.35384615 7.38461538 0.5625 10.5 C0.046875 10.995 -0.46875 11.49 -1 12 C-4 11 -4 11 -6 8 C-6.125 5.3125 -6.125 5.3125 -6 3 C-5.195625 2.690625 -4.39125 2.38125 -3.5625 2.0625 C-1.10919595 1.23664655 -1.10919595 1.23664655 0 0 Z " fill="#D4ADBC" transform="translate(326,152)"/>
<path d="M0 0 C16.335 0.495 16.335 0.495 33 1 C33 1.33 33 1.66 33 2 C32.32420898 2.01981934 31.64841797 2.03963867 30.95214844 2.06005859 C27.88437956 2.15543238 24.81728002 2.26506165 21.75 2.375 C20.15478516 2.42140625 20.15478516 2.42140625 18.52734375 2.46875 C17.50253906 2.50742188 16.47773438 2.54609375 15.421875 2.5859375 C14.47924805 2.6173584 13.53662109 2.6487793 12.56542969 2.68115234 C9.916667 3.01035715 8.23285531 3.55292081 6 5 C5.19471111 7.05000871 5.19471111 7.05000871 5 9 C4.67 9 4.34 9 4 9 C4 7.02 4 5.04 4 3 C2.68 2.67 1.36 2.34 0 2 C0 1.34 0 0.68 0 0 Z " fill="#5B5B5B" transform="translate(282,77)"/>
<path d="M0 0 C0.99 0.33 1.98 0.66 3 1 C4.42857143 9.57142857 4.42857143 9.57142857 2 13 C1.34 13 0.68 13 0 13 C-1.42944945 10.64561267 -2.08661261 9.51967567 -1.625 6.75 C-1.41875 6.1725 -1.2125 5.595 -1 5 C-2.98 5.33 -4.96 5.66 -7 6 C-7 5.01 -7 4.02 -7 3 C-4.69 3 -2.38 3 0 3 C0 2.01 0 1.02 0 0 Z " fill="#CB97A8" transform="translate(301,153)"/>
<path d="M0 0 C0.66 0 1.32 0 2 0 C2 1.32 2 2.64 2 4 C3.32 3.67 4.64 3.34 6 3 C8.125 7.625 8.125 7.625 7 11 C4.625 11.1875 4.625 11.1875 2 11 C-0.67927341 6.98108988 -0.15601248 4.75838077 0 0 Z " fill="#CFA0B2" transform="translate(321,102)"/>
<path d="M0 0 C5.59215686 1.3372549 5.59215686 1.3372549 7.5 4.4375 C8 7 8 7 6 10 C2.875 10.1875 2.875 10.1875 0 10 C0 6.7 0 3.4 0 0 Z " fill="#949394" transform="translate(265,171)"/>
<path d="M0 0 C0.66 0 1.32 0 2 0 C2 0.66 2 1.32 2 2 C3.32 2.66 4.64 3.32 6 4 C6 5.98 6 7.96 6 10 C4.00045254 10.04254356 1.99958364 10.04080783 0 10 C-1 9 -1 9 -1.1328125 7.1875 C-1.13023438 6.465625 -1.12765625 5.74375 -1.125 5 C-1.12757812 4.278125 -1.13015625 3.55625 -1.1328125 2.8125 C-1 1 -1 1 0 0 Z " fill="#6B6B6B" transform="translate(60,171)"/>
<path d="M0 0 C3.3 0 6.6 0 10 0 C9.01 0.495 9.01 0.495 8 1 C8.03480469 1.77085937 8.06960937 2.54171875 8.10546875 3.3359375 C8.13253906 4.33882812 8.15960938 5.34171875 8.1875 6.375 C8.22230469 7.37273437 8.25710937 8.37046875 8.29296875 9.3984375 C8.19628906 10.25695312 8.09960938 11.11546875 8 12 C7.01 12.66 6.02 13.32 5 14 C4 13 4 13 3.90234375 10.49609375 C3.91394531 9.48675781 3.92554687 8.47742188 3.9375 7.4375 C3.94652344 6.42558594 3.95554687 5.41367188 3.96484375 4.37109375 C3.97644531 3.58863281 3.98804687 2.80617187 4 2 C2.68 2 1.36 2 0 2 C0 1.34 0 0.68 0 0 Z " fill="#414141" transform="translate(83,153)"/>
<path d="M0 0 C2 1 4 2 6 3 C7.26229508 7.47540984 7.26229508 7.47540984 6 10 C4.02 10 2.04 10 0 10 C-1.125 2.25 -1.125 2.25 0 0 Z " fill="#686868" transform="translate(154,171)"/>
<path d="M0 0 C1.2065625 0.0309375 1.2065625 0.0309375 2.4375 0.0625 C3.625 1.6875 3.625 1.6875 4.4375 4.0625 C3.0625 7.3125 3.0625 7.3125 1.4375 10.0625 C0.1175 10.0625 -1.2025 10.0625 -2.5625 10.0625 C-2.75662181 8.58418779 -2.94262131 7.10480684 -3.125 5.625 C-3.22941406 4.80128906 -3.33382812 3.97757813 -3.44140625 3.12890625 C-3.48136719 2.44699219 -3.52132812 1.76507813 -3.5625 1.0625 C-2.5625 0.0625 -2.5625 0.0625 0 0 Z " fill="#6F6F72" transform="translate(181.5625,172.9375)"/>
<path d="M0 0 C-0.020625 0.763125 -0.04125 1.52625 -0.0625 2.3125 C-0.12942841 5.10185786 -0.12942841 5.10185786 1 8 C-4.75 8.125 -4.75 8.125 -7 7 C-7 5.02 -7 3.04 -7 1 C-4.53721199 -0.231394 -2.7204945 -0.07159196 0 0 Z " fill="#5E5E61" transform="translate(194,173)"/>
<path d="M0 0 C1.65 0 3.3 0 5 0 C5.59732819 2.76264289 6 5.16032769 6 8 C3.125 8.1875 3.125 8.1875 0 8 C-0.66 7.01 -1.32 6.02 -2 5 C-1.125 2.3125 -1.125 2.3125 0 0 Z " fill="#7B7B7B" transform="translate(234,173)"/>
<path d="M0 0 C2.625 0.375 2.625 0.375 5 1 C5.625 3.375 5.625 3.375 6 6 C5.34 6.66 4.68 7.32 4 8 C1.375 7.625 1.375 7.625 -1 7 C-1.625 4.625 -1.625 4.625 -2 2 C-1.34 1.34 -0.68 0.68 0 0 Z " fill="#8A8A8A" transform="translate(244,173)"/>
<path d="M0 0 C1.51400391 0.01740234 1.51400391 0.01740234 3.05859375 0.03515625 C4.07050781 0.04417969 5.08242188 0.05320312 6.125 0.0625 C7.29869141 0.07990234 7.29869141 0.07990234 8.49609375 0.09765625 C8.49609375 2.07765625 8.49609375 4.05765625 8.49609375 6.09765625 C4.04109375 5.10765625 4.04109375 5.10765625 -0.50390625 4.09765625 C-0.50390625 3.43765625 -0.50390625 2.77765625 -0.50390625 2.09765625 C-1.49390625 1.76765625 -2.48390625 1.43765625 -3.50390625 1.09765625 C-2.50390625 0.09765625 -2.50390625 0.09765625 0 0 Z " fill="#E6BFCC" transform="translate(330.50390625,77.90234375)"/>
<path d="M0 0 C1.65 0.33 3.3 0.66 5 1 C5.33 3.31 5.66 5.62 6 8 C3.125 8.1875 3.125 8.1875 0 8 C-0.66 7.01 -1.32 6.02 -2 5 C-1.125 2.3125 -1.125 2.3125 0 0 Z " fill="#7A7A7A" transform="translate(164,173)"/>
<path d="M0 0 C0.99 0.33 1.98 0.66 3 1 C2.67 1.99 2.34 2.98 2 4 C2.66 4.66 3.32 5.32 4 6 C3.67 6.66 3.34 7.32 3 8 C2.01 8 1.02 8 0 8 C-0.33 8.99 -0.66 9.98 -1 11 C-1.99 11 -2.98 11 -4 11 C-3.48964169 6.6109185 -2.47785723 3.66291938 0 0 Z " fill="#3D3D3F" transform="translate(170,155)"/>
<path d="M0 0 C0.33 0.99 0.66 1.98 1 3 C1.99 3.33 2.98 3.66 4 4 C2.68 4.33 1.36 4.66 0 5 C0 7.64 0 10.28 0 13 C-0.99 13.33 -1.98 13.66 -3 14 C-3 9.71 -3 5.42 -3 1 C-2.01 0.67 -1.02 0.34 0 0 Z " fill="#727272" transform="translate(144,152)"/>
<path d="M0 0 C0.66 0.33 1.32 0.66 2 1 C2.5625 3.6875 2.5625 3.6875 3 7 C3.185625 8.11375 3.37125 9.2275 3.5625 10.375 C3.706875 11.24125 3.85125 12.1075 4 13 C2.68 13 1.36 13 0 13 C-0.33 11.02 -0.66 9.04 -1 7 C-1.99 7 -2.98 7 -4 7 C-3.43628586 3.73045798 -2.50037734 2.17424117 0 0 Z " fill="#3E3E3E" transform="translate(132,153)"/>
<path d="M0 0 C0.66 0 1.32 0 2 0 C2 3.3 2 6.6 2 10 C2.66 10 3.32 10 4 10 C4.33 9.34 4.66 8.68 5 8 C5 9.65 5 11.3 5 13 C5.66 13 6.32 13 7 13 C7.33 12.34 7.66 11.68 8 11 C8 12.32 8 13.64 8 15 C5.4129744 14.65040195 3.48675795 14.34899627 1.34375 12.8125 C-0.54446062 10.26561125 -0.29795165 8.44196351 -0.1875 5.3125 C-0.16042969 4.31863281 -0.13335937 3.32476562 -0.10546875 2.30078125 C-0.07066406 1.54152344 -0.03585937 0.78226563 0 0 Z " fill="#C2859E" transform="translate(329,166)"/>
<path d="M0 0 C2.64 0.66 5.28 1.32 8 2 C7.34 2.66 6.68 3.32 6 4 C5.01 4 4.02 4 3 4 C2.67 4.66 2.34 5.32 2 6 C2.99 6.33 3.98 6.66 5 7 C2 9 2 9 0 9 C0 7.68 0 6.36 0 5 C-0.66 5 -1.32 5 -2 5 C-2 6.98 -2 8.96 -2 11 C-2.33 11 -2.66 11 -3 11 C-3.36923077 4.6 -3.36923077 4.6 -1.5 1.5625 C-1.005 1.046875 -0.51 0.53125 0 0 Z " fill="#DDB9C6" transform="translate(323,97)"/>
<path d="M0 0 C2.375 -0.125 2.375 -0.125 5 0 C7 2 7 2 7.125 4.625 C7.08375 5.40875 7.0425 6.1925 7 7 C5.02 7 3.04 7 1 7 C0.67 4.69 0.34 2.38 0 0 Z " fill="#5D5D5D" transform="translate(114,174)"/>
<path d="M0 0 C0.33 0 0.66 0 1 0 C1.11651725 4.37477474 1.18736 8.74914827 1.25 13.125 C1.28351563 14.3625 1.31703125 15.6 1.3515625 16.875 C1.47325212 28.19213453 1.47325212 28.19213453 -3 33 C-3.33 31.68 -3.66 30.36 -4 29 C-3.34 29 -2.68 29 -2 29 C-2 28.01 -2 27.02 -2 26 C-1.34 26 -0.68 26 0 26 C-0.25124634 25.17097168 -0.25124634 25.17097168 -0.50756836 24.32519531 C-1.06270782 21.70390217 -1.01885571 19.47146459 -0.87890625 16.796875 C-0.83056641 15.8171875 -0.78222656 14.8375 -0.73242188 13.828125 C-0.67634766 12.81234375 -0.62027344 11.7965625 -0.5625 10.75 C-0.51029297 9.71875 -0.45808594 8.6875 -0.40429688 7.625 C-0.27484366 5.08300961 -0.13988672 2.54143407 0 0 Z " fill="#131313" transform="translate(375,139)"/>
<path d="M0 0 C0.33 0 0.66 0 1 0 C1.03738281 0.61488281 1.07476562 1.22976562 1.11328125 1.86328125 C1.17902344 2.67152344 1.24476563 3.47976562 1.3125 4.3125 C1.37050781 5.11300781 1.42851562 5.91351563 1.48828125 6.73828125 C2.09179205 9.40570683 2.89385594 10.30682536 5 12 C7.09989652 13.17574711 7.09989652 13.17574711 9 14 C3.58461538 16.21538462 3.58461538 16.21538462 0.625 15.125 C0.08875 14.75375 -0.4475 14.3825 -1 14 C-0.67 13.34 -0.34 12.68 0 12 C-0.2475 10.9171875 -0.2475 10.9171875 -0.5 9.8125 C-1.11724532 6.34049508 -0.60920148 3.45214169 0 0 Z " fill="#E0BDCA" transform="translate(328,168)"/>
<path d="M0 0 C2 2 2 2 2.125 5.125 C2.08375 6.07375 2.0425 7.0225 2 8 C2.33 8 2.66 8 3 8 C3 9.65 3 11.3 3 13 C1.02 13 -0.96 13 -3 13 C-3.33 11.68 -3.66 10.36 -4 9 C-3.01 8.67 -2.02 8.34 -1 8 C-0.67 5.36 -0.34 2.72 0 0 Z " fill="#8B8B8B" transform="translate(70,153)"/>
<path d="M0 0 C-1 3 -1 3 -3 4 C-5.04055005 4.07065617 -7.08334257 4.08421976 -9.125 4.0625 C-10.22070312 4.05347656 -11.31640625 4.04445312 -12.4453125 4.03515625 C-13.70988281 4.01775391 -13.70988281 4.01775391 -15 4 C-15 6.31 -15 8.62 -15 11 C-15.33 11 -15.66 11 -16 11 C-16.09765625 4.84765625 -16.09765625 4.84765625 -16 3 C-14.28132657 1.28132657 -11.90786781 1.67079401 -9.5625 1.5 C-6.24399425 1.25771014 -3.15528811 0 0 0 Z " fill="#676667" transform="translate(363,168)"/>
<path d="M0 0 C0.33 0 0.66 0 1 0 C1 2.64 1 5.28 1 8 C1.66 8 2.32 8 3 8 C3.125 14.625 3.125 14.625 2 18 C0.68 18 -0.64 18 -2 18 C-1.505 16.515 -1.505 16.515 -1 15 C-0.77281504 12.43365139 -0.58391816 9.88321893 -0.4375 7.3125 C-0.39431641 6.61060547 -0.35113281 5.90871094 -0.30664062 5.18554688 C-0.2008264 3.45724794 -0.09993419 1.7286489 0 0 Z " fill="#E6CBD5" transform="translate(224,144)"/>
<path d="M0 0 C1.4540625 0.0309375 1.4540625 0.0309375 2.9375 0.0625 C1.625 1.5625 1.625 1.5625 -0.0625 3.0625 C-1.0525 3.0625 -2.0425 3.0625 -3.0625 3.0625 C-3.0625 4.7125 -3.0625 6.3625 -3.0625 8.0625 C0.5675 8.0625 4.1975 8.0625 7.9375 8.0625 C8.2675 9.0525 8.5975 10.0425 8.9375 11.0625 C6.95793559 10.92216889 4.97884859 10.7750877 3 10.625 C1.89785156 10.54378906 0.79570312 10.46257813 -0.33984375 10.37890625 C-3.0625 10.0625 -3.0625 10.0625 -4.0625 9.0625 C-4.1953125 7.25 -4.1953125 7.25 -4.1875 5.0625 C-4.19007813 4.340625 -4.19265625 3.61875 -4.1953125 2.875 C-3.96314697 -0.29337667 -3.23031119 0.06592472 0 0 Z " fill="#565656" transform="translate(353.0625,35.9375)"/>
<path d="M0 0 C1.67542976 0.28604898 3.34385343 0.61781233 5 1 C5 3.31 5 5.62 5 8 C2.03 7.505 2.03 7.505 -1 7 C-1.04254356 5.00045254 -1.04080783 2.99958364 -1 1 C-0.67 0.67 -0.34 0.34 0 0 Z " fill="#131415" transform="translate(281,96)"/>
<path d="M0 0 C2 3 2 3 2 7 C1.01 7.495 1.01 7.495 0 8 C-0.47597366 10.70599842 -0.84093629 13.33595404 -1.125 16.0625 C-1.21136719 16.82111328 -1.29773438 17.57972656 -1.38671875 18.36132812 C-1.59939517 20.23996986 -1.80075459 22.11988636 -2 24 C-2.33 24 -2.66 24 -3 24 C-3.30654742 15.38261147 -3.39589303 8.06524596 0 0 Z " fill="#696969" transform="translate(155,85)"/>
<path d="M0 0 C3 1 3 1 5 4 C5 4.99 5 5.98 5 7 C1.625 6.6875 1.625 6.6875 -2 6 C-2.66 5.01 -3.32 4.02 -4 3 C-2.1875 1.4375 -2.1875 1.4375 0 0 Z " fill="#353536" transform="translate(285,88)"/>
<path d="M0 0 C0.99 0.33 1.98 0.66 3 1 C3.79953138 4.28696233 4.09658936 5.71023192 3 9 C1.68 8.67 0.36 8.34 -1 8 C-1.625 5.125 -1.625 5.125 -2 2 C-1.34 1.34 -0.68 0.68 0 0 Z " fill="#939398" transform="translate(304,172)"/>
<path d="M0 0 C2.0625 0.4375 2.0625 0.4375 4 1 C4 3.64 4 6.28 4 9 C2.68 8.67 1.36 8.34 0 8 C-0.38063221 5.6739143 -0.71269945 3.33944736 -1 1 C-0.67 0.67 -0.34 0.34 0 0 Z " fill="#949494" transform="translate(69,172)"/>
<path d="M0 0 C1.98 0.495 1.98 0.495 4 1 C4 3.64 4 6.28 4 9 C2.68 8.67 1.36 8.34 0 8 C-1.125 2.25 -1.125 2.25 0 0 Z " fill="#959595" transform="translate(220,172)"/>
<path d="M0 0 C1.4606285 2.64738916 2 3.89448334 2 7 C1.34 7 0.68 7 0 7 C0 8.65 0 10.3 0 12 C-0.99 12 -1.98 12 -3 12 C-3 10.68 -3 9.36 -3 8 C-4.32 8 -5.64 8 -7 8 C-7.33 9.32 -7.66 10.64 -8 12 C-8 10.35 -8 8.7 -8 7 C-5.36 6.67 -2.72 6.34 0 6 C0 4.02 0 2.04 0 0 Z " fill="#E1BBC5" transform="translate(275,154)"/>
<path d="M0 0 C-0.33 0.66 -0.66 1.32 -1 2 C-3.475 1.01 -3.475 1.01 -6 0 C-6 0.99 -6 1.98 -6 3 C-5.01 3.33 -4.02 3.66 -3 4 C-4.98 4.66 -6.96 5.32 -9 6 C-9 5.34 -9 4.68 -9 4 C-9.66 4 -10.32 4 -11 4 C-10.65518813 1.41391095 -10.36805155 0.29989386 -8.3125 -1.375 C-5.06676305 -2.2522262 -3.04679062 -1.24641434 0 0 Z " fill="#D399A9" transform="translate(289,153)"/>
<path d="M0 0 C0.66 0 1.32 0 2 0 C2.66 2.64 3.32 5.28 4 8 C2.68 8.33 1.36 8.66 0 9 C-0.66 8.34 -1.32 7.68 -2 7 C-1.43181818 1.43181818 -1.43181818 1.43181818 0 0 Z M3 1 C3.66 1 4.32 1 5 1 C4.67 1.99 4.34 2.98 4 4 C3.67 3.01 3.34 2.02 3 1 Z " fill="#D098B0" transform="translate(333,106)"/>
<path d="M0 0 C2.31 0.33 4.62 0.66 7 1 C6.67 2.65 6.34 4.3 6 6 C3.69 6.33 1.38 6.66 -1 7 C-0.67 6.01 -0.34 5.02 0 4 C1.32 4 2.64 4 4 4 C1.03 3.505 1.03 3.505 -2 3 C-1.34 2.01 -0.68 1.02 0 0 Z " fill="#CD9FAF" transform="translate(326,96)"/>
<path d="M0 0 C0.99 0 1.98 0 3 0 C3.17942163 3.94727588 3.09350689 6.5980513 1 10 C0.01 10 -0.98 10 -2 10 C-3.39195915 5.82412255 -1.82323219 3.86525224 0 0 Z " fill="#726F73" transform="translate(276,171)"/>
<path d="M0 0 C0.99 0.33 1.98 0.66 3 1 C2.01 3.97 1.02 6.94 0 10 C-0.99 10 -1.98 10 -3 10 C-2.25 2.25 -2.25 2.25 0 0 Z " fill="#616161" transform="translate(109,171)"/>
<path d="M0 0 C0.66 0 1.32 0 2 0 C2 0.66 2 1.32 2 2 C3.65 2 5.3 2 7 2 C6.67 3.65 6.34 5.3 6 7 C4.02 7 2.04 7 0 7 C0 4.69 0 2.38 0 0 Z " fill="#2C2C2C" transform="translate(280,77)"/>
<path d="M0 0 C1.32 0.66 2.64 1.32 4 2 C4 3.98 4 5.96 4 8 C2.68 8 1.36 8 0 8 C-0.38063221 5.6739143 -0.71269945 3.33944736 -1 1 C-0.67 0.67 -0.34 0.34 0 0 Z " fill="#848484" transform="translate(76,172)"/>
<path d="M0 0 C0.99 0.33 1.98 0.66 3 1 C2.44271087 4.34373475 1.64826111 7.03312999 0 10 C-0.99 10 -1.98 10 -3 10 C-2.49287967 6.28111761 -1.88391785 3.26545761 0 0 Z " fill="#797979" transform="translate(101,171)"/>
<path d="M0 0 C0.99 0.33 1.98 0.66 3 1 C2.5020163 4.73487777 2.12508244 6.81237635 0 10 C-0.99 10 -1.98 10 -3 10 C-2.21302675 6.58978257 -1.12880057 3.31114834 0 0 Z " fill="#828284" transform="translate(312,171)"/>
<path d="M0 0 C1.32 0 2.64 0 4 0 C4.33 1.32 4.66 2.64 5 4 C4.01 4.495 4.01 4.495 3 5 C3 5.66 3 6.32 3 7 C2.34 7 1.68 7 1 7 C1 6.34 1 5.68 1 5 C0.34 5 -0.32 5 -1 5 C-1 5.66 -1 6.32 -1 7 C-1.66 6.67 -2.32 6.34 -3 6 C-1.125 1.125 -1.125 1.125 0 0 Z " fill="#626263" transform="translate(194,153)"/>
<path d="M0 0 C2.64 0.33 5.28 0.66 8 1 C8.33 2.65 8.66 4.3 9 6 C7.68 6 6.36 6 5 6 C5 5.34 5 4.68 5 4 C3.68 3.67 2.36 3.34 1 3 C1.33 2.34 1.66 1.68 2 1 C1.34 0.67 0.68 0.34 0 0 Z " fill="#CC90A1" transform="translate(254,152)"/>
<path d="M0 0 C0.66 0.66 1.32 1.32 2 2 C4.57061311 2.64767793 4.57061311 2.64767793 7 3 C7 3.33 7 3.66 7 4 C3.37 4 -0.26 4 -4 4 C-4 3.01 -4 2.02 -4 1 C-4.61875 1.20625 -5.2375 1.4125 -5.875 1.625 C-6.57625 1.74875 -7.2775 1.8725 -8 2 C-8.66 1.34 -9.32 0.68 -10 0 C-6.25976024 -1.24674659 -3.83399823 -0.76679965 0 0 Z " fill="#E0B1C7" transform="translate(331,130)"/>
<path d="M0 0 C3.5991308 5.3986962 4.26122419 10.6000073 4 17 C3.01 16.67 2.02 16.34 1 16 C1.03255208 13.98177083 1.06510417 11.96354167 1.09765625 9.9453125 C1.12649242 7.91814596 1.12649242 7.91814596 0 6 C-0.039992 4.00039988 -0.04346799 1.99952758 0 0 Z " fill="#595959" transform="translate(138,104)"/>
<path d="M0 0 C0.99 0.33 1.98 0.66 3 1 C3 3.64 3 6.28 3 9 C2.01 9.33 1.02 9.66 0 10 C-1.125 3.375 -1.125 3.375 0 0 Z " fill="#949495" transform="translate(197,171)"/>
<path d="M0 0 C0.99 0 1.98 0 3 0 C3 2.97 3 5.94 3 9 C2.01 9 1.02 9 0 9 C-1.36623674 6.26752652 -1.128426 4.01801098 -1 1 C-0.67 0.67 -0.34 0.34 0 0 Z " fill="#6D6D6F" transform="translate(173,172)"/>
<path d="M0 0 C0.66 0 1.32 0 2 0 C2 1.32 2 2.64 2 4 C2.99 4 3.98 4 5 4 C4.1875 5.9375 4.1875 5.9375 3 8 C0 9 0 9 -2.1875 8.0625 C-2.785625 7.711875 -3.38375 7.36125 -4 7 C-3 5 -3 5 0 4 C0 2.68 0 1.36 0 0 Z " fill="#747475" transform="translate(213,158)"/>
<path d="M0 0 C1.42857143 8.57142857 1.42857143 8.57142857 -1 12 C-1.66 11.67 -2.32 11.34 -3 11 C-3 7.7 -3 4.4 -3 1 C-1 0 -1 0 0 0 Z " fill="#49494A" transform="translate(162,155)"/>
<path d="M0 0 C1.32 0 2.64 0 4 0 C3.34 3.3 2.68 6.6 2 10 C1.34 10 0.68 10 0 10 C-1.49106457 7.01787087 -1.11941467 4.28390342 -1 1 C-0.67 0.67 -0.34 0.34 0 0 Z " fill="#C5829A" transform="translate(252,153)"/>
<path d="M0 0 C4.75 0.875 4.75 0.875 7 2 C7 2.66 7 3.32 7 4 C5 5.625 5 5.625 3 7 C2.34 6.67 1.68 6.34 1 6 C1 5.34 1 4.68 1 4 C0.01 3.67 -0.98 3.34 -2 3 C-1.34 2.01 -0.68 1.02 0 0 Z " fill="#D09EB2" transform="translate(331,149)"/>
<path d="M0 0 C0.33 0.66 0.66 1.32 1 2 C3.01669827 3.13350534 3.01669827 3.13350534 5 4 C4.67 4.99 4.34 5.98 4 7 C3.34 7 2.68 7 2 7 C1.67 7.66 1.34 8.32 1 9 C0.67 8.01 0.34 7.02 0 6 C-0.99 5.67 -1.98 5.34 -3 5 C-3 4.01 -3 3.02 -3 2 C-2.01 2 -1.02 2 0 2 C0 1.34 0 0.68 0 0 Z " fill="#555556" transform="translate(287,129)"/>
<path d="M0 0 C0.99 0.33 1.98 0.66 3 1 C3 3.66666667 3 6.33333333 3 9 C1.68 8.67 0.36 8.34 -1 8 C-1.04241723 5.66705225 -1.04092937 3.33297433 -1 1 C-0.67 0.67 -0.34 0.34 0 0 Z " fill="#69686A" transform="translate(259,172)"/>
<path d="M0 0 C0.33 1.65 0.66 3.3 1 5 C0.01 5.495 0.01 5.495 -1 6 C-1 4.68 -1 3.36 -1 2 C-2.98 2 -4.96 2 -7 2 C-7 3.65 -7 5.3 -7 7 C-7.66 6.34 -8.32 5.68 -9 5 C-9 3.68 -9 2.36 -9 1 C-6.04335481 -0.4783226 -3.25770263 -0.06032783 0 0 Z " fill="#B0B0B0" transform="translate(211,173)"/>
<path d="M0 0 C0.99 0.33 1.98 0.66 3 1 C3 3.64 3 6.28 3 9 C1.68 9 0.36 9 -1 9 C-1.09765625 2.84765625 -1.09765625 2.84765625 -1 1 C-0.67 0.67 -0.34 0.34 0 0 Z " fill="#8C8C8C" transform="translate(214,171)"/>
<path d="M0 0 C0.99 0 1.98 0 3 0 C3 2.64 3 5.28 3 8 C1.68 8.33 0.36 8.66 -1 9 C-1.33 8.01 -1.66 7.02 -2 6 C-1.34 6 -0.68 6 0 6 C0 4.02 0 2.04 0 0 Z " fill="#2F2F2F" transform="translate(67,153)"/>
<path d="M0 0 C1.32 0 2.64 0 4 0 C3.67 1.65 3.34 3.3 3 5 C2.34 5 1.68 5 1 5 C0.67 5.66 0.34 6.32 0 7 C-0.99 6.01 -1.98 5.02 -3 4 C-1.75 2 -1.75 2 0 0 Z " fill="#737374" transform="translate(186,153)"/>
<path d="M0 0 C0.61875 0.165 1.2375 0.33 1.875 0.5 C3.96063386 1.07634644 3.96063386 1.07634644 6 1 C6 2.65 6 4.3 6 6 C4.35 6 2.7 6 1 6 C0.67 4.02 0.34 2.04 0 0 Z " fill="#CDB0BA" transform="translate(320,176)"/>
<path d="M0 0 C0.33 0 0.66 0 1 0 C1.33 1.98 1.66 3.96 2 6 C2.66 5.67 3.32 5.34 4 5 C4 6.65 4 8.3 4 10 C3.01 10.33 2.02 10.66 1 11 C-1.43769218 7.34346173 -1.23944439 5.30999899 -1 1 C-0.67 0.67 -0.34 0.34 0 0 Z " fill="#B0B0B0" transform="translate(148,156)"/>
<path d="M0 0 C0.66 0.33 1.32 0.66 2 1 C2 3.97 2 6.94 2 10 C1.01 10 0.02 10 -1 10 C-1.02689216 8.52093108 -1.04634621 7.04172517 -1.0625 5.5625 C-1.07410156 4.73878906 -1.08570313 3.91507813 -1.09765625 3.06640625 C-1 1 -1 1 0 0 Z " fill="#C67B96" transform="translate(307,152)"/>
<path d="M0 0 C1.98 0.66 3.96 1.32 6 2 C6 4.97 6 7.94 6 11 C5.34 10.67 4.68 10.34 4 10 C3.59270772 7.67843403 3.25561323 5.3431213 3 3 C2.01 3 1.02 3 0 3 C0 2.01 0 1.02 0 0 Z " fill="#B96E88" transform="translate(283,153)"/>
<path d="M0 0 C0.66 0.33 1.32 0.66 2 1 C1.525625 2.0725 1.05125 3.145 0.5625 4.25 C-0.53766332 6.80839865 -1.45167003 9.25835017 -2 12 C-2.66 12 -3.32 12 -4 12 C-4 12.99 -4 13.98 -4 15 C-4.66 14.67 -5.32 14.34 -6 14 C-5.38003999 12.2273959 -4.75384007 10.45697333 -4.125 8.6875 C-3.77695312 7.70136719 -3.42890625 6.71523437 -3.0703125 5.69921875 C-2 3 -2 3 0 0 Z " fill="#585858" transform="translate(64,69)"/>
<path d="M0 0 C0.99 0 1.98 0 3 0 C2.125 4.875 2.125 4.875 1 6 C-0.99958364 6.04080783 -3.00045254 6.04254356 -5 6 C-5 5.34 -5 4.68 -5 4 C-3.68 4 -2.36 4 -1 4 C-0.67 2.68 -0.34 1.36 0 0 Z " fill="#C18294" transform="translate(260,160)"/>
<path d="M0 0 C1.32 0 2.64 0 4 0 C4 1.65 4 3.3 4 5 C3.01 4.67 2.02 4.34 1 4 C1.33 6.64 1.66 9.28 2 12 C1.01 12.495 1.01 12.495 0 13 C0 8.71 0 4.42 0 0 Z " fill="#D69CAC" transform="translate(264,153)"/>
<path d="M0 0 C0.33 0 0.66 0 1 0 C1.02687279 1.81242052 1.04633715 3.62495233 1.0625 5.4375 C1.07410156 6.44683594 1.08570313 7.45617187 1.09765625 8.49609375 C1 11 1 11 0 12 C-2.33297433 12.04092937 -4.66705225 12.04241723 -7 12 C-6.67 11.01 -6.34 10.02 -6 9 C-4.35 9 -2.7 9 -1 9 C-0.67 6.03 -0.34 3.06 0 0 Z " fill="#848484" transform="translate(31,113)"/>
<path d="M0 0 C1.65 0 3.3 0 5 0 C5.33 0.66 5.66 1.32 6 2 C4.6875 4 4.6875 4 3 6 C2.01 6 1.02 6 0 6 C-1.125 2.25 -1.125 2.25 0 0 Z " fill="#6F6F6F" transform="translate(82,175)"/>
<path d="M0 0 C0.99 0 1.98 0 3 0 C3 2.31 3 4.62 3 7 C0.69 7.33 -1.62 7.66 -4 8 C-4 7.34 -4 6.68 -4 6 C-2.35 5.67 -0.7 5.34 1 5 C0.67 3.35 0.34 1.7 0 0 Z " fill="#B66F86" transform="translate(272,153)"/>
<path d="M0 0 C0.99 0.495 0.99 0.495 2 1 C3.53668865 1.22467831 5.07968054 1.40796805 6.625 1.5625 C7.44226563 1.64628906 8.25953125 1.73007813 9.1015625 1.81640625 C9.72804688 1.87699219 10.35453125 1.93757812 11 2 C11 1.34 11 0.68 11 0 C11.99 0 12.98 0 14 0 C14 1.32 14 2.64 14 4 C7.07 3.505 7.07 3.505 0 3 C0 2.01 0 1.02 0 0 Z " fill="#CF9CB0" transform="translate(324,144)"/>
<path d="M0 0 C0.99 0.33 1.98 0.66 3 1 C2.34 1 1.68 1 1 1 C1 2.98 1 4.96 1 7 C1.66 7.33 2.32 7.66 3 8 C0.66666667 8 -1.66666667 8 -4 8 C-4 6.35 -4 4.7 -4 3 C-3.34 3 -2.68 3 -2 3 C-1.67 3.66 -1.34 4.32 -1 5 C-0.67 3.35 -0.34 1.7 0 0 Z " fill="#CB97AB" transform="translate(325,135)"/>
<path d="M0 0 C0.33 0.66 0.66 1.32 1 2 C0.34 2 -0.32 2 -1 2 C-1 2.66 -1 3.32 -1 4 C-0.34 4 0.32 4 1 4 C1.33 6.64 1.66 9.28 2 12 C-0.39003469 9.91835688 -1.8388558 8.44046082 -2.9375 5.4375 C-3 3 -3 3 -1.5625 1.1875 C-1.046875 0.795625 -0.53125 0.40375 0 0 Z " fill="#EBC5CF" transform="translate(323,83)"/>
<path d="M0 0 C0.66 0.33 1.32 0.66 2 1 C2 3.64 2 6.28 2 9 C1.01 9.33 0.02 9.66 -1 10 C-1 9.01 -1 8.02 -1 7 C-1.66 7 -2.32 7 -3 7 C-3 6.34 -3 5.68 -3 5 C-2.34 5 -1.68 5 -1 5 C-0.67 3.35 -0.34 1.7 0 0 Z " fill="#E1AFC0" transform="translate(325,80)"/>
<path d="M0 0 C5.49152542 0.61016949 5.49152542 0.61016949 7.875 2.4375 C9 4 9 4 9 6 C8.443125 5.690625 7.88625 5.38125 7.3125 5.0625 C4.87459567 3.94238179 2.63775814 3.43962636 0 3 C0 2.01 0 1.02 0 0 Z " fill="#505050" transform="translate(308,39)"/>
<path d="M0 0 C0.66 0 1.32 0 2 0 C2 0.99 2 1.98 2 3 C2.66 3 3.32 3 4 3 C4 3.99 4 4.98 4 6 C5.32 5.67 6.64 5.34 8 5 C8 5.66 8 6.32 8 7 C2.25 7.125 2.25 7.125 0 6 C0 4.02 0 2.04 0 0 Z " fill="#78787B" transform="translate(187,174)"/>
<path d="M0 0 C0.99 0.33 1.98 0.66 3 1 C-0.5087188 4.09592835 -3.49197399 5.74194623 -8 7 C-8 6.01 -8 5.02 -8 4 C-6.865625 3.525625 -5.73125 3.05125 -4.5625 2.5625 C-1.24259834 1.36377917 -1.24259834 1.36377917 0 0 Z " fill="#313131" transform="translate(368,172)"/>
<path d="M0 0 C0.556875 0.391875 1.11375 0.78375 1.6875 1.1875 C-4.0625 4.1875 -4.0625 4.1875 -6.3125 4.1875 C-6.3125 4.8475 -6.3125 5.5075 -6.3125 6.1875 C-6.9725 6.1875 -7.6325 6.1875 -8.3125 6.1875 C-8.125 4.375 -8.125 4.375 -7.3125 2.1875 C-3.21947674 -1.1311675 -3.21947674 -1.1311675 0 0 Z " fill="#454545" transform="translate(185.3125,79.8125)"/>
<path d="M0 0 C1.2065625 0.0309375 1.2065625 0.0309375 2.4375 0.0625 C3.0975 1.3825 3.7575 2.7025 4.4375 4.0625 C1.4375 4.0625 1.4375 4.0625 -1.5625 3.0625 C-1.8925 4.0525 -2.2225 5.0425 -2.5625 6.0625 C-2.94468767 4.40635343 -3.27645102 2.73792976 -3.5625 1.0625 C-2.5625 0.0625 -2.5625 0.0625 0 0 Z " fill="#9F9FA0" transform="translate(181.5625,172.9375)"/>
<path d="M0 0 C4.02550319 1.3418344 4.88285636 3.4227573 7 7 C7 7.66 7 8.32 7 9 C6.01 9 5.02 9 4 9 C4 8.34 4 7.68 4 7 C3.34 7 2.68 7 2 7 C1.34 4.69 0.68 2.38 0 0 Z " fill="#484848" transform="translate(58,133)"/>
<path d="M0 0 C1.65 0 3.3 0 5 0 C5.33 0.99 5.66 1.98 6 3 C5.34 3 4.68 3 4 3 C4 3.66 4 4.32 4 5 C2.35 5 0.7 5 -1 5 C-0.67 3.35 -0.34 1.7 0 0 Z " fill="#5B5B5B" transform="translate(128,176)"/>
<path d="M0 0 C2.0625 1.6875 2.0625 1.6875 4 4 C3.75 6.75 3.75 6.75 3 9 C2.01 8.67 1.02 8.34 0 8 C0 5.36 0 2.72 0 0 Z " fill="#818181" transform="translate(59,172)"/>
<path d="M0 0 C0.66 0 1.32 0 2 0 C2 0.99 2 1.98 2 3 C2.99 3.33 3.98 3.66 5 4 C4.01 4.33 3.02 4.66 2 5 C2 6.32 2 7.64 2 9 C1.34 9 0.68 9 0 9 C0 6.03 0 3.06 0 0 Z " fill="#585759" transform="translate(265,171)"/>
<path d="M0 0 C2.15377564 2.62198774 3.40072174 4.64404172 4 8 C2.68 8.33 1.36 8.66 0 9 C-1.15941038 5.52176885 -0.70820884 3.54104422 0 0 Z " fill="#8B8B8E" transform="translate(199,158)"/>
<path d="M0 0 C0.33 1.32 0.66 2.64 1 4 C1.66 4 2.32 4 3 4 C2.34 5.65 1.68 7.3 1 9 C0.01 8.34 -0.98 7.68 -2 7 C-1.125 1.125 -1.125 1.125 0 0 Z " fill="#747474" transform="translate(107,158)"/>
<path d="M0 0 C1 3 1 3 0.0625 5.1875 C-0.4634375 6.0846875 -0.4634375 6.0846875 -1 7 C-2.32 6.67 -3.64 6.34 -5 6 C-5 4.68 -5 3.36 -5 2 C-4.360625 1.855625 -3.72125 1.71125 -3.0625 1.5625 C-1.02454854 1.18992819 -1.02454854 1.18992819 0 0 Z " fill="#C78FA4" transform="translate(326,152)"/>
<path d="M0 0 C1.65 0.99 3.3 1.98 5 3 C3.93453047 5.13093906 2.70840281 6.36587557 1 8 C0.26919734 6.02253397 -0.39421747 4.01927511 -1 2 C-0.67 1.34 -0.34 0.68 0 0 Z " fill="#4A4A4A" transform="translate(110,152)"/>
<path d="M0 0 C-0.33 3.3 -0.66 6.6 -1 10 C-1.66 10 -2.32 10 -3 10 C-3.33 7.03 -3.66 4.06 -4 1 C-2 0 -2 0 0 0 Z " fill="#D2A1B1" transform="translate(228,142)"/>
<path d="M0 0 C3.63 0 7.26 0 11 0 C10.67 0.66 10.34 1.32 10 2 C6.76902047 2.86159454 4.77513726 3.30597523 1.625 2.0625 C1.08875 1.711875 0.5525 1.36125 0 1 C0 0.67 0 0.34 0 0 Z " fill="#5D5D5D" transform="translate(188,141)"/>
<path d="M0 0 C0.33 0.66 0.66 1.32 1 2 C1.66 2 2.32 2 3 2 C3 2.99 3 3.98 3 5 C2.34 5 1.68 5 1 5 C1 5.66 1 6.32 1 7 C0.34 7 -0.32 7 -1 7 C-1 5.68 -1 4.36 -1 3 C-1.66 3 -2.32 3 -3 3 C-3 2.34 -3 1.68 -3 1 C-2.01 0.67 -1.02 0.34 0 0 Z " fill="#59585B" transform="translate(287,116)"/>
<path d="M0 0 C0.66 0 1.32 0 2 0 C2 3.63 2 7.26 2 11 C1.34 11 0.68 11 0 11 C-1.37432457 7.18243176 -0.67975039 3.92744671 0 0 Z " fill="#C68BA1" transform="translate(329,114)"/>
<path d="M0 0 C1.98 0.495 1.98 0.495 4 1 C4 2.32 4 3.64 4 5 C2.35 5 0.7 5 -1 5 C-0.67 3.35 -0.34 1.7 0 0 Z " fill="#9E3458" transform="translate(225,110)"/>
<path d="M0 0 C2.46800047 1.15173355 4.04783565 2.04783565 6 4 C5.67 4.66 5.34 5.32 5 6 C3.35 5.67 1.7 5.34 0 5 C-0.5625 3.0625 -0.5625 3.0625 -1 1 C-0.67 0.67 -0.34 0.34 0 0 Z " fill="#D69EB2" transform="translate(325,89)"/>
<path d="M0 0 C1.6415049 3.2830098 0.51888624 6.42545033 0 10 C0.99 9.67 1.98 9.34 3 9 C3.33 10.65 3.66 12.3 4 14 C0.125 12.125 0.125 12.125 -1 11 C-1.09823937 9.33570949 -1.12973631 7.66718069 -1.125 6 C-1.12757813 5.0925 -1.13015625 4.185 -1.1328125 3.25 C-1 1 -1 1 0 0 Z " fill="#535353" transform="translate(240,64)"/>
<path d="M0 0 C2.80722691 4.21084037 1.94537893 6.11554218 1 11 C0.01 11.495 0.01 11.495 -1 12 C-1.08159574 7.83861737 -0.98248524 4.0527516 0 0 Z " fill="#696969" transform="translate(140,65)"/>
<path d="M0 0 C0.99 0.33 1.98 0.66 3 1 C3 2.65 3 4.3 3 6 C1.68 6.33 0.36 6.66 -1 7 C-1.625 4.625 -1.625 4.625 -2 2 C-1.34 1.34 -0.68 0.68 0 0 Z " fill="#A7A7A7" transform="translate(93,174)"/>
<path d="M0 0 C1.258125 -0.020625 2.51625 -0.04125 3.8125 -0.0625 C4.52019531 -0.07410156 5.22789063 -0.08570313 5.95703125 -0.09765625 C8 0 8 0 11 1 C9.89131683 3.21736634 8.50559539 5.03617993 7 7 C6.773125 6.195625 6.54625 5.39125 6.3125 4.5625 C5.879375 3.716875 5.44625 2.87125 5 2 C2.45224694 1.10613836 2.45224694 1.10613836 0 1 C0 0.67 0 0.34 0 0 Z " fill="#C8C8C8" transform="translate(114,173)"/>
<path d="M0 0 C1.65 1.65 3.3 3.3 5 5 C4.67 5.66 4.34 6.32 4 7 C2.35 6.67 0.7 6.34 -1 6 C-1.042721 4.33388095 -1.04063832 2.66617115 -1 1 C-0.67 0.67 -0.34 0.34 0 0 Z " fill="#B36D86" transform="translate(240,154)"/>
<path d="M0 0 C2.97 0.33 5.94 0.66 9 1 C9 2.65 9 4.3 9 6 C8.34 5.34 7.68 4.68 7 4 C5.68 4 4.36 4 3 4 C3 3.01 3 2.02 3 1 C2.01 0.67 1.02 0.34 0 0 Z " fill="#EBCFDA" transform="translate(330,90)"/>
<path d="M0 0 C0.33 0 0.66 0 1 0 C1 1.65 1 3.3 1 5 C1.66 5 2.32 5 3 5 C3.33 4.34 3.66 3.68 4 3 C4 4.32 4 5.64 4 7 C2.35 6.67 0.7 6.34 -1 6 C-1.33 4.68 -1.66 3.36 -2 2 C-1.34 2 -0.68 2 0 2 C0 1.34 0 0.68 0 0 Z " fill="#CA9AB1" transform="translate(333,174)"/>
<path d="M0 0 C1.41377341 2.63904371 2.37240135 5.07120629 3 8 C2.01 8.495 2.01 8.495 1 9 C0.34 8.67 -0.32 8.34 -1 8 C-1 7.01 -1 6.02 -1 5 C-1.66 4.67 -2.32 4.34 -3 4 C-2.01 4 -1.02 4 0 4 C0 2.68 0 1.36 0 0 Z " fill="#5B5259" transform="translate(221,158)"/>
<path d="M0 0 C0.33 1.98 0.66 3.96 1 6 C-1.97 5.505 -1.97 5.505 -5 5 C-4.625 3.0625 -4.625 3.0625 -4 1 C-2 0 -2 0 0 0 Z " fill="#636264" transform="translate(220,152)"/>
<path d="M0 0 C0 1.65 0 3.3 0 5 C-0.99 5.33 -1.98 5.66 -3 6 C-3.66 4.35 -4.32 2.7 -5 1 C-3 0 -3 0 0 0 Z " fill="#2A2A2A" transform="translate(79,153)"/>
<path d="M0 0 C1.23556641 0.01740234 1.23556641 0.01740234 2.49609375 0.03515625 C3.32238281 0.04417969 4.14867187 0.05320312 5 0.0625 C5.63808594 0.07410156 6.27617187 0.08570312 6.93359375 0.09765625 C6.93359375 0.42765625 6.93359375 0.75765625 6.93359375 1.09765625 C4.29359375 1.09765625 1.65359375 1.09765625 -1.06640625 1.09765625 C-1.39640625 3.07765625 -1.72640625 5.05765625 -2.06640625 7.09765625 C-2.72640625 6.43765625 -3.38640625 5.77765625 -4.06640625 5.09765625 C-3.31779097 0.15679541 -3.31779097 0.15679541 0 0 Z " fill="#8D8D8D" transform="translate(308.06640625,30.90234375)"/>
<path d="M0 0 C0.91007812 0.00902344 1.82015625 0.01804687 2.7578125 0.02734375 C3.45648438 0.03894531 4.15515625 0.05054687 4.875 0.0625 C4.875 0.3925 4.875 0.7225 4.875 1.0625 C3.91787109 1.13597656 3.91787109 1.13597656 2.94140625 1.2109375 C2.11511719 1.28570313 1.28882813 1.36046875 0.4375 1.4375 C-0.38621094 1.50710937 -1.20992188 1.57671875 -2.05859375 1.6484375 C-2.74050781 1.78507812 -3.42242187 1.92171875 -4.125 2.0625 C-4.455 2.7225 -4.785 3.3825 -5.125 4.0625 C-5.785 4.0625 -6.445 4.0625 -7.125 4.0625 C-7.455 4.7225 -7.785 5.3825 -8.125 6.0625 C-7.75 3.625 -7.75 3.625 -7.125 1.0625 C-4.60024538 -0.19987731 -2.81299534 -0.03606404 0 0 Z " fill="#545454" transform="translate(312.125,21.9375)"/>
<path d="M0 0 C0.33 0 0.66 0 1 0 C1.04898437 0.61488281 1.09796875 1.22976562 1.1484375 1.86328125 C1.22320312 2.67152344 1.29796875 3.47976562 1.375 4.3125 C1.44460938 5.11300781 1.51421875 5.91351563 1.5859375 6.73828125 C1.89564426 9.27224441 1.89564426 9.27224441 4 12 C2.68 12 1.36 12 0 12 C-1.16063604 7.74433453 -0.76173392 4.3164922 0 0 Z " fill="#E2ADC2" transform="translate(328,168)"/>
<path d="M0 0 C-0.33 2.97 -0.66 5.94 -1 9 C-1.33 7.68 -1.66 6.36 -2 5 C-2.66 5 -3.32 5 -4 5 C-4 3.68 -4 2.36 -4 1 C-2 0 -2 0 0 0 Z " fill="#D5A6B9" transform="translate(325,149)"/>
<path d="M0 0 C2.97 0 5.94 0 9 0 C9 0.33 9 0.66 9 1 C7.02 1.33 5.04 1.66 3 2 C2.67 3.32 2.34 4.64 2 6 C1.34 6 0.68 6 0 6 C0 4.02 0 2.04 0 0 Z " fill="#EDCDD8" transform="translate(328,84)"/>
<path d="M0 0 C0.99 0.33 1.98 0.66 3 1 C2.67 2.65 2.34 4.3 2 6 C1.01 5.67 0.02 5.34 -1 5 C-0.67 3.35 -0.34 1.7 0 0 Z " fill="#3D3D3F" transform="translate(284,175)"/>
<path d="M0 0 C2 2 2 2 2 6 C2.66 6 3.32 6 4 6 C4 6.99 4 7.98 4 9 C3.01 9.33 2.02 9.66 1 10 C-0.1577506 6.52674819 -0.06866652 3.63932552 0 0 Z " fill="#9E9E9E" transform="translate(115,157)"/>
<path d="M0 0 C0.99 0 1.98 0 3 0 C3.36923077 4.55384615 3.36923077 4.55384615 1.5 6.8125 C1.005 7.204375 0.51 7.59625 0 8 C0 5.36 0 2.72 0 0 Z " fill="#2D2D2D" transform="translate(119,153)"/>
<path d="M0 0 C2 3 2 3 2 5 C1.34 5 0.68 5 0 5 C-0.33 5.99 -0.66 6.98 -1 8 C-2.65 8 -4.3 8 -6 8 C-4.7934375 7.13375 -4.7934375 7.13375 -3.5625 6.25 C-1.02133261 4.01873107 -0.34879632 3.25543229 0 0 Z " fill="#6D6D6D" transform="translate(121,117)"/>
<path d="M0 0 C0.33 0.99 0.66 1.98 1 3 C0.67 3.66 0.34 4.32 0 5 C0.66 5 1.32 5 2 5 C1.67 6.98 1.34 8.96 1 11 C-1.08997373 7.60379269 -1.2632246 4.94836905 -1 1 C-0.67 0.67 -0.34 0.34 0 0 Z " fill="#2C2C2C" transform="translate(60,84)"/>
<path d="M0 0 C0.99 0.66 1.98 1.32 3 2 C3 2.66 3 3.32 3 4 C1.02 4 -0.96 4 -3 4 C-3 3.01 -3 2.02 -3 1 C-2.01 0.67 -1.02 0.34 0 0 Z " fill="#646464" transform="translate(167,177)"/>
<path d="M0 0 C0.33 0.99 0.66 1.98 1 3 C-0.9375 6.1875 -0.9375 6.1875 -3 9 C-3.33 7.68 -3.66 6.36 -4 5 C-3.34 5 -2.68 5 -2 5 C-2 4.01 -2 3.02 -2 2 C-1.34 2 -0.68 2 0 2 C0 1.34 0 0.68 0 0 Z " fill="#4F4F4F" transform="translate(375,163)"/>
<path d="M0 0 C0.33 0 0.66 0 1 0 C1.33 2.31 1.66 4.62 2 7 C0.68 7 -0.64 7 -2 7 C-2.33 6.01 -2.66 5.02 -3 4 C-2.01 3.67 -1.02 3.34 0 3 C0 2.01 0 1.02 0 0 Z " fill="#C8A1B2" transform="translate(226,159)"/>
<path d="M0 0 C0.99 0 1.98 0 3 0 C2.5020163 3.73487777 2.12508244 5.81237635 0 9 C-1.125 3.375 -1.125 3.375 0 0 Z " fill="#E29CB9" transform="translate(289,155)"/>
<path d="M0 0 C0.99 0 1.98 0 3 0 C3 0.99 3 1.98 3 3 C3.99 3.33 4.98 3.66 6 4 C3.69 4 1.38 4 -1 4 C-0.67 2.68 -0.34 1.36 0 0 Z " fill="#141618" transform="translate(281,131)"/>
<path d="M0 0 C0.99 0.33 1.98 0.66 3 1 C2.67 3.31 2.34 5.62 2 8 C1.01 7.67 0.02 7.34 -1 7 C-0.67 4.69 -0.34 2.38 0 0 Z " fill="#F0AEC7" transform="translate(334,116)"/>
<path d="M0 0 C1.32 0.66 2.64 1.32 4 2 C4 2.66 4 3.32 4 4 C1.5 5.625 1.5 5.625 -1 7 C-0.67 4.69 -0.34 2.38 0 0 Z " fill="#787879" transform="translate(288,103)"/>
<path d="M0 0 C0.66 0.33 1.32 0.66 2 1 C0.68 3.64 -0.64 6.28 -2 9 C-2.66 9 -3.32 9 -4 9 C-2.94124926 5.59687262 -1.99097846 2.98646769 0 0 Z " fill="#464646" transform="translate(28,43)"/>
<path d="M0 0 C0 1.32 0 2.64 0 4 C-2.97 3.505 -2.97 3.505 -6 3 C-3.375 0 -3.375 0 0 0 Z " fill="#3E3E3E" transform="translate(144,175)"/>
<path d="M0 0 C0.99 0.33 1.98 0.66 3 1 C2.34 2.32 1.68 3.64 1 5 C0.67 4.67 0.34 4.34 0 4 C-0.66 4.66 -1.32 5.32 -2 6 C-1.125 1.125 -1.125 1.125 0 0 Z " fill="#9B9B9B" transform="translate(109,171)"/>
<path d="M0 0 C1.98 0.495 1.98 0.495 4 1 C4 1.99 4 2.98 4 4 C2.35 4 0.7 4 -1 4 C-0.67 2.68 -0.34 1.36 0 0 Z " fill="#9B9B9B" transform="translate(69,172)"/>
<path d="M0 0 C-0.33 0.99 -0.66 1.98 -1 3 C-3.31 3.33 -5.62 3.66 -8 4 C-6.4425489 0.88509781 -3.40085499 0 0 0 Z " fill="#3E3E3E" transform="translate(363,168)"/>
<path d="M0 0 C0.66 0 1.32 0 2 0 C2 0.99 2 1.98 2 3 C2.99 3.33 3.98 3.66 5 4 C3.35 4.33 1.7 4.66 0 5 C-0.5625 3.0625 -0.5625 3.0625 -1 1 C-0.67 0.67 -0.34 0.34 0 0 Z " fill="#D5A1AF" transform="translate(239,160)"/>
<path d="M0 0 C2.64 0.33 5.28 0.66 8 1 C8 1.66 8 2.32 8 3 C5.69 3.33 3.38 3.66 1 4 C1.33 3.01 1.66 2.02 2 1 C1.34 0.67 0.68 0.34 0 0 Z " fill="#D9A6B6" transform="translate(254,152)"/>
<path d="M0 0 C2.64 0.33 5.28 0.66 8 1 C8.33 1.99 8.66 2.98 9 4 C5.65626525 3.44271087 2.96687001 2.64826111 0 1 C0 0.67 0 0.34 0 0 Z " fill="#606060" transform="translate(70,106)"/>
<path d="M0 0 C1.5 1.125 1.5 1.125 3 3 C3.1875 6.1875 3.1875 6.1875 3 9 C2.67 8.34 2.34 7.68 2 7 C1.34 7 0.68 7 0 7 C0 4.69 0 2.38 0 0 Z " fill="#DCA7BD" transform="translate(333,99)"/>
<path d="M0 0 C1.31602523 0.61754259 2.62773556 1.24428742 3.9375 1.875 C4.66839844 2.22304687 5.39929688 2.57109375 6.15234375 2.9296875 C8 4 8 4 9 6 C7.35 5.67 5.7 5.34 4 5 C4 4.34 4 3.68 4 3 C2.68 2.67 1.36 2.34 0 2 C0 1.34 0 0.68 0 0 Z " fill="#6C6C6C" transform="translate(125,93)"/>
<path d="M0 0 C1.98 0 3.96 0 6 0 C6 0.99 6 1.98 6 3 C3.69 2.67 1.38 2.34 -1 2 C-0.67 1.34 -0.34 0.68 0 0 Z " fill="#626265" transform="translate(284,92)"/>
<path d="M0 0 C1.22589844 0.29197266 1.22589844 0.29197266 2.4765625 0.58984375 C3.41628906 0.82380859 3.41628906 0.82380859 4.375 1.0625 C4.375 1.3925 4.375 1.7225 4.375 2.0625 C0.745 2.0625 -2.885 2.0625 -6.625 2.0625 C-6.625 1.4025 -6.625 0.7425 -6.625 0.0625 C-3.99249612 -1.25375194 -2.82320944 -0.68563658 0 0 Z " fill="#D5A3B6" transform="translate(333.625,81.9375)"/>
<path d="M0 0 C1.32 0 2.64 0 4 0 C4 0.99 4 1.98 4 3 C2.68 3 1.36 3 0 3 C0 2.01 0 1.02 0 0 Z " fill="#B2B2B2" transform="translate(146,178)"/>
<path d="M0 0 C1.32 0.33 2.64 0.66 4 1 C3.67 1.66 3.34 2.32 3 3 C2.01 2.67 1.02 2.34 0 2 C0 1.34 0 0.68 0 0 Z " fill="#9E9E9E" transform="translate(252,178)"/>
<path d="M0 0 C0.99 0.495 0.99 0.495 2 1 C2 1.99 2 2.98 2 4 C1.34 4 0.68 4 0 4 C0 2.68 0 1.36 0 0 Z " fill="#9B9B9B" transform="translate(228,177)"/>
<path d="" fill="#FFFFFF" transform="translate(0,0)"/>
<path d="" fill="#FFFFFF" transform="translate(0,0)"/>
<path d="" fill="#FFFFFF" transform="translate(0,0)"/>
<path d="" fill="#FFFFFF" transform="translate(0,0)"/>
<path d="" fill="#FFFFFF" transform="translate(0,0)"/>
</svg>
