<?xml version="1.0" encoding="UTF-8"?>
<svg version="1.1" xmlns="http://www.w3.org/2000/svg" width="324" height="105">
<path d="M0 0 C0.66 0 1.32 0 2 0 C5.35080168 13.46304244 6.84770904 25.14218219 5 39 C5.99 39.66 6.98 40.32 8 41 C8.1875 43.625 8.1875 43.625 8 46 C8.66 45.67 9.32 45.34 10 45 C9.67 44.05125 9.34 43.1025 9 42.125 C7.68721611 37.44464003 7.32159193 32.82241884 8 28 C10.05107588 24.60511578 11.70484621 23.19676919 15 21 C15.99 21 16.98 21 18 21 C17.835 21.515625 17.67 22.03125 17.5 22.5625 C16.1376804 29.20380803 16.91869966 36.56784065 19 43 C21.40755204 45.27098567 21.40755204 45.27098567 24 46 C23.67 47.65 23.34 49.3 23 51 C25.97 50.505 25.97 50.505 29 50 C29.02687279 51.81242052 29.04633715 53.62495233 29.0625 55.4375 C29.07410156 56.44683594 29.08570313 57.45617188 29.09765625 58.49609375 C29 61 29 61 28 62 C25.32941149 62.14115161 22.67567762 62.04247107 20 62 C22.97 62.66 25.94 63.32 29 64 C26.72219091 68.55561817 25.46985864 69.00282912 21 71 C20.67 71.33 20.34 71.66 20 72 C13.66158537 72.4695122 13.66158537 72.4695122 11.0625 70.625 C10 69 10 69 10 67 C9.01 67.495 9.01 67.495 8 68 C8.19471111 69.94999129 8.19471111 69.94999129 9 72 C10.9837767 73.28436734 10.9837767 73.28436734 13 74 C13 74.66 13 75.32 13 76 C10.36 76.33 7.72 76.66 5 77 C5.495 77.86625 5.495 77.86625 6 78.75 C7 81 7 81 7 85 C6.01 85.33 5.02 85.66 4 86 C4.04125 87.11375 4.0825 88.2275 4.125 89.375 C4 93 4 93 2 95 C1.01 95 0.02 95 -1 95 C-3 92 -3 92 -2.9375 89.4375 C-2.958125 88.633125 -2.97875 87.82875 -3 87 C-4.485 86.01 -4.485 86.01 -6 85 C-5.855625 84.443125 -5.71125 83.88625 -5.5625 83.3125 C-4.97230872 80.88615805 -4.476571 78.45093655 -4 76 C-5.485 75.01 -5.485 75.01 -7 74 C-6.67 72.02 -6.34 70.04 -6 68 C-8.57327433 69.21030974 -8.57327433 69.21030974 -11 71 C-11 72.32 -11 73.64 -11 75 C-16.44208234 74.65986985 -19.93668198 71.29703472 -24 68 C-23.6875 66.125 -23.6875 66.125 -23 64 C-22.01 63.34 -21.02 62.68 -20 62 C-23.12290635 62.48578543 -25.99580359 62.9986012 -29 64 C-29.36090226 56.78195489 -29.36090226 56.78195489 -27.875 53.5625 C-25.36180747 51.46817289 -23.20877528 51.28522447 -20 51 C-22.31 51 -24.62 51 -27 51 C-25.63016497 47.83884224 -25.0109362 47.0072908 -22 45 C-20.68 45 -19.36 45 -18 45 C-16.08873649 36.80424292 -14.37567326 29.41696583 -16 21 C-12.05559313 22.31480229 -9.45094554 23.58618299 -7 27 C-6.0054903 31.25557637 -5.6094514 34.82835421 -7 39 C-5.68 39 -4.36 39 -3 39 C-3.15855469 38.34644531 -3.31710938 37.69289062 -3.48046875 37.01953125 C-5.6691994 24.29856288 -3.71842358 12.18447726 0 0 Z " fill="#37BAF4" transform="translate(29,3)"/>
<path d="M0 0 C3.11329422 1.53811766 3.82475547 3.31899224 5.30786133 6.43188477 C5.8331543 7.51147461 6.35844727 8.59106445 6.8996582 9.70336914 C7.43010742 10.83967773 7.96055664 11.97598633 8.50708008 13.14672852 C9.05686523 14.2869043 9.60665039 15.42708008 10.1730957 16.60180664 C11.53004799 19.42190749 12.86954494 22.24902674 14.19458008 25.08422852 C16.45020401 22.22343718 18.21842565 19.33233823 19.89379883 16.09985352 C20.38041992 15.1652832 20.86704102 14.23071289 21.3684082 13.26782227 C22.11767578 11.81569336 22.11767578 11.81569336 22.88208008 10.33422852 C23.39319336 9.35067383 23.90430664 8.36711914 24.4309082 7.35375977 C25.68869178 4.9322325 26.94312144 2.50902887 28.19458008 0.08422852 C36.67672294 1.22183356 36.67672294 1.22183356 40.19458008 3.08422852 C40.68958008 4.56922852 40.68958008 4.56922852 41.19458008 6.08422852 C41.83355225 5.26929932 42.47252441 4.45437012 43.13085938 3.61474609 C47.26352798 0.20131793 50.02603318 0.43410699 55.21411133 0.59594727 C56.07268234 0.603022 56.93125336 0.61009674 57.81584167 0.61738586 C60.5471561 0.64528449 63.27638966 0.7080116 66.00708008 0.77172852 C67.86317018 0.79681738 69.71929254 0.81962952 71.57543945 0.84008789 C76.1159498 0.89509598 80.65491265 0.98133487 85.19458008 1.08422852 C81.69458008 4.58422852 81.69458008 4.58422852 78.19458008 8.08422852 C74.56458008 8.08422852 70.93458008 8.08422852 67.19458008 8.08422852 C67.19458008 20.62422852 67.19458008 33.16422852 67.19458008 46.08422852 C63.56458008 46.08422852 59.93458008 46.08422852 56.19458008 46.08422852 C56.19458008 33.54422852 56.19458008 21.00422852 56.19458008 8.08422852 C51.24458008 8.41422852 46.29458008 8.74422852 41.19458008 9.08422852 C40.86458008 21.29422852 40.53458008 33.50422852 40.19458008 46.08422852 C36.56458008 46.08422852 32.93458008 46.08422852 29.19458008 46.08422852 C28.86458008 38.49422852 28.53458008 30.90422852 28.19458008 23.08422852 C25.55458008 28.69422852 22.91458008 34.30422852 20.19458008 40.08422852 C16.56458008 40.08422852 12.93458008 40.08422852 9.19458008 40.08422852 C6.55458008 34.80422852 3.91458008 29.52422852 1.19458008 24.08422852 C0.86458008 31.34422852 0.53458008 38.60422852 0.19458008 46.08422852 C-3.43541992 46.08422852 -7.06541992 46.08422852 -10.80541992 46.08422852 C-10.80541992 32.22422852 -10.80541992 18.36422852 -10.80541992 4.08422852 C-2.80541992 0.08422852 -2.80541992 0.08422852 0 0 Z " fill="#FAAB1C" transform="translate(232.805419921875,5.915771484375)"/>
<path d="M0 0 C0.83496002 0.00707474 1.66992004 0.01414948 2.53018188 0.0214386 C5.17991223 0.049282 7.82747809 0.11199719 10.4765625 0.17578125 C12.27991725 0.20087732 14.08330535 0.2236882 15.88671875 0.24414062 C20.29249233 0.29907514 24.69666129 0.38527413 29.1015625 0.48828125 C28.12289912 1.63454447 27.14361663 2.78027913 26.1640625 3.92578125 C25.61878906 4.56386719 25.07351562 5.20195312 24.51171875 5.859375 C23.73360555 6.75819274 22.94219722 7.64764653 22.1015625 8.48828125 C20.17488743 8.57576332 18.24504389 8.59525459 16.31640625 8.5859375 C15.14658203 8.58271484 13.97675781 8.57949219 12.77148438 8.57617188 C11.53978516 8.56779297 10.30808594 8.55941406 9.0390625 8.55078125 C7.18571289 8.54401367 7.18571289 8.54401367 5.29492188 8.53710938 C2.23042133 8.52527733 -0.83398471 8.50879298 -3.8984375 8.48828125 C-3.8984375 11.78828125 -3.8984375 15.08828125 -3.8984375 18.48828125 C-1.51238281 18.38386719 -1.51238281 18.38386719 0.921875 18.27734375 C3.02339517 18.22105303 5.12496114 18.1664543 7.2265625 18.11328125 C8.27328125 18.06300781 9.32 18.01273438 10.3984375 17.9609375 C19.1372049 17.79501154 19.1372049 17.79501154 22.796875 21.04296875 C25.58000041 24.49461494 25.90549957 27.56544131 25.8515625 31.98828125 C25.86703125 33.25671875 25.8825 34.52515625 25.8984375 35.83203125 C24.87976004 40.50596312 23.06250076 42.82948192 19.1015625 45.48828125 C16.10728081 46.26660885 13.28039651 46.19330371 10.203125 46.07421875 C8.95068497 46.06148422 8.95068497 46.06148422 7.67294312 46.04849243 C5.02280105 46.01507516 2.37577448 45.93982581 -0.2734375 45.86328125 C-2.07677877 45.8331662 -3.88016804 45.80579308 -5.68359375 45.78125 C-10.08973036 45.71532316 -14.49355696 45.61188921 -18.8984375 45.48828125 C-14.07581204 38.78439886 -14.07581204 38.78439886 -9.73876953 37.69360352 C-8.63903809 37.73026123 -7.53930664 37.76691895 -6.40625 37.8046875 C-4.60800781 37.83852539 -4.60800781 37.83852539 -2.7734375 37.87304688 C-1.5359375 37.93169922 -0.2984375 37.99035156 0.9765625 38.05078125 C2.23726562 38.08236328 3.49796875 38.11394531 4.796875 38.14648438 C7.89943894 38.22874933 11.00080148 38.35429775 14.1015625 38.48828125 C14.1015625 34.52828125 14.1015625 30.56828125 14.1015625 26.48828125 C12.59464844 26.55789062 11.08773437 26.6275 9.53515625 26.69921875 C7.53650311 26.75551884 5.5378015 26.81011656 3.5390625 26.86328125 C2.54841797 26.91355469 1.55777344 26.96382812 0.53710938 27.015625 C-4.40785172 27.11419565 -8.03039817 26.99844439 -12.0625 23.9375 C-14.52215964 21.43083107 -14.92581809 20.37529148 -15.79296875 16.796875 C-15.76589844 15.51941406 -15.73882812 14.24195313 -15.7109375 12.92578125 C-15.71738281 11.64574219 -15.72382813 10.36570312 -15.73046875 9.046875 C-14.84318542 5.25196835 -13.79081577 3.88071112 -10.75511169 1.50956726 C-7.31010014 -0.38540285 -3.84315322 -0.12393602 0 0 Z " fill="#F9A81C" transform="translate(190.8984375,6.51171875)"/>
<path d="M0 0 C1.98 0.99 3.96 1.98 6 3 C5.67 4.65 5.34 6.3 5 8 C6.98 7.67 8.96 7.34 11 7 C11.02687279 8.81242052 11.04633715 10.62495233 11.0625 12.4375 C11.07410156 13.44683594 11.08570313 14.45617187 11.09765625 15.49609375 C11 18 11 18 10 19 C7.32941149 19.14115161 4.67567762 19.04247107 2 19 C6.455 19.99 6.455 19.99 11 21 C8.72219091 25.55561817 7.46985864 26.00282912 3 28 C2.505 28.495 2.505 28.495 2 29 C-4.33841463 29.4695122 -4.33841463 29.4695122 -6.9375 27.625 C-8 26 -8 26 -8 24 C-8.99 24.495 -8.99 24.495 -10 25 C-9.80528889 26.94999129 -9.80528889 26.94999129 -9 29 C-7.0162233 30.28436734 -7.0162233 30.28436734 -5 31 C-5 31.66 -5 32.32 -5 33 C-7.64 33.33 -10.28 33.66 -13 34 C-12.505 34.86625 -12.505 34.86625 -12 35.75 C-11 38 -11 38 -11 42 C-11.99 42.33 -12.98 42.66 -14 43 C-13.95875 44.11375 -13.9175 45.2275 -13.875 46.375 C-14 50 -14 50 -16 52 C-16.99 52 -17.98 52 -19 52 C-21 49 -21 49 -20.9375 46.4375 C-20.958125 45.633125 -20.97875 44.82875 -21 44 C-21.99 43.34 -22.98 42.68 -24 42 C-23.855625 41.443125 -23.71125 40.88625 -23.5625 40.3125 C-22.97230872 37.88615805 -22.476571 35.45093655 -22 33 C-22.99 32.34 -23.98 31.68 -25 31 C-24.67 29.02 -24.34 27.04 -24 25 C-26.57327433 26.21030974 -26.57327433 26.21030974 -29 28 C-29 29.32 -29 30.64 -29 32 C-34.44208234 31.65986985 -37.93668198 28.29703472 -42 25 C-41.6875 23.125 -41.6875 23.125 -41 21 C-40.01 20.34 -39.02 19.68 -38 19 C-41.12290635 19.48578543 -43.99580359 19.9986012 -47 21 C-47.35555556 13.88888889 -47.35555556 13.88888889 -46 10.5 C-43.40917707 8.5568828 -41.23750469 8.50673052 -38.0546875 8.67578125 C-33.77712102 9.35075847 -30.75372341 11.39334457 -27.4375 14.0625 C-23.26518918 17.37895219 -19.21806075 18.2718985 -14 19 C-14 18.34 -14 17.68 -14 17 C-13.113125 16.773125 -12.22625 16.54625 -11.3125 16.3125 C-6.89807992 14.56339016 -4.31342593 12.03581019 -1.75 8.0625 C-0.786228 5.41212701 -0.38020899 2.78819925 0 0 Z " fill="#F7767F" transform="translate(47,46)"/>
<path d="M0 0 C1.12138618 0.01273453 1.12138618 0.01273453 2.26542664 0.02572632 C4.64069063 0.05917221 7.01249094 0.13441936 9.38671875 0.2109375 C11.00190389 0.2410492 12.61714256 0.26842292 14.23242188 0.29296875 C18.18101114 0.35893249 22.1270289 0.46237991 26.07421875 0.5859375 C24.13671875 3.5859375 24.13671875 3.5859375 21.07421875 6.5859375 C18.10421875 6.5859375 15.13421875 6.5859375 12.07421875 6.5859375 C12.07421875 19.1259375 12.07421875 31.6659375 12.07421875 44.5859375 C8.44421875 44.5859375 4.81421875 44.5859375 1.07421875 44.5859375 C1.07421875 32.0459375 1.07421875 19.5059375 1.07421875 6.5859375 C-3.54578125 6.5859375 -8.16578125 6.5859375 -12.92578125 6.5859375 C-9.19710367 1.07397933 -6.74909813 -0.29113181 0 0 Z " fill="#FDA71D" transform="translate(287.92578125,7.4140625)"/>
<path d="M0 0 C0.99 0 1.98 0 3 0 C3 3.3 3 6.6 3 10 C4.59070313 9.93039063 6.18140625 9.86078125 7.8203125 9.7890625 C9.92183267 9.73277178 12.02339864 9.67817305 14.125 9.625 C15.17171875 9.57472656 16.2184375 9.52445313 17.296875 9.47265625 C26.0356424 9.30673029 26.0356424 9.30673029 29.6953125 12.5546875 C32.47843791 16.00633369 32.80393707 19.07716006 32.75 23.5 C32.76546875 24.7684375 32.7809375 26.036875 32.796875 27.34375 C31.77819754 32.01768187 29.96093826 34.34120067 26 37 C23.00571831 37.7783276 20.17883401 37.70502246 17.1015625 37.5859375 C15.84912247 37.57320297 15.84912247 37.57320297 14.57138062 37.56021118 C11.92123855 37.52679391 9.27421198 37.45154456 6.625 37.375 C4.82165873 37.34488495 3.01826946 37.31751183 1.21484375 37.29296875 C-3.19129286 37.22704191 -7.59511946 37.12360796 -12 37 C-7.17737454 30.29611761 -7.17737454 30.29611761 -2.84033203 29.20532227 C-1.74060059 29.24197998 -0.64086914 29.2786377 0.4921875 29.31640625 C2.29042969 29.35024414 2.29042969 29.35024414 4.125 29.38476562 C5.3625 29.44341797 6.6 29.50207031 7.875 29.5625 C9.76605469 29.60987305 9.76605469 29.60987305 11.6953125 29.65820312 C14.79787644 29.74046808 17.89923898 29.8660165 21 30 C21 26.04 21 22.08 21 18 C14.4 18 7.8 18 1 18 C1 17.67 1 17.34 1 17 C1.58491211 16.97494385 2.16982422 16.9498877 2.77246094 16.92407227 C5.43184471 16.80777038 8.09090403 16.68519933 10.75 16.5625 C11.67039063 16.52318359 12.59078125 16.48386719 13.5390625 16.44335938 C14.42851562 16.40146484 15.31796875 16.35957031 16.234375 16.31640625 C17.45979004 16.26141968 17.45979004 16.26141968 18.70996094 16.20532227 C20.9034423 16.00865725 22.88396413 15.59699406 25 15 C24.34 14.01 23.68 13.02 23 12 C20.5842887 11.49095616 20.5842887 11.49095616 17.7734375 11.48828125 C16.7421875 11.45283203 15.7109375 11.41738281 14.6484375 11.38085938 C13.56820312 11.35830078 12.48796875 11.33574219 11.375 11.3125 C10.28703125 11.27833984 9.1990625 11.24417969 8.078125 11.20898438 C5.38578433 11.12632479 2.69290729 11.06149158 0 11 C0 7.37 0 3.74 0 0 Z " fill="#F47900" transform="translate(184,15)"/>
<path d="M0 0 C2.04518638 0.14412387 4.08938894 0.31786425 6.125 0.5625 C6.455 2.2125 6.785 3.8625 7.125 5.5625 C7.7746875 4.325 7.7746875 4.325 8.4375 3.0625 C11.6500923 0.07404205 12.6249469 0.22265088 16.875 0.25 C18.62626074 0.33022791 20.37715533 0.42689136 22.125 0.5625 C21.465 1.5525 20.805 2.5425 20.125 3.5625 C18.13077205 3.92878677 16.13046689 4.26381344 14.125 4.5625 C13.795 5.2225 13.465 5.8825 13.125 6.5625 C14.094375 6.871875 15.06375 7.18125 16.0625 7.5 C19.125 8.5625 19.125 8.5625 20.125 9.5625 C20.19726502 11.41537502 20.2088122 13.27083878 20.1875 15.125 C20.17847656 16.13691406 20.16945312 17.14882813 20.16015625 18.19140625 C20.14855469 18.97386719 20.13695312 19.75632812 20.125 20.5625 C18.3125 21.1875 18.3125 21.1875 16.125 21.5625 C15.135 20.9025 14.145 20.2425 13.125 19.5625 C13.125 18.9025 13.125 18.2425 13.125 17.5625 C13.785 17.2325 14.445 16.9025 15.125 16.5625 C15.125 15.2425 15.125 13.9225 15.125 12.5625 C10.67 10.5825 10.67 10.5825 6.125 8.5625 C6.125 12.5225 6.125 16.4825 6.125 20.5625 C4.475 20.5625 2.825 20.5625 1.125 20.5625 C1.125 17.5925 1.125 14.6225 1.125 11.5625 C0.465 11.5625 -0.195 11.5625 -0.875 11.5625 C-1.308125 12.9546875 -1.308125 12.9546875 -1.75 14.375 C-2.875 17.5625 -2.875 17.5625 -4.875 20.5625 C-7.5 20.75 -7.5 20.75 -9.875 20.5625 C-10.00777344 19.93601562 -10.14054687 19.30953125 -10.27734375 18.6640625 C-10.45394531 17.84679687 -10.63054687 17.02953125 -10.8125 16.1875 C-10.98652344 15.37539063 -11.16054687 14.56328125 -11.33984375 13.7265625 C-11.79830693 11.533037 -11.79830693 11.533037 -12.875 9.5625 C-9.93943856 2.80668738 -7.6639537 -0.07521874 0 0 Z M-2.875 3.5625 C-5.14377535 5.98130929 -5.14377535 5.98130929 -6.875 8.5625 C-6.215 9.8825 -5.555 11.2025 -4.875 12.5625 C-4.545 11.2425 -4.215 9.9225 -3.875 8.5625 C-2.225 8.8925 -0.575 9.2225 1.125 9.5625 C1.125 7.5825 1.125 5.6025 1.125 3.5625 C-0.195 3.5625 -1.515 3.5625 -2.875 3.5625 Z " fill="#000000" transform="translate(81.875,31.4375)"/>
<path d="M0 0 C4.11574371 0.4748935 7.36383344 1.0210244 11 3 C11.02927632 6.52081558 11.04689119 10.04159939 11.0625 13.5625 C11.07087891 14.55314453 11.07925781 15.54378906 11.08789062 16.56445312 C11.10536914 21.82548699 10.92308398 26.81764665 10 32 C9.67 31.34 9.34 30.68 9 30 C7.02 30.66 5.04 31.32 3 32 C2.67 26.06 2.34 20.12 2 14 C0.35 17.63 -1.3 21.26 -3 25 C-5.31 25 -7.62 25 -10 25 C-8.21245945 15.55157136 -4.83219809 8.20811731 0 0 Z " fill="#FCDB18" transform="translate(260,8)"/>
<path d="M0 0 C1.175625 0.309375 2.35125 0.61875 3.5625 0.9375 C7.36432975 1.8930401 11.11209261 2.51401158 15 3 C13.87716914 6.2562095 13.04149584 6.97713495 9.9375 8.6875 C8.968125 9.120625 7.99875 9.55375 7 10 C6.67 10.33 6.34 10.66 6 11 C-0.33841463 11.4695122 -0.33841463 11.4695122 -2.9375 9.625 C-4 8 -4 8 -4 6 C-4.99 6.495 -4.99 6.495 -6 7 C-5.80528889 8.94999129 -5.80528889 8.94999129 -5 11 C-3.0162233 12.28436734 -3.0162233 12.28436734 -1 13 C-1 13.66 -1 14.32 -1 15 C-3.64 15.33 -6.28 15.66 -9 16 C-8.505 16.86625 -8.505 16.86625 -8 17.75 C-7 20 -7 20 -7 24 C-7.99 24.33 -8.98 24.66 -10 25 C-9.95875 26.11375 -9.9175 27.2275 -9.875 28.375 C-10 32 -10 32 -12 34 C-12.99 34 -13.98 34 -15 34 C-17 31 -17 31 -16.9375 28.4375 C-16.958125 27.633125 -16.97875 26.82875 -17 26 C-17.99 25.34 -18.98 24.68 -20 24 C-19.855625 23.443125 -19.71125 22.88625 -19.5625 22.3125 C-18.97230872 19.88615805 -18.476571 17.45093655 -18 15 C-18.99 14.34 -19.98 13.68 -21 13 C-20.67 11.35 -20.34 9.7 -20 8 C-19.01 7.67 -18.02 7.34 -17 7 C-16.67 7.99 -16.34 8.98 -16 10 C-13.03 10.495 -13.03 10.495 -10 11 C-10.33 9.68 -10.66 8.36 -11 7 C-11.66 7 -12.32 7 -13 7 C-12.67 5.68 -12.34 4.36 -12 3 C-11.34 3 -10.68 3 -10 3 C-10 3.66 -10 4.32 -10 5 C-9.34 5 -8.68 5 -8 5 C-7.67 4.01 -7.34 3.02 -7 2 C-6.67 2.66 -6.34 3.32 -6 4 C-2.54670274 5.72664863 0.15830842 6.21952523 4 6 C4.33 5.34 4.66 4.68 5 4 C3.02 4 1.04 4 -1 4 C-0.67 2.68 -0.34 1.36 0 0 Z " fill="#EA1826" transform="translate(43,64)"/>
<path d="M0 0 C4.26947129 0.50229074 8.16836808 0.97148898 12 3 C12.33 3.99 12.66 4.98 13 6 C13.63897217 5.1850708 14.27794434 4.3701416 14.9362793 3.53051758 C19.0689479 0.11708941 21.83145311 0.34987848 27.01953125 0.51171875 C27.87810226 0.51879349 28.73667328 0.52586823 29.6212616 0.53315735 C32.35257603 0.56105598 35.08180958 0.62378309 37.8125 0.6875 C39.6685901 0.71258886 41.52471246 0.73540101 43.38085938 0.75585938 C47.92136972 0.81086747 52.46033257 0.89710636 57 1 C51.61607143 6.52678571 51.61607143 6.52678571 48 8 C49.32 6.35 50.64 4.7 52 3 C47.39198858 2.85126836 42.78538408 2.742612 38.17553711 2.67041016 C36.60888321 2.64030399 35.04239697 2.5994077 33.47631836 2.54736328 C31.21946857 2.47426113 28.96485204 2.44048699 26.70703125 2.4140625 C25.66298882 2.36761093 25.66298882 2.36761093 24.59785461 2.32022095 C21.75476299 2.31826966 19.62284447 2.44875458 17.44564819 4.37567139 C16.22523328 5.86086473 15.10465813 7.42680508 14 9 C13.67 9 13.34 9 13 9 C12.67 21.21 12.34 33.42 12 46 C8.37 46 4.74 46 1 46 C0.67 38.41 0.34 30.82 0 23 C-2.64 28.61 -5.28 34.22 -8 40 C-8.99 39.67 -9.98 39.34 -11 39 C-7.04 30.75 -3.08 22.5 1 14 C1.33 14 1.66 14 2 14 C2 20.6 2 27.2 2 34 C2.99 33.34 3.98 32.68 5 32 C5.99 32 6.98 32 8 32 C8.76636091 28.53910321 9.17149371 25.23922512 9.31640625 21.69921875 C9.35830078 20.72275391 9.40019531 19.74628906 9.44335938 18.74023438 C9.48267578 17.73283203 9.52199219 16.72542969 9.5625 15.6875 C9.60568359 14.66076172 9.64886719 13.63402344 9.69335938 12.57617188 C9.79906738 10.05092511 9.90000208 7.52547933 10 5 C6.7 4.01 3.4 3.02 0 2 C0 1.34 0 0.68 0 0 Z " fill="#F17C00" transform="translate(261,6)"/>
<path d="M0 0 C3.94440687 1.31480229 6.54905446 2.58618299 9 6 C9.9945097 10.25557637 10.3905486 13.82835421 9 18 C10.65 18.33 12.3 18.66 14 19 C14.3690205 28.41002278 14.3690205 28.41002278 12 33 C9.1875 33.3125 9.1875 33.3125 6 33 C3.64035777 30.64035777 3.04652322 28.82320245 2.859375 25.51171875 C2.86961381 23.7429651 2.91271238 21.97402814 2.9921875 20.20703125 C3.16582263 17.95633119 3.16582263 17.95633119 2 16 C0.93276039 19.46222615 0.89826514 22.64039266 0.9375 26.25 C0.94652344 27.32765625 0.95554687 28.4053125 0.96484375 29.515625 C0.97644531 30.33546875 0.98804688 31.1553125 1 32 C0.25363281 31.67257813 -0.49273437 31.34515625 -1.26171875 31.0078125 C-4.61960486 29.77195713 -7.45005348 29.86078641 -11 30 C-9.63016497 26.83884224 -9.0109362 26.0072908 -6 24 C-4.68 24 -3.36 24 -2 24 C-0.08873649 15.80424292 1.62432674 8.41696583 0 0 Z " fill="#108CDE" transform="translate(13,24)"/>
<path d="M0 0 C1.66918945 2.31665039 1.66918945 2.31665039 3.11328125 5.34765625 C3.63857422 6.42724609 4.16386719 7.50683594 4.70507812 8.61914062 C5.23552734 9.75544922 5.76597656 10.89175781 6.3125 12.0625 C6.86228516 13.20267578 7.41207031 14.34285156 7.97851562 15.51757812 C9.33546791 18.33767897 10.67496486 21.16479823 12 24 C12.680625 23.071875 12.680625 23.071875 13.375 22.125 C15 20 15 20 17 18 C17 19.32 17 20.64 17 22 C17.99 22.66 18.98 23.32 20 24 C18.35 24 16.7 24 15 24 C15 24.66 15 25.32 15 26 C16.98 26 18.96 26 21 26 C19.58707905 30.8274799 17.57025846 34.7162359 15 39 C12.36 39 9.72 39 7 39 C4.69 34.38 2.38 29.76 0 25 C2 23 2 23 5 22 C4.45318976 16.99399078 2.75859667 13.02818933 0.4375 8.625 C0.10814453 7.98433594 -0.22121094 7.34367188 -0.56054688 6.68359375 C-1.36639482 5.11861368 -2.18218493 3.55875979 -3 2 C-6.37531801 2.55022307 -9.69602915 3.11046939 -13 4 C-9.34349654 -0.23384611 -5.38322359 -1.87439015 0 0 Z " fill="#FB8200" transform="translate(235,7)"/>
<path d="M0 0 C-0.165 0.515625 -0.33 1.03125 -0.5 1.5625 C-1.26253564 5.27986126 -1.50049829 9.1301384 -0.51171875 12.82421875 C0.90393493 18.84344852 1.30916552 26.5041688 -1.6875 32.0625 C-3.97259621 34.96518978 -5.84488976 37.07615229 -9 39 C-11.8125 39.25 -11.8125 39.25 -14 39 C-14 39.66 -14 40.32 -14 41 C-17.94727588 41.17942163 -20.5980513 41.09350689 -24 39 C-24 38.34 -24 37.68 -24 37 C-23.01 37 -22.02 37 -21 37 C-21 36.34 -21 35.68 -21 35 C-19.515 34.505 -19.515 34.505 -18 34 C-17.34 33.34 -16.68 32.68 -16 32 C-15.67 32.33 -15.34 32.66 -15 33 C-9.65899378 33.60938526 -9.65899378 33.60938526 -5 31.5625 C-3.14247005 26.8025795 -3.39919946 21.80240162 -5 17 C-5.66 17.99 -6.32 18.98 -7 20 C-7.33 19.01 -7.66 18.02 -8 17 C-8.66 17 -9.32 17 -10 17 C-10.62653784 8.03702815 -10.62653784 8.03702815 -8.1875 4 C-3.8125 0 -3.8125 0 0 0 Z " fill="#2893D8" transform="translate(47,24)"/>
<path d="M0 0 C2.64 0 5.28 0 8 0 C8 3.96 8 7.92 8 12 C15.59 12 23.18 12 31 12 C31.66 13.32 32.32 14.64 33 16 C28.25343634 18.69860964 23.54121695 18.68445676 18.1875 19 C17.21490234 19.08894531 16.24230469 19.17789063 15.24023438 19.26953125 C10.29956471 19.55720734 6.85687656 19.50596607 2.828125 16.4296875 C0.4251271 13.98391372 0.01414116 13.07094824 -0.68359375 9.5703125 C-0.60238281 8.43335938 -0.52117187 7.29640625 -0.4375 6.125 C-0.37433594 4.97257812 -0.31117188 3.82015625 -0.24609375 2.6328125 C-0.16488281 1.76398437 -0.08367187 0.89515625 0 0 Z " fill="#FDD813" transform="translate(176,14)"/>
<path d="M0 0 C0.99 0 1.98 0 3 0 C3 12.54 3 25.08 3 38 C-0.63 38 -4.26 38 -8 38 C-8 25.79 -8 13.58 -8 1 C-7.67 1 -7.34 1 -7 1 C-6.67 7.6 -6.34 14.2 -6 21 C-4.35 21 -2.7 21 -1 21 C-0.67 14.07 -0.34 7.14 0 0 Z " fill="#D56802" transform="translate(297,14)"/>
<path d="M0 0 C3.23906974 0.49596342 5.40152006 1.41291611 8.06640625 3.31640625 C9.44140625 6.50390625 9.44140625 6.50390625 10.06640625 9.31640625 C9.40640625 9.31640625 8.74640625 9.31640625 8.06640625 9.31640625 C8.06640625 9.97640625 8.06640625 10.63640625 8.06640625 11.31640625 C8.72640625 11.64640625 9.38640625 11.97640625 10.06640625 12.31640625 C7.05608881 13.2506427 6.19990357 13.36090536 3.06640625 12.31640625 C3.39640625 13.30640625 3.72640625 14.29640625 4.06640625 15.31640625 C7.53140625 14.82140625 7.53140625 14.82140625 11.06640625 14.31640625 C11.39640625 15.30640625 11.72640625 16.29640625 12.06640625 17.31640625 C11.07640625 17.97640625 10.08640625 18.63640625 9.06640625 19.31640625 C9.06640625 20.63640625 9.06640625 21.95640625 9.06640625 23.31640625 C3.62432391 22.9762761 0.12972427 19.61344097 -3.93359375 16.31640625 C-3.62109375 14.44140625 -3.62109375 14.44140625 -2.93359375 12.31640625 C-1.94359375 11.65640625 -0.95359375 10.99640625 0.06640625 10.31640625 C-3.0565001 10.80219168 -5.92939734 11.31500745 -8.93359375 12.31640625 C-9.28914931 5.20529514 -9.28914931 5.20529514 -7.93359375 1.81640625 C-5.34564933 -0.12455206 -3.18012754 -0.18155424 0 0 Z " fill="#F62132" transform="translate(8.93359375,54.68359375)"/>
<path d="M0 0 C0.33 0.99 0.66 1.98 1 3 C1.66 3 2.32 3 3 3 C5.69248932 13.09683497 5.37299382 22.70254637 4 33 C4.99 33.66 5.98 34.32 7 35 C7.1875 37.625 7.1875 37.625 7 40 C8.98 39.505 8.98 39.505 11 39 C10.8125 41.875 10.8125 41.875 10 45 C7.33188585 46.73066864 5.88675654 47.14779276 2.75 46.625 C-0.02609019 44.04720197 0.26065615 40.60689676 0 37 C-0.10109452 33.99781902 -0.09633373 31.00339457 -0.0625 28 C-0.05798828 27.22527344 -0.05347656 26.45054688 -0.04882812 25.65234375 C-0.03719758 23.76819476 -0.01926906 21.88408635 0 20 C0.66 20 1.32 20 2 20 C1.81535634 15.65815798 1.81535634 15.65815798 0 12 C-0.07244053 9.98035801 -0.08377188 7.95832876 -0.0625 5.9375 C-0.05347656 4.83277344 -0.04445313 3.72804688 -0.03515625 2.58984375 C-0.02355469 1.73519531 -0.01195313 0.88054688 0 0 Z " fill="#3094D5" transform="translate(30,9)"/>
<path d="M0 0 C0 6.6 0 13.2 0 20 C-1.65 20 -3.3 20 -5 20 C-5 14.39 -5 8.78 -5 3 C-6.98 3.66 -8.96 4.32 -11 5 C-12.09506492 8.28519475 -12.09960608 10.73663415 -12.0625 14.1875 C-12.05347656 15.27417969 -12.04445313 16.36085938 -12.03515625 17.48046875 C-12.02355469 18.31191406 -12.01195313 19.14335938 -12 20 C-13.32 20 -14.64 20 -16 20 C-16.04898438 19.39671875 -16.09796875 18.7934375 -16.1484375 18.171875 C-16.22320312 17.37265625 -16.29796875 16.5734375 -16.375 15.75 C-16.44460937 14.96109375 -16.51421875 14.1721875 -16.5859375 13.359375 C-17.01507113 10.914123 -17.78600638 9.15163097 -19 7 C-14.7977432 -2.05101465 -9.35095313 -0.6117446 0 0 Z " fill="#000000" transform="translate(138,32)"/>
<path d="M0 0 C0.66 0.33 1.32 0.66 2 1 C3.09911549 4.29734646 3.1139456 6.72958745 3.09765625 10.19921875 C3.09443359 11.40771484 3.09121094 12.61621094 3.08789062 13.86132812 C3.07951172 15.12396484 3.07113281 16.38660156 3.0625 17.6875 C3.05798828 18.96173828 3.05347656 20.23597656 3.04882812 21.54882812 C3.03702873 24.69926564 3.02056597 27.84960949 3 31 C-0.63 31 -4.26 31 -8 31 C-8.05402274 28.89611431 -8.09280256 26.79183286 -8.125 24.6875 C-8.14820313 23.51574219 -8.17140625 22.34398437 -8.1953125 21.13671875 C-8 18 -8 18 -6 15 C-4.35 15 -2.7 15 -1 15 C-0.67 10.05 -0.34 5.1 0 0 Z " fill="#FD8300" transform="translate(230,21)"/>
<path d="M0 0 C3.96 0 7.92 0 12 0 C11.34 1.32 10.68 2.64 10 4 C8.68 4 7.36 4 6 4 C6.03029297 4.77190674 6.06058594 5.54381348 6.09179688 6.33911133 C6.22846595 9.83021765 6.36424356 13.32135808 6.5 16.8125 C6.54769531 18.02744141 6.59539062 19.24238281 6.64453125 20.49414062 C6.68964844 21.65751953 6.73476562 22.82089844 6.78125 24.01953125 C6.82314453 25.09307861 6.86503906 26.16662598 6.90820312 27.27270508 C6.97243254 29.18096796 7 31.09065649 7 33 C5.125 33.625 5.125 33.625 3 34 C0.29722874 31.29722874 0.7070459 29.78276059 0.62109375 26.00390625 C0.58693359 24.80572266 0.55277344 23.60753906 0.51757812 22.37304688 C0.49115234 21.11556641 0.46472656 19.85808594 0.4375 18.5625 C0.37762121 16.0845375 0.3139957 13.60666187 0.24609375 11.12890625 C0.22216553 10.02619385 0.1982373 8.92348145 0.17358398 7.78735352 C0.11443239 4.91554584 0.11443239 4.91554584 -1 2 C-0.67 1.34 -0.34 0.68 0 0 Z " fill="#000000" transform="translate(62,19)"/>
<path d="M0 0 C1.98 0.99 3.96 1.98 6 3 C5.67 4.65 5.34 6.3 5 8 C6.98 7.67 8.96 7.34 11 7 C11.02687279 8.81242052 11.04633715 10.62495233 11.0625 12.4375 C11.07410156 13.44683594 11.08570313 14.45617187 11.09765625 15.49609375 C11 18 11 18 10 19 C8.002577 19 6.00503024 18.99738395 4.0078125 18.96875 C1.87160856 19.00199831 0.03308865 19.34941163 -2 20 C-2.33 20 -2.66 20 -3 20 C-2.67 17.69 -2.34 15.38 -2 13 C-2.66 12.67 -3.32 12.34 -4 12 C-3.525625 11.13375 -3.05125 10.2675 -2.5625 9.375 C-1.06765105 6.14612626 -0.41781687 3.50966174 0 0 Z " fill="#F51C28" transform="translate(47,46)"/>
<path d="M0 0 C4.62 0 9.24 0 14 0 C18.06153846 7.26153846 18.06153846 7.26153846 17.75 11 C17.5025 11.66 17.255 12.32 17 13 C15.35 13.33 13.7 13.66 12 14 C10.68 11.03 9.36 8.06 8 5 C7.67 7.64 7.34 10.28 7 13 C6.34 12.34 5.68 11.68 5 11 C3.35 11 1.7 11 0 11 C0 7.37 0 3.74 0 0 Z " fill="#FDE417" transform="translate(223,17)"/>
<path d="M0 0 C4.26947129 0.50229074 8.16836808 0.97148898 12 3 C12.33 3.99 12.66 4.98 13 6 C13.63897217 5.1850708 14.27794434 4.3701416 14.9362793 3.53051758 C19.0689479 0.11708941 21.83145311 0.34987848 27.01953125 0.51171875 C27.87810226 0.51879349 28.73667328 0.52586823 29.6212616 0.53315735 C32.35257603 0.56105598 35.08180958 0.62378309 37.8125 0.6875 C39.6685901 0.71258886 41.52471246 0.73540101 43.38085938 0.75585938 C47.92136972 0.81086747 52.46033257 0.89710636 57 1 C51.61607143 6.52678571 51.61607143 6.52678571 48 8 C49.32 6.35 50.64 4.7 52 3 C47.39198858 2.85126836 42.78538408 2.742612 38.17553711 2.67041016 C36.60888321 2.64030399 35.04239697 2.5994077 33.47631836 2.54736328 C31.21946857 2.47426113 28.96485204 2.44048699 26.70703125 2.4140625 C25.66298882 2.36761093 25.66298882 2.36761093 24.59785461 2.32022095 C21.75476299 2.31826966 19.62284447 2.44875458 17.44564819 4.37567139 C16.22523328 5.86086473 15.10465813 7.42680508 14 9 C13.67 9 13.34 9 13 9 C12.67 21.21 12.34 33.42 12 46 C11.34 46 10.68 46 10 46 C10 32.47 10 18.94 10 5 C6.7 4.01 3.4 3.02 0 2 C0 1.34 0 0.68 0 0 Z " fill="#AC4100" transform="translate(261,6)"/>
<path d="M0 0 C3.5625 0.1875 3.5625 0.1875 5.5625 2.1875 C5.6875 5.8125 5.6875 5.8125 5.5625 9.1875 C6.8825 9.1875 8.2025 9.1875 9.5625 9.1875 C9.5625 6.2175 9.5625 3.2475 9.5625 0.1875 C13.1925 0.1875 16.8225 0.1875 20.5625 0.1875 C22.06912097 3.20074195 21.74020373 5.87036377 21.5625 9.1875 C19.5625 11.1875 19.5625 11.1875 16.9375 11.3125 C16.15375 11.27125 15.37 11.23 14.5625 11.1875 C14.5625 10.5275 14.5625 9.8675 14.5625 9.1875 C15.8825 9.1875 17.2025 9.1875 18.5625 9.1875 C18.5625 6.8775 18.5625 4.5675 18.5625 2.1875 C16.5825 2.1875 14.6025 2.1875 12.5625 2.1875 C12.57410156 2.96996094 12.58570313 3.75242187 12.59765625 4.55859375 C12.60667969 5.57050781 12.61570313 6.58242187 12.625 7.625 C12.63660156 8.63433594 12.64820313 9.64367187 12.66015625 10.68359375 C12.5625 13.1875 12.5625 13.1875 11.5625 14.1875 C9.22952567 14.22842937 6.89544775 14.22991723 4.5625 14.1875 C3.9025 10.8875 3.2425 7.5875 2.5625 4.1875 C1.5725 3.8575 0.5825 3.5275 -0.4375 3.1875 C-0.4375 5.8275 -0.4375 8.4675 -0.4375 11.1875 C-1.7575 11.1875 -3.0775 11.1875 -4.4375 11.1875 C-4.46438151 9.54175434 -4.48384123 7.89588587 -4.5 6.25 C-4.51160156 5.33347656 -4.52320313 4.41695313 -4.53515625 3.47265625 C-4.37688684 -0.23084786 -3.83485767 0.20917405 0 0 Z " fill="#0018AB" transform="translate(178.4375,71.8125)"/>
<path d="M0 0 C0.66 0 1.32 0 2 0 C2 0.66 2 1.32 2 2 C2.99 2 3.98 2 5 2 C5.28875 2.7425 5.5775 3.485 5.875 4.25 C6.82302644 6.56739797 7.84845911 8.77917115 9 11 C7.02 11.99 7.02 11.99 5 13 C5.04125 14.11375 5.0825 15.2275 5.125 16.375 C5 20 5 20 3 22 C2.01 22 1.02 22 0 22 C-2 19 -2 19 -1.9375 16.4375 C-1.958125 15.633125 -1.97875 14.82875 -2 14 C-2.99 13.34 -3.98 12.68 -5 12 C-4.855625 11.443125 -4.71125 10.88625 -4.5625 10.3125 C-3.97230872 7.88615805 -3.476571 5.45093655 -3 3 C-2.01 2.67 -1.02 2.34 0 2 C0 1.34 0 0.68 0 0 Z " fill="#19A2F3" transform="translate(28,76)"/>
<path d="M0 0 C0 6.6 0 13.2 0 20 C-3.63 20 -7.26 20 -11 20 C-12.32 15.71 -13.64 11.42 -15 7 C-13.35 7 -11.7 7 -10 7 C-9.49596232 8.29009643 -8.99690074 9.58213789 -8.5 10.875 C-8.2215625 11.59429687 -7.943125 12.31359375 -7.65625 13.0546875 C-7 15 -7 15 -7 17 C-6.01 17 -5.02 17 -4 17 C-4.11409682 14.89521396 -4.24165361 12.79115423 -4.375 10.6875 C-4.44460937 9.51574219 -4.51421875 8.34398437 -4.5859375 7.13671875 C-4.78613747 3.84300113 -4.78613747 3.84300113 -7 1 C-3.375 -1.125 -3.375 -1.125 0 0 Z " fill="#000000" transform="translate(118,32)"/>
<path d="M0 0 C4.11574371 0.4748935 7.36383344 1.0210244 11 3 C11.02927632 6.52081558 11.04689119 10.04159939 11.0625 13.5625 C11.07087891 14.55314453 11.07925781 15.54378906 11.08789062 16.56445312 C11.10536914 21.82548699 10.92308398 26.81764665 10 32 C9.67 31.34 9.34 30.68 9 30 C7.02 30.66 5.04 31.32 3 32 C2.90234375 25.84765625 2.90234375 25.84765625 3 24 C3.33 23.67 3.66 23.34 4 23 C5.98 23 7.96 23 10 23 C10 17.72 10 12.44 10 7 C7.1228125 7.0928125 7.1228125 7.0928125 4.1875 7.1875 C3.10855469 7.22230469 2.02960938 7.25710937 0.91796875 7.29296875 C-2.2163444 7.7222154 -2.2163444 7.7222154 -3.88671875 10.55078125 C-4.43779297 11.76314453 -4.43779297 11.76314453 -5 13 C-5.33 12.34 -5.66 11.68 -6 11 C-4.78515625 8.3984375 -4.78515625 8.3984375 -3.0625 5.375 C-2.21365234 3.87066406 -2.21365234 3.87066406 -1.34765625 2.3359375 C-0.90292969 1.56507812 -0.45820313 0.79421875 0 0 Z " fill="#EFA116" transform="translate(260,8)"/>
<path d="M0 0 C0.99386719 0.02707031 1.98773438 0.05414062 3.01171875 0.08203125 C4.15060547 0.13423828 4.15060547 0.13423828 5.3125 0.1875 C4.3225 1.6725 4.3225 1.6725 3.3125 3.1875 C1.31827205 3.55378677 -0.68203311 3.88881344 -2.6875 4.1875 C-3.0175 4.8475 -3.3475 5.5075 -3.6875 6.1875 C-2.718125 6.496875 -1.74875 6.80625 -0.75 7.125 C2.3125 8.1875 2.3125 8.1875 3.3125 9.1875 C3.38476502 11.04037502 3.3963122 12.89583878 3.375 14.75 C3.36597656 15.76191406 3.35695312 16.77382813 3.34765625 17.81640625 C3.33605469 18.59886719 3.32445312 19.38132812 3.3125 20.1875 C1.5 20.8125 1.5 20.8125 -0.6875 21.1875 C-1.6775 20.5275 -2.6675 19.8675 -3.6875 19.1875 C-3.6875 18.5275 -3.6875 17.8675 -3.6875 17.1875 C-3.0275 16.8575 -2.3675 16.5275 -1.6875 16.1875 C-1.6875 14.8675 -1.6875 13.5475 -1.6875 12.1875 C-6.1425 10.2075 -6.1425 10.2075 -10.6875 8.1875 C-8.48997444 1.93300417 -6.83045553 -0.2410749 0 0 Z " fill="#000000" transform="translate(162.6875,31.8125)"/>
<path d="M0 0 C2.31 0 4.62 0 7 0 C7 6.93 7 13.86 7 21 C4.69 21 2.38 21 0 21 C0 14.07 0 7.14 0 0 Z " fill="#FFEC18" transform="translate(290,15)"/>
<path d="M0 0 C4.875 1.75 4.875 1.75 6 4 C6.42484112 9.02893321 6.35785972 13.4316468 4 18 C3.34 17.34 2.68 16.68 2 16 C0.93276039 19.46222615 0.89826514 22.64039266 0.9375 26.25 C0.94652344 27.32765625 0.95554687 28.4053125 0.96484375 29.515625 C0.97644531 30.33546875 0.98804688 31.1553125 1 32 C0.25363281 31.67257813 -0.49273437 31.34515625 -1.26171875 31.0078125 C-4.61960486 29.77195713 -7.45005348 29.86078641 -11 30 C-9.63016497 26.83884224 -9.0109362 26.0072908 -6 24 C-4.68 24 -3.36 24 -2 24 C-0.08873649 15.80424292 1.62432674 8.41696583 0 0 Z " fill="#50C4F7" transform="translate(13,24)"/>
<path d="M0 0 C0.99 0 1.98 0 3 0 C3 3.3 3 6.6 3 10 C4.59070313 9.93039063 6.18140625 9.86078125 7.8203125 9.7890625 C9.92183267 9.73277178 12.02339864 9.67817305 14.125 9.625 C15.17171875 9.57472656 16.2184375 9.52445313 17.296875 9.47265625 C26.0356424 9.30673029 26.0356424 9.30673029 29.6953125 12.5546875 C33.35665204 17.09549929 32.8070001 21.88974705 32.609375 27.47265625 C31.99832978 31.00966798 31.50282377 32.45255354 29 34.9375 C27.515 35.9584375 27.515 35.9584375 26 37 C24.515 36.505 24.515 36.505 23 36 C23.81210938 35.49339844 24.62421875 34.98679688 25.4609375 34.46484375 C28.31550125 32.16630161 28.31550125 32.16630161 28.6640625 28.50390625 C28.65117187 27.20324219 28.63828125 25.90257812 28.625 24.5625 C28.63789063 23.26441406 28.65078125 21.96632813 28.6640625 20.62890625 C28.21962959 16.96074122 28.21962959 16.96074122 26.19921875 14.078125 C21.37821952 10.94653576 16.82293624 11.21848285 11.1875 11.1875 C9.57584961 11.14979492 9.57584961 11.14979492 7.93164062 11.11132812 C5.28815263 11.05258395 2.6440371 11.02339856 0 11 C0 7.37 0 3.74 0 0 Z " fill="#A93D00" transform="translate(184,15)"/>
<path d="M0 0 C3.3 0 6.6 0 10 0 C10.66 2.97 11.32 5.94 12 9 C12.66 9 13.32 9 14 9 C14 6.69 14 4.38 14 2 C13.34 2 12.68 2 12 2 C12 1.34 12 0.68 12 0 C15.875 0.875 15.875 0.875 17 2 C17.23728814 8.52542373 17.23728814 8.52542373 16 11 C14.02 11 12.04 11 10 11 C9.84144531 10.43410156 9.68289062 9.86820313 9.51953125 9.28515625 C8.81418295 7.06779058 8.10846848 5.04806871 7 3 C4.42919865 1.86559222 4.42919865 1.86559222 2 2 C2 2.66 2 3.32 2 4 C4.475 4.99 4.475 4.99 7 6 C6.67 7.65 6.34 9.3 6 11 C2.98968256 11.93423645 2.13349732 12.04449911 -1 11 C-0.67 10.01 -0.34 9.02 0 8 C1.98 8.495 1.98 8.495 4 9 C4 8.34 4 7.68 4 7 C1.525 6.01 1.525 6.01 -1 5 C-0.67 3.35 -0.34 1.7 0 0 Z " fill="#0018AB" transform="translate(70,72)"/>
<path d="M0 0 C2.8125 -0.3125 2.8125 -0.3125 6 0 C7.875 2.5 7.875 2.5 9 5 C10.98 4.34 12.96 3.68 15 3 C13.02 3 11.04 3 9 3 C9.33 2.01 9.66 1.02 10 0 C12.33294775 -0.04241723 14.66702567 -0.04092937 17 0 C18 1 18 1 18.09765625 3.28515625 C18.08605469 4.20167969 18.07445312 5.11820312 18.0625 6.0625 C18.05347656 6.98160156 18.04445312 7.90070313 18.03515625 8.84765625 C18.02355469 9.55792969 18.01195312 10.26820312 18 11 C17.34 11 16.68 11 16 11 C16 9.68 16 8.36 16 7 C14.35 7 12.7 7 11 7 C11 7.66 11 8.32 11 9 C11.66 9 12.32 9 13 9 C12.67 9.99 12.34 10.98 12 12 C9.69 11.67 7.38 11.34 5 11 C4.67 8.36 4.34 5.72 4 3 C2.35 2.67 0.7 2.34 -1 2 C-0.67 1.34 -0.34 0.68 0 0 Z " fill="#0018AB" transform="translate(224,72)"/>
<path d="M0 0 C0.66 0 1.32 0 2 0 C2.33 2.97 2.66 5.94 3 9 C2.67 9 2.34 9 2 9 C1.34 16.26 0.68 23.52 0 31 C-0.33 31 -0.66 31 -1 31 C-1.33 29.02 -1.66 27.04 -2 25 C-2 29.95 -2 34.9 -2 40 C-2.33 40 -2.66 40 -3 40 C-5.67583223 26.20749889 -4.05258288 13.27944569 0 0 Z " fill="#5EC7F3" transform="translate(29,3)"/>
<path d="M0 0 C3.3 0 6.6 0 10 0 C10 6.6 10 13.2 10 20 C8.68 20 7.36 20 6 20 C6 14.39 6 8.78 6 3 C3.36 3.33 0.72 3.66 -2 4 C-1.34 2.68 -0.68 1.36 0 0 Z " fill="#000000" transform="translate(141,32)"/>
<path d="M0 0 C1.66918945 2.23730469 1.66918945 2.23730469 3.11328125 5.171875 C3.63857422 6.22890625 4.16386719 7.2859375 4.70507812 8.375 C5.23552734 9.48875 5.76597656 10.6025 6.3125 11.75 C7.13717773 13.39742187 7.13717773 13.39742187 7.97851562 15.078125 C12.35445061 24.03656084 12.35445061 24.03656084 12 29 C9.16098599 26.51448189 7.7392312 23.82488922 6.08203125 20.45703125 C5.55029297 19.38388672 5.01855469 18.31074219 4.47070312 17.20507812 C3.92349609 16.08552734 3.37628906 14.96597656 2.8125 13.8125 C2.25369141 12.68134766 1.69488281 11.55019531 1.11914062 10.38476562 C-0.25933778 7.59246321 -1.63213656 4.79751362 -3 2 C-6.37531801 2.55022307 -9.69602915 3.11046939 -13 4 C-9.33588659 -0.24265763 -5.39358751 -1.85458233 0 0 Z " fill="#AB3F00" transform="translate(235,7)"/>
<path d="M0 0 C1.1446875 0.3403125 1.1446875 0.3403125 2.3125 0.6875 C2.36672947 2.1245809 2.40539723 3.56225462 2.4375 5 C2.46070313 5.80050781 2.48390625 6.60101563 2.5078125 7.42578125 C2.3125 9.6875 2.3125 9.6875 0.3125 12.6875 C-2.3125 12.875 -2.3125 12.875 -4.6875 12.6875 C-6.39151547 10.08135869 -6.69363718 8.78774068 -6.5 5.625 C-5.35769485 1.49512754 -4.54142018 -0.52807211 0 0 Z " fill="#E3515E" transform="translate(24.6875,42.3125)"/>
<path d="M0 0 C0.99 0.495 0.99 0.495 2 1 C3.09911549 4.29734646 3.1139456 6.72958745 3.09765625 10.19921875 C3.09443359 11.40771484 3.09121094 12.61621094 3.08789062 13.86132812 C3.07951172 15.12396484 3.07113281 16.38660156 3.0625 17.6875 C3.05798828 18.96173828 3.05347656 20.23597656 3.04882812 21.54882812 C3.03702873 24.69926564 3.02056597 27.84960949 3 31 C2.01 31 1.02 31 0 31 C0 20.77 0 10.54 0 0 Z " fill="#A63B00" transform="translate(230,21)"/>
<path d="M0 0 C0.33 0.99 0.66 1.98 1 3 C-0.65 3.33 -2.3 3.66 -4 4 C-4.33 4.99 -4.66 5.98 -5 7 C-3.02 7 -1.04 7 1 7 C1.33 7.66 1.66 8.32 2 9 C1.31292969 9.13277344 0.62585937 9.26554687 -0.08203125 9.40234375 C-1.43361328 9.66724609 -1.43361328 9.66724609 -2.8125 9.9375 C-3.70582031 10.11152344 -4.59914063 10.28554687 -5.51953125 10.46484375 C-8.11397171 10.97741153 -8.11397171 10.97741153 -11 12 C-11.35555556 4.88888889 -11.35555556 4.88888889 -10 1.5 C-6.79687946 -0.9023404 -3.92653359 -0.25747761 0 0 Z " fill="#F5293A" transform="translate(11,55)"/>
<path d="M0 0 C9.57 0 19.14 0 29 0 C29 0.33 29 0.66 29 1 C19.43 1 9.86 1 0 1 C0 0.67 0 0.34 0 0 Z M-3 3 C7.23 3.66 17.46 4.32 28 5 C28 5.33 28 5.66 28 6 C16.86438211 6.77165796 6.12815896 7.17998423 -5 6 C-4.34 5.01 -3.68 4.02 -3 3 Z " fill="#FFB51F" transform="translate(280,8)"/>
<path d="M0 0 C0 4.29 0 8.58 0 13 C-2.31 13.33 -4.62 13.66 -7 14 C-7 9.71 -7 5.42 -7 1 C-1 0 -1 0 0 0 Z " fill="#FFEC18" transform="translate(270,18)"/>
<path d="M0 0 C1.46109063 0.25554054 2.91888096 0.53000372 4.375 0.8125 C5.59316406 1.03873047 5.59316406 1.03873047 6.8359375 1.26953125 C9 2 9 2 11 5 C7.77208445 7.1519437 6.71599191 7.20086443 3 7 C3 7.66 3 8.32 3 9 C-0.94727588 9.17942163 -3.5980513 9.09350689 -7 7 C-7 6.34 -7 5.68 -7 5 C-6.01 5 -5.02 5 -4 5 C-4 4.34 -4 3.68 -4 3 C-3.01 2.67 -2.02 2.34 -1 2 C-0.67 1.34 -0.34 0.68 0 0 Z " fill="#1691DD" transform="translate(30,56)"/>
<path d="M0 0 C0.33 0 0.66 0 1 0 C1 3.3 1 6.6 1 10 C2.65 9.67 4.3 9.34 6 9 C8.67927341 13.01891012 8.15601248 15.24161923 8 20 C7.67 19.34 7.34 18.68 7 18 C3.06924356 18.57452746 3.06924356 18.57452746 0 21 C0 14.07 0 7.14 0 0 Z " fill="#FACC11" transform="translate(222,18)"/>
<path d="M0 0 C0.33 0 0.66 0 1 0 C1.33 2.31 1.66 4.62 2 7 C2.66 4.69 3.32 2.38 4 0 C4.66 0.33 5.32 0.66 6 1 C6 3.31 6 5.62 6 8 C5.34 8 4.68 8 4 8 C4 12.95 4 17.9 4 23 C3.01 23.33 2.02 23.66 1 24 C-0.12513633 15.98340366 -0.09579384 8.07861415 0 0 Z " fill="#1FABF6" transform="translate(26,21)"/>
<path d="M0 0 C0.83637497 0.00565979 1.67274994 0.01131958 2.5344696 0.01715088 C5.19414586 0.03946232 7.8524528 0.08964712 10.51171875 0.140625 C12.31964194 0.16069685 14.12758634 0.17894642 15.93554688 0.1953125 C20.35729486 0.23930973 24.778025 0.30829954 29.19921875 0.390625 C28.26960453 1.54286528 27.33020625 2.68721676 26.38671875 3.828125 C25.86464844 4.46621094 25.34257812 5.10429687 24.8046875 5.76171875 C23.19921875 7.390625 23.19921875 7.390625 20.19921875 8.390625 C21.3509523 5.92262453 22.2470544 4.34278935 24.19921875 2.390625 C13.63921875 2.060625 3.07921875 1.730625 -7.80078125 1.390625 C-8.46078125 2.710625 -9.12078125 4.030625 -9.80078125 5.390625 C-12.42578125 6.640625 -12.42578125 6.640625 -14.80078125 7.390625 C-12.33470126 -0.00761496 -6.7637152 -0.17337763 0 0 Z " fill="#C15900" transform="translate(190.80078125,6.609375)"/>
<path d="M0 0 C3.5 0.25 3.5 0.25 5.5 2.25 C5.6953125 4.4140625 5.6953125 4.4140625 5.625 6.875 C5.60695312 7.69226563 5.58890625 8.50953125 5.5703125 9.3515625 C5.53550781 10.29128906 5.53550781 10.29128906 5.5 11.25 C4.84 11.25 4.18 11.25 3.5 11.25 C3.17 8.94 2.84 6.63 2.5 4.25 C1.18 3.92 -0.14 3.59 -1.5 3.25 C-1.83 5.23 -2.16 7.21 -2.5 9.25 C-1.84 9.25 -1.18 9.25 -0.5 9.25 C-0.83 10.24 -1.16 11.23 -1.5 12.25 C-2.82 11.59 -4.14 10.93 -5.5 10.25 C-5.6953125 4.1953125 -5.6953125 4.1953125 -5.5 2.25 C-3.5 0.25 -3.5 0.25 0 0 Z " fill="#0018AB" transform="translate(150.5,71.75)"/>
<path d="M0 0 C0.99 0 1.98 0 3 0 C3 0.99 3 1.98 3 3 C3.61875 2.505 4.2375 2.01 4.875 1.5 C7 0 7 0 9 0 C8.79375 0.70125 8.5875 1.4025 8.375 2.125 C7.92149643 5.60186072 8.72459723 7.77398123 10 11 C9.01 11 8.02 11 7 11 C5.3125 8.5 5.3125 8.5 4 6 C3.67 7.65 3.34 9.3 3 11 C2.01 11 1.02 11 0 11 C0 7.37 0 3.74 0 0 Z " fill="#0018AB" transform="translate(125,72)"/>
<path d="M0 0 C1.9375 0.8125 1.9375 0.8125 4 2 C5.35585658 6.06756975 5.52129242 9.74774325 5 14 C3.4375 17.0625 3.4375 17.0625 1 19 C-2.75 19.3125 -2.75 19.3125 -6 19 C-5.401875 18.566875 -4.80375 18.13375 -4.1875 17.6875 C-3.465625 17.130625 -2.74375 16.57375 -2 16 C-1.401875 15.566875 -0.80375 15.13375 -0.1875 14.6875 C1.30659045 12.94927058 1.30659045 12.94927058 0.75 10.125 C0.5025 9.09375 0.255 8.0625 0 7 C-1.09375 2.1875 -1.09375 2.1875 0 0 Z " fill="#4ABAF4" transform="translate(39,39)"/>
<path d="M0 0 C6.93359375 -0.09765625 6.93359375 -0.09765625 9 0 C10 1 10 1 10.09765625 3.28515625 C10.08605469 4.20167969 10.07445312 5.11820312 10.0625 6.0625 C10.05347656 6.98160156 10.04445312 7.90070313 10.03515625 8.84765625 C10.02355469 9.55792969 10.01195312 10.26820312 10 11 C9.34 11 8.68 11 8 11 C7.67 8.03 7.34 5.06 7 2 C6.01 2.66 5.02 3.32 4 4 C3.26393501 7.56769552 3.26393501 7.56769552 3 11 C2.01 11 1.02 11 0 11 C0 7.37 0 3.74 0 0 Z " fill="#0018AB" transform="translate(201,72)"/>
<path d="M0 0 C1.32 0.33 2.64 0.66 4 1 C4 2.65 4 4.3 4 6 C5.32 5.67 6.64 5.34 8 5 C7.8125 7.875 7.8125 7.875 7 11 C4.4375 12.375 4.4375 12.375 2 13 C-0.20914 9.68629 -0.22481553 8.6553979 -0.125 4.8125 C-0.10695312 3.91144531 -0.08890625 3.01039062 -0.0703125 2.08203125 C-0.04710937 1.39496094 -0.02390625 0.70789062 0 0 Z " fill="#E95562" transform="translate(33,43)"/>
<path d="M0 0 C1.32 0 2.64 0 4 0 C4 0.66 4 1.32 4 2 C3.01 2.495 3.01 2.495 2 3 C2.66 3.33 3.32 3.66 4 4 C4 4.66 4 5.32 4 6 C3.34 6.66 2.68 7.32 2 8 C3.32 8.33 4.64 8.66 6 9 C6 6.03 6 3.06 6 0 C6.66 0 7.32 0 8 0 C8 3.63 8 7.26 8 11 C1.84765625 11.09765625 1.84765625 11.09765625 0 11 C-1 10 -1 10 -1.1328125 7.96875 C-1.13023437 7.1540625 -1.12765625 6.339375 -1.125 5.5 C-1.12757813 4.6853125 -1.13015625 3.870625 -1.1328125 3.03125 C-1 1 -1 1 0 0 Z " fill="#0018AB" transform="translate(245,72)"/>
<path d="M0 0 C1.32 0 2.64 0 4 0 C4 0.66 4 1.32 4 2 C3.01 2.495 3.01 2.495 2 3 C2.66 3.33 3.32 3.66 4 4 C4 4.66 4 5.32 4 6 C3.34 6.66 2.68 7.32 2 8 C3.32 8.33 4.64 8.66 6 9 C6 6.03 6 3.06 6 0 C6.66 0 7.32 0 8 0 C8 3.63 8 7.26 8 11 C1.84765625 11.09765625 1.84765625 11.09765625 0 11 C-1 10 -1 10 -1.1328125 7.96875 C-1.13023437 7.1540625 -1.12765625 6.339375 -1.125 5.5 C-1.12757813 4.6853125 -1.13015625 3.870625 -1.1328125 3.03125 C-1 1 -1 1 0 0 Z " fill="#0018AB" transform="translate(214,72)"/>
<path d="M0 0 C0.99 0 1.98 0 3 0 C3 2.97 3 5.94 3 9 C3.99 8.67 4.98 8.34 6 8 C6.80212628 6.12612784 6.80212628 6.12612784 7.1875 3.9375 C7.34605469 3.20402344 7.50460938 2.47054687 7.66796875 1.71484375 C7.77753906 1.14894531 7.88710937 0.58304687 8 0 C8.66 0 9.32 0 10 0 C10 3.63 10 7.26 10 11 C3.06640625 11.09765625 3.06640625 11.09765625 1 11 C0 10 0 10 -0.09765625 7.71484375 C-0.08605469 6.79832031 -0.07445313 5.88179688 -0.0625 4.9375 C-0.05347656 4.01839844 -0.04445313 3.09929687 -0.03515625 2.15234375 C-0.02355469 1.44207031 -0.01195313 0.73179688 0 0 Z " fill="#0018AB" transform="translate(113,72)"/>
<path d="M0 0 C1.32 0 2.64 0 4 0 C4 0.66 4 1.32 4 2 C3.01 2.495 3.01 2.495 2 3 C2.66 3.33 3.32 3.66 4 4 C4 4.66 4 5.32 4 6 C3.34 6.66 2.68 7.32 2 8 C3.32 8.33 4.64 8.66 6 9 C6 6.03 6 3.06 6 0 C6.66 0 7.32 0 8 0 C8 3.63 8 7.26 8 11 C1.84765625 11.09765625 1.84765625 11.09765625 0 11 C-1 10 -1 10 -1.1328125 7.96875 C-1.13023438 7.1540625 -1.12765625 6.339375 -1.125 5.5 C-1.12757812 4.6853125 -1.13015625 3.870625 -1.1328125 3.03125 C-1 1 -1 1 0 0 Z " fill="#0018AB" transform="translate(103,72)"/>
<path d="M0 0 C1.49609375 1.19140625 1.49609375 1.19140625 3 3 C3.22265625 5.33984375 3.22265625 5.33984375 3.0625 7.9375 C2.84967791 11.55547546 2.85167986 13.97871168 5 17 C8.56206661 17.81870185 8.56206661 17.81870185 12 18 C11.67 18.66 11.34 19.32 11 20 C3.57142857 19 3.57142857 19 0 18 C-1.67407948 12.14072182 -1.52003714 5.89014391 0 0 Z " fill="#36B5F6" transform="translate(14,39)"/>
<path d="M0 0 C0.66 0 1.32 0 2 0 C2 0.66 2 1.32 2 2 C2.99 2 3.98 2 5 2 C5.66 3.98 6.32 5.96 7 8 C6.01 8 5.02 8 4 8 C3.67 7.01 3.34 6.02 3 5 C2.9175 5.78375 2.835 6.5675 2.75 7.375 C2 10 2 10 0.125 11.3125 C-2 12 -2 12 -5 12 C-4.855625 11.443125 -4.71125 10.88625 -4.5625 10.3125 C-3.97230872 7.88615805 -3.476571 5.45093655 -3 3 C-2.01 2.67 -1.02 2.34 0 2 C0 1.34 0 0.68 0 0 Z " fill="#49B9F1" transform="translate(28,76)"/>
<path d="M0 0 C2 1.1875 2 1.1875 4 3 C4.25 5.6875 4.25 5.6875 4 8 C1.69 8 -0.62 8 -3 8 C-3 6.68 -3 5.36 -3 4 C-9.93 4 -16.86 4 -24 4 C-24 3.67 -24 3.34 -24 3 C-23.41508789 2.98018066 -22.83017578 2.96036133 -22.22753906 2.93994141 C-19.56791975 2.84446519 -16.90906162 2.73487858 -14.25 2.625 C-13.32960937 2.5940625 -12.40921875 2.563125 -11.4609375 2.53125 C-10.57148438 2.49257813 -9.68203125 2.45390625 -8.765625 2.4140625 C-7.94868164 2.3826416 -7.13173828 2.3512207 -6.29003906 2.31884766 C-3.83167042 1.97656307 -2.14240001 1.2260723 0 0 Z " fill="#EEAB0B" transform="translate(209,29)"/>
<path d="M0 0 C0.66 0 1.32 0 2 0 C2 0.99 2 1.98 2 3 C2.99 2.67 3.98 2.34 5 2 C5.33 1.34 5.66 0.68 6 0 C6.99 0 7.98 0 9 0 C8.79375 0.886875 8.5875 1.77375 8.375 2.6875 C7.97449761 6.2252711 8.43316484 7.86632967 10 11 C7.11424181 10.60196439 6.17810487 10.20990931 4.25 7.9375 C3.8375 7.298125 3.425 6.65875 3 6 C2.67 7.65 2.34 9.3 2 11 C1.34 11 0.68 11 0 11 C0 7.37 0 3.74 0 0 Z " fill="#0018AB" transform="translate(163,72)"/>
<path d="M0 0 C0.33 0 0.66 0 1 0 C0.52460869 6.3702436 -1.74186391 11.25735229 -4.5625 16.9375 C-4.98724609 17.81212891 -5.41199219 18.68675781 -5.84960938 19.58789062 C-6.891213 21.72961493 -7.9414422 23.86661853 -9 26 C-9.99 25.67 -10.98 25.34 -12 25 C-8.04 16.75 -4.08 8.5 0 0 Z " fill="#A13300" transform="translate(262,20)"/>
<path d="M0 0 C-0.66 3.63 -1.32 7.26 -2 11 C-2.33 11 -2.66 11 -3 11 C-3.33 9.35 -3.66 7.7 -4 6 C-5.96822886 7.96822886 -5.66248381 11.34808709 -6 14 C-6.66 13.67 -7.32 13.34 -8 13 C-8.66 14.32 -9.32 15.64 -10 17 C-10.62653784 8.03702815 -10.62653784 8.03702815 -8.1875 4 C-3.8125 0 -3.8125 0 0 0 Z " fill="#55C3F4" transform="translate(47,24)"/>
<path d="M0 0 C1.4540625 0.0309375 1.4540625 0.0309375 2.9375 0.0625 C2.6075 1.0525 2.2775 2.0425 1.9375 3.0625 C0.9475 3.0625 -0.0425 3.0625 -1.0625 3.0625 C0.5875 4.0525 2.2375 5.0425 3.9375 6.0625 C3.6075 7.7125 3.2775 9.3625 2.9375 11.0625 C-0.07281744 11.99673645 -0.92900268 12.10699911 -4.0625 11.0625 C-3.7325 10.0725 -3.4025 9.0825 -3.0625 8.0625 C-1.7425 8.3925 -0.4225 8.7225 0.9375 9.0625 C0.9375 8.4025 0.9375 7.7425 0.9375 7.0625 C-1.5375 6.0725 -1.5375 6.0725 -4.0625 5.0625 C-4.0625 0.08290816 -4.0625 0.08290816 0 0 Z " fill="#0018AB" transform="translate(97.0625,71.9375)"/>
<path d="M0 0 C1.4540625 0.0309375 1.4540625 0.0309375 2.9375 0.0625 C2.9375 0.7225 2.9375 1.3825 2.9375 2.0625 C1.9475 2.3925 0.9575 2.7225 -0.0625 3.0625 C0.2675 3.3925 0.5975 3.7225 0.9375 4.0625 C1.01008946 6.24889453 1.02123783 8.43750389 1 10.625 C0.99097656 11.82253906 0.98195313 13.02007812 0.97265625 14.25390625 C0.96105469 15.18074219 0.94945313 16.10757813 0.9375 17.0625 C-0.0525 17.0625 -1.0425 17.0625 -2.0625 17.0625 C-2.12308594 16.24265625 -2.18367188 15.4228125 -2.24609375 14.578125 C-2.32988281 13.50046875 -2.41367187 12.4228125 -2.5 11.3125 C-2.58121094 10.24515625 -2.66242187 9.1778125 -2.74609375 8.078125 C-2.97864459 5.15357621 -2.97864459 5.15357621 -3.66015625 2.734375 C-3.79292969 2.18265625 -3.92570312 1.6309375 -4.0625 1.0625 C-3.0625 0.0625 -3.0625 0.0625 0 0 Z " fill="#0018AB" transform="translate(66.0625,65.9375)"/>
<path d="M0 0 C2.83374881 3.20336822 3.5205537 5.78087253 4 10 C1.69 10 -0.62 10 -3 10 C-3.99 8.02 -4.98 6.04 -6 4 C-4.7934375 3.566875 -4.7934375 3.566875 -3.5625 3.125 C-0.8673532 2.26737432 -0.8673532 2.26737432 0 0 Z " fill="#FDAC08" transform="translate(241,27)"/>
<path d="M0 0 C0.66 0 1.32 0 2 0 C2.33 3.3 2.66 6.6 3 10 C2.319375 9.67 1.63875 9.34 0.9375 9 C-2.50840238 7.82692685 -5.38397422 7.85819507 -9 8 C-7.63016497 4.83884224 -7.0109362 4.0072908 -4 2 C-2.68 2 -1.36 2 0 2 C0 1.34 0 0.68 0 0 Z " fill="#EF2134" transform="translate(11,46)"/>
<path d="M0 0 C0.99 0 1.98 0 3 0 C2.01 2.97 1.02 5.94 0 9 C1.32 8.67 2.64 8.34 4 8 C4.66 8.33 5.32 8.66 6 9 C5.67 9.99 5.34 10.98 5 12 C1.28400809 12.20086443 0.22791555 12.1519437 -3 10 C-3.9375 8.25 -3.9375 8.25 -4 6 C-2.25 2.75 -2.25 2.75 0 0 Z " fill="#F82E3A" transform="translate(42,59)"/>
<path d="M0 0 C1.4540625 0.0309375 1.4540625 0.0309375 2.9375 0.0625 C2.9375 3.0325 2.9375 6.0025 2.9375 9.0625 C2.6075 8.4025 2.2775 7.7425 1.9375 7.0625 C-0.0425 7.7225 -2.0225 8.3825 -4.0625 9.0625 C-4.16015625 2.91015625 -4.16015625 2.91015625 -4.0625 1.0625 C-3.0625 0.0625 -3.0625 0.0625 0 0 Z " fill="#FFB70B" transform="translate(267.0625,30.9375)"/>
<path d="M0 0 C0.99 0 1.98 0 3 0 C3 3.3 3 6.6 3 10 C9.6 10 16.2 10 23 10 C23 10.33 23 10.66 23 11 C15.41 11 7.82 11 0 11 C0 7.37 0 3.74 0 0 Z " fill="#B04700" transform="translate(184,15)"/>
<path d="M0 0 C0.103125 0.61875 0.20625 1.2375 0.3125 1.875 C0.87525373 4.36526484 0.87525373 4.36526484 4 6 C2.35 6 0.7 6 -1 6 C-1 6.66 -1 7.32 -1 8 C0.98 8 2.96 8 5 8 C4.39816251 10.02045442 3.72693904 12.02111039 3 14 C2.01 14.495 2.01 14.495 1 15 C-1.125 13.5625 -1.125 13.5625 -3 11 C-2.74575975 7.1314254 -1.73220686 3.46441372 0 0 Z " fill="#F0A609" transform="translate(251,25)"/>
<path d="M0 0 C0.99 0.33 1.98 0.66 3 1 C3 1.66 3 2.32 3 3 C2.01 3.66 1.02 4.32 0 5 C0 6.32 0 7.64 0 9 C-4.75 8.125 -4.75 8.125 -7 7 C-7.625 4.9375 -7.625 4.9375 -8 3 C-7.05125 2.690625 -6.1025 2.38125 -5.125 2.0625 C-2.13919592 1.12605258 -2.13919592 1.12605258 0 0 Z " fill="#F61124" transform="translate(18,69)"/>
<path d="M0 0 C2.31 0 4.62 0 7 0 C7.33 0.99 7.66 1.98 8 3 C7.01 4.485 7.01 4.485 6 6 C5.54227937 8.73872955 5.54227937 8.73872955 5.375 11.6875 C5.30023438 12.68136719 5.22546875 13.67523438 5.1484375 14.69921875 C5.09945312 15.45847656 5.05046875 16.21773437 5 17 C4.34 17 3.68 17 3 17 C2.97314062 14.85423363 2.95366912 12.70837355 2.9375 10.5625 C2.92589844 9.36753906 2.91429687 8.17257813 2.90234375 6.94140625 C3 4 3 4 4 3 C2.68 2.34 1.36 1.68 0 1 C0 0.67 0 0.34 0 0 Z " fill="#0018AB" transform="translate(155,66)"/>
<path d="M0 0 C0.66 0.33 1.32 0.66 2 1 C2 1.66 2 2.32 2 3 C2.66 3 3.32 3 4 3 C4.33 4.32 4.66 5.64 5 7 C0.99799622 8.60080151 -2.04556236 7.29279692 -6 6 C-5.67 4.68 -5.34 3.36 -5 2 C-3.35 2 -1.7 2 0 2 C0 1.34 0 0.68 0 0 Z " fill="#FA9DA6" transform="translate(12,56)"/>
<path d="M0 0 C1.98 0.99 3.96 1.98 6 3 C5.67 4.65 5.34 6.3 5 8 C3.02 8.33 1.04 8.66 -1 9 C-0.67 6.03 -0.34 3.06 0 0 Z " fill="#F9081D" transform="translate(47,46)"/>
<path d="M0 0 C2 2 2 2 2.1171875 3.98828125 C1.59210268 9.02740175 1.03157759 12.52836374 -3 16 C-5.75 16.3125 -5.75 16.3125 -8 16 C-7.59007812 15.59910156 -7.18015625 15.19820312 -6.7578125 14.78515625 C-2.38421215 10.17090324 -0.82479927 6.27131862 0 0 Z " fill="#2170B4" transform="translate(45,44)"/>
<path d="M0 0 C0.33 0 0.66 0 1 0 C1.02687279 1.81242052 1.04633715 3.62495233 1.0625 5.4375 C1.07410156 6.44683594 1.08570313 7.45617188 1.09765625 8.49609375 C1 11 1 11 0 12 C-1.66617115 12.04063832 -3.33388095 12.042721 -5 12 C-4.649375 11.4225 -4.29875 10.845 -3.9375 10.25 C-2.85082593 7.64198224 -3.06934867 6.60582371 -4 4 C-3.01 3.67 -2.02 3.34 -1 3 C-0.67 2.01 -0.34 1.02 0 0 Z " fill="#FA071C" transform="translate(57,53)"/>
<path d="M0 0 C0.33 0.66 0.66 1.32 1 2 C3.31 2 5.62 2 8 2 C8.33 2.66 8.66 3.32 9 4 C8.31292969 4.13277344 7.62585937 4.26554687 6.91796875 4.40234375 C5.56638672 4.66724609 5.56638672 4.66724609 4.1875 4.9375 C2.84751953 5.19853516 2.84751953 5.19853516 1.48046875 5.46484375 C-1.11397171 5.97741153 -1.11397171 5.97741153 -4 7 C-4 5.35 -4 3.7 -4 2 C-2.68 1.34 -1.36 0.68 0 0 Z " fill="#F50C1F" transform="translate(4,60)"/>
<path d="M0 0 C0.66 0.33 1.32 0.66 2 1 C1.34 2.32 0.68 3.64 0 5 C-0.66 5 -1.32 5 -2 5 C-1.95875 6.11375 -1.9175 7.2275 -1.875 8.375 C-2 12 -2 12 -4 14 C-4.99 14 -5.98 14 -7 14 C-6.690625 13.484375 -6.38125 12.96875 -6.0625 12.4375 C-4.70940713 9.33334577 -4.38640576 6.34884993 -4 3 C-3.01 3 -2.02 3 -1 3 C-0.67 2.01 -0.34 1.02 0 0 Z " fill="#49A6E1" transform="translate(35,84)"/>
<path d="M0 0 C1.66611905 -0.042721 3.33382885 -0.04063832 5 0 C6 1 6 1 6.09765625 3.06640625 C6.08605469 3.89011719 6.07445312 4.71382812 6.0625 5.5625 C6.05347656 6.38878906 6.04445312 7.21507812 6.03515625 8.06640625 C6.01775391 9.02353516 6.01775391 9.02353516 6 10 C5.67 10 5.34 10 5 10 C5 8.35 5 6.7 5 5 C3.02 5 1.04 5 -1 5 C-0.67 3.35 -0.34 1.7 0 0 Z " fill="#FF8701" transform="translate(207,36)"/>
<path d="M0 0 C0.99 0.495 0.99 0.495 2 1 C3.99960012 1.039992 6.00047242 1.04346799 8 1 C8 2.98 8 4.96 8 7 C7.67 6.34 7.34 5.68 7 5 C3.06924356 5.57452746 3.06924356 5.57452746 0 8 C0 5.36 0 2.72 0 0 Z " fill="#FBAC08" transform="translate(222,31)"/>
<path d="M0 0 C3.3 0.99 6.6 1.98 10 3 C9.67 4.32 9.34 5.64 9 7 C7.35 7.33 5.7 7.66 4 8 C4.33 6.68 4.66 5.36 5 4 C3.02 4 1.04 4 -1 4 C-0.67 2.68 -0.34 1.36 0 0 Z " fill="#FB0E1E" transform="translate(43,64)"/>
<path d="M0 0 C3.96 0 7.92 0 12 0 C12.33 0.99 12.66 1.98 13 3 C8.71 3 4.42 3 0 3 C0 2.01 0 1.02 0 0 Z " fill="#FDC51B" transform="translate(223,14)"/>
<path d="M0 0 C0.33 0 0.66 0 1 0 C2.45184478 4.53701494 3.23509196 8.18061476 3 13 C2.34 12.01 1.68 11.02 1 10 C0.01 11.485 0.01 11.485 -1 13 C-3.13586678 9.79619983 -3.23132175 8.98060033 -3.125 5.3125 C-3.10695312 4.50425781 -3.08890625 3.69601563 -3.0703125 2.86328125 C-3.04710937 2.24839844 -3.02390625 1.63351563 -3 1 C-2.67 1 -2.34 1 -2 1 C-1.67 2.65 -1.34 4.3 -1 6 C-0.67 4.02 -0.34 2.04 0 0 Z " fill="#149BEF" transform="translate(41,31)"/>
<path d="M0 0 C1.99954746 -0.04254356 4.00041636 -0.04080783 6 0 C7 1 7 1 7.09765625 3.28515625 C7.08605469 4.20167969 7.07445312 5.11820312 7.0625 6.0625 C7.05347656 6.98160156 7.04445312 7.90070313 7.03515625 8.84765625 C7.02355469 9.55792969 7.01195312 10.26820312 7 11 C6.34 11 5.68 11 5 11 C4.67 8.36 4.34 5.72 4 3 C2.35 3 0.7 3 -1 3 C-0.67 2.01 -0.34 1.02 0 0 Z " fill="#0018AB" transform="translate(137,72)"/>
<path d="M0 0 C1.51400391 0.01740234 1.51400391 0.01740234 3.05859375 0.03515625 C4.07050781 0.04417969 5.08242188 0.05320313 6.125 0.0625 C7.29869141 0.07990234 7.29869141 0.07990234 8.49609375 0.09765625 C7.83609375 0.75765625 7.17609375 1.41765625 6.49609375 2.09765625 C5.85357025 4.16639659 5.85357025 4.16639659 5.49609375 6.09765625 C3.84609375 6.09765625 2.19609375 6.09765625 0.49609375 6.09765625 C0.49609375 5.10765625 0.49609375 4.11765625 0.49609375 3.09765625 C-0.82390625 2.43765625 -2.14390625 1.77765625 -3.50390625 1.09765625 C-2.50390625 0.09765625 -2.50390625 0.09765625 0 0 Z " fill="#F3969B" transform="translate(47.50390625,54.90234375)"/>
<path d="M0 0 C0.99 0 1.98 0 3 0 C3 3.63 3 7.26 3 11 C2.01 11 1.02 11 0 11 C0 7.37 0 3.74 0 0 Z " fill="#0018AB" transform="translate(88,72)"/>
<path d="M0 0 C1.46109063 0.25554054 2.91888096 0.53000372 4.375 0.8125 C5.59316406 1.03873047 5.59316406 1.03873047 6.8359375 1.26953125 C9 2 9 2 11 5 C9.02 5.99 9.02 5.99 7 7 C7 6.34 7 5.68 7 5 C5.02 5.33 3.04 5.66 1 6 C0.67 4.02 0.34 2.04 0 0 Z " fill="#1D9DE3" transform="translate(30,56)"/>
<path d="M0 0 C0 2.64 0 5.28 0 8 C-0.99 7.67 -1.98 7.34 -3 7 C-3.71727778 5.35448038 -4.38325228 3.68577711 -5 2 C-5.66 1.34 -6.32 0.68 -7 0 C-4.3333581 -1.33332095 -2.83319697 -0.67102033 0 0 Z " fill="#F41629" transform="translate(27,43)"/>
<path d="M0 0 C2.64 0 5.28 0 8 0 C7.67 0.99 7.34 1.98 7 3 C5.02 3 3.04 3 1 3 C1 6.3 1 9.6 1 13 C0.67 13 0.34 13 0 13 C0 8.71 0 4.42 0 0 Z " fill="#F8C51A" transform="translate(176,14)"/>
<path d="M0 0 C0.66 0.99 1.32 1.98 2 3 C2.99 3.66 3.98 4.32 5 5 C4.34 5 3.68 5 3 5 C3 5.66 3 6.32 3 7 C1.35 7 -0.3 7 -2 7 C-2.33 5.35 -2.66 3.7 -3 2 C-2.01 1.34 -1.02 0.68 0 0 Z " fill="#F3081A" transform="translate(25,71)"/>
<path d="M0 0 C1.73662334 3.22515763 2.8905928 6.51329166 4 10 C5.65 10.33 7.3 10.66 9 11 C9 11.66 9 12.32 9 13 C6.1875 13.3125 6.1875 13.3125 3 13 C0.24386182 10.06011927 -0.16677466 7.57695599 -0.1875 3.6875 C-0.125625 2.470625 -0.06375 1.25375 0 0 Z " fill="#1993E3" transform="translate(16,44)"/>
<path d="M0 0 C1 2 1 2 1 5 C1.66 5.66 2.32 6.32 3 7 C1.7625 7.144375 0.525 7.28875 -0.75 7.4375 C-3.56504499 7.78688502 -6.2701497 8.20379366 -9 9 C-9.33 8.01 -9.66 7.02 -10 6 C-7.69 6 -5.38 6 -3 6 C-2.690625 5.195625 -2.38125 4.39125 -2.0625 3.5625 C-1 1 -1 1 0 0 Z " fill="#F48E04" transform="translate(248,31)"/>
<path d="M0 0 C2.4375 0.375 2.4375 0.375 5 1 C5.33 1.66 5.66 2.32 6 3 C5.67 3.99 5.34 4.98 5 6 C2.69 6 0.38 6 -2 6 C-1.34 4.02 -0.68 2.04 0 0 Z " fill="#FDCA0F" transform="translate(252,27)"/>
<path d="M0 0 C1.65 0 3.3 0 5 0 C4.25675659 2.39489543 3.52942646 3.70777616 1.30859375 4.93359375 C-0.44073501 5.67219923 -2.21934149 6.34049685 -4 7 C-4.33 6.01 -4.66 5.02 -5 4 C-3.68 4 -2.36 4 -1 4 C-0.67 2.68 -0.34 1.36 0 0 Z " fill="#D93840" transform="translate(53,67)"/>
<path d="M0 0 C1.98 0 3.96 0 6 0 C6 1.65 6 3.3 6 5 C3.69 5 1.38 5 -1 5 C-0.67 3.35 -0.34 1.7 0 0 Z " fill="#FFB70B" transform="translate(291,31)"/>
<path d="M0 0 C3 2 3 2 3.58203125 4.0234375 C3.65808594 4.79945312 3.73414063 5.57546875 3.8125 6.375 C3.90144531 7.14585938 3.99039062 7.91671875 4.08203125 8.7109375 C3.9893116 11.29825726 3.3060765 12.79126831 2 15 C1.67 15 1.34 15 1 15 C1.01160156 14.16855469 1.02320312 13.33710937 1.03515625 12.48046875 C1.04417969 11.39378906 1.05320312 10.30710937 1.0625 9.1875 C1.07410156 8.10855469 1.08570312 7.02960937 1.09765625 5.91796875 C1.13624766 2.93487831 1.13624766 2.93487831 0 0 Z " fill="#5EB7E0" transform="translate(19,28)"/>
<path d="M0 0 C2.31 0 4.62 0 7 0 C6.67 1.32 6.34 2.64 6 4 C4.02 4 2.04 4 0 4 C0 2.68 0 1.36 0 0 Z " fill="#FFD41C" transform="translate(290,15)"/>
<path d="M0 0 C0.66 0 1.32 0 2 0 C2 0.66 2 1.32 2 2 C3.65 2 5.3 2 7 2 C6.67 3.65 6.34 5.3 6 7 C5.34 7 4.68 7 4 7 C4 6.01 4 5.02 4 4 C3.34 4 2.68 4 2 4 C1.67 4.66 1.34 5.32 1 6 C1 5.34 1 4.68 1 4 C0.34 4 -0.32 4 -1 4 C-0.67 2.68 -0.34 1.36 0 0 Z " fill="#ED3841" transform="translate(31,67)"/>
<path d="M0 0 C1.65 0 3.3 0 5 0 C5.33 1.65 5.66 3.3 6 5 C5.67 4.34 5.34 3.68 5 3 C3.02 3.66 1.04 4.32 -1 5 C-0.67 3.35 -0.34 1.7 0 0 Z " fill="#FF9905" transform="translate(291,35)"/>
<path d="M0 0 C1.65 0 3.3 0 5 0 C5.33 1.65 5.66 3.3 6 5 C5.67 4.34 5.34 3.68 5 3 C3.02 3.66 1.04 4.32 -1 5 C-0.67 3.35 -0.34 1.7 0 0 Z " fill="#FF9905" transform="translate(264,35)"/>
<path d="M0 0 C1.9375 0.6875 1.9375 0.6875 4 2 C4.75 4.625 4.75 4.625 5 7 C4.34 7 3.68 7 3 7 C3 7.66 3 8.32 3 9 C2.01 9 1.02 9 0 9 C0 7.35 0 5.7 0 4 C0.33 4.66 0.66 5.32 1 6 C1.33 4.68 1.66 3.36 2 2 C1.34 2 0.68 2 0 2 C0 1.34 0 0.68 0 0 Z " fill="#EC2636" transform="translate(14,57)"/>
<path d="M0 0 C1.32 0 2.64 0 4 0 C4.33 0.66 4.66 1.32 5 2 C7.32156597 2.40729228 9.6568787 2.74438677 12 3 C11.67 3.66 11.34 4.32 11 5 C3.57142857 4 3.57142857 4 0 3 C0 2.01 0 1.02 0 0 Z " fill="#44BDF6" transform="translate(14,54)"/>
<path d="M0 0 C1.32 0.66 2.64 1.32 4 2 C3.67 3.65 3.34 5.3 3 7 C2.34 7 1.68 7 1 7 C-1 4 -1 4 -0.625 1.8125 C-0.41875 1.214375 -0.2125 0.61625 0 0 Z " fill="#F7E8E9" transform="translate(20,44)"/>
<path d="M0 0 C1.65 0.33 3.3 0.66 5 1 C5.33 1.99 5.66 2.98 6 4 C3.69 4.33 1.38 4.66 -1 5 C-0.67 3.35 -0.34 1.7 0 0 Z " fill="#FFD411" transform="translate(291,27)"/>
<path d="M0 0 C1.65 0.33 3.3 0.66 5 1 C5.33 1.99 5.66 2.98 6 4 C3.69 4.33 1.38 4.66 -1 5 C-0.67 3.35 -0.34 1.7 0 0 Z " fill="#FFD411" transform="translate(264,27)"/>
<path d="M0 0 C0.33 0 0.66 0 1 0 C0.07692308 8 0.07692308 8 -2 11 C-2.99 11.33 -3.98 11.66 -5 12 C-3.68938409 7.76570244 -2.05643741 3.92592596 0 0 Z " fill="#AD4B03" transform="translate(262,20)"/>
<path d="M0 0 C2.475 0.99 2.475 0.99 5 2 C5 5.51716303 4.17554415 6.37121748 2 9 C1.34 6.03 0.68 3.06 0 0 Z " fill="#65C5EA" transform="translate(13,24)"/>
<path d="M0 0 C0.804375 0.4640625 0.804375 0.4640625 1.625 0.9375 C4.3984957 2.17827439 7.00042837 2.5909675 10 3 C10 3.66 10 4.32 10 5 C9.01 5 8.02 5 7 5 C6.67 5.66 6.34 6.32 6 7 C3.95880212 5.38405168 1.95927063 3.7143618 0 2 C0 1.34 0 0.68 0 0 Z " fill="#21ABEF" transform="translate(16,56)"/>
<path d="M0 0 C0.33 0 0.66 0 1 0 C1.33 2.64 1.66 5.28 2 8 C4.31 8.66 6.62 9.32 9 10 C9 10.33 9 10.66 9 11 C5.625 11.625 5.625 11.625 2 12 C0 10 0 10 -0.1953125 7.6171875 C-0.17210938 6.71226563 -0.14890625 5.80734375 -0.125 4.875 C-0.10695313 3.96492188 -0.08890625 3.05484375 -0.0703125 2.1171875 C-0.04710938 1.41851562 -0.02390625 0.71984375 0 0 Z " fill="#22AEF8" transform="translate(30,46)"/>
<path d="M0 0 C0.66 0 1.32 0 2 0 C2.33 2.97 2.66 5.94 3 9 C1.68 8.67 0.36 8.34 -1 8 C-1.125 2.25 -1.125 2.25 0 0 Z " fill="#7DD2EA" transform="translate(29,3)"/>
<path d="M0 0 C1.32 0.33 2.64 0.66 4 1 C4 2.65 4 4.3 4 6 C2.68 6 1.36 6 0 6 C0 4.02 0 2.04 0 0 Z " fill="#FD0519" transform="translate(33,43)"/>
<path d="M0 0 C6.625 0.75 6.625 0.75 10 3 C10 3.66 10 4.32 10 5 C6.7 4.01 3.4 3.02 0 2 C0 1.34 0 0.68 0 0 Z " fill="#B95002" transform="translate(261,6)"/>
<path d="M0 0 C-0.33 0.78375 -0.66 1.5675 -1 2.375 C-2.11866511 4.84332497 -2.11866511 4.84332497 -2 7 C-2.66 7 -3.32 7 -4 7 C-4.66 6.01 -5.32 5.02 -6 4 C-6.66 4 -7.32 4 -8 4 C-8 3.34 -8 2.68 -8 2 C-2.25 0 -2.25 0 0 0 Z " fill="#E4A3AD" transform="translate(41,61)"/>
<path d="M0 0 C0.66 0 1.32 0 2 0 C2 2.64 2 5.28 2 8 C1.01 8.33 0.02 8.66 -1 9 C-0.67 6.03 -0.34 3.06 0 0 Z " fill="#29B3F5" transform="translate(28,11)"/>
<path d="M0 0 C0.99 0.33 1.98 0.66 3 1 C1.88121617 2.17262904 0.75476949 3.33795138 -0.375 4.5 C-1.00148437 5.1496875 -1.62796875 5.799375 -2.2734375 6.46875 C-4 8 -4 8 -6 8 C-4.95125002 5.37812506 -4.35068687 4.20628639 -1.875 2.75 C-1.25625 2.5025 -0.6375 2.255 0 2 C0 1.34 0 0.68 0 0 Z " fill="#A53A01" transform="translate(217,7)"/>
<path d="M0 0 C1.98 0.99 3.96 1.98 6 3 C5.67 4.65 5.34 6.3 5 8 C4.67 7.34 4.34 6.68 4 6 C4.33 5.34 4.66 4.68 5 4 C3.68 4 2.36 4 1 4 C0.67 4.66 0.34 5.32 0 6 C0 4.02 0 2.04 0 0 Z " fill="#DF424C" transform="translate(47,46)"/>
<path d="M0 0 C2 2 2 2 2 5 C-0.31 5.33 -2.62 5.66 -5 6 C-5.33 5.34 -5.66 4.68 -6 4 C-4.7934375 3.566875 -4.7934375 3.566875 -3.5625 3.125 C-0.8673532 2.26737432 -0.8673532 2.26737432 0 0 Z " fill="#FAC20E" transform="translate(241,27)"/>
<path d="M0 0 C0.66 0.33 1.32 0.66 2 1 C1.67 3.31 1.34 5.62 1 8 C-0.32 7.67 -1.64 7.34 -3 7 C-3 5.35 -3 3.7 -3 2 C-2.01 2 -1.02 2 0 2 C0 1.34 0 0.68 0 0 Z " fill="#72AFD5" transform="translate(28,76)"/>
<path d="M0 0 C0 0.99 0 1.98 0 3 C-2.97 3 -5.94 3 -9 3 C-9 2.34 -9 1.68 -9 1 C-2.25 0 -2.25 0 0 0 Z " fill="#0018AB" transform="translate(100,68)"/>
<path d="M0 0 C0.99 0 1.98 0 3 0 C2.34 3.63 1.68 7.26 1 11 C0.67 11 0.34 11 0 11 C-0.19406478 9.35492782 -0.38007935 7.70890406 -0.5625 6.0625 C-0.66691406 5.14597656 -0.77132812 4.22945312 -0.87890625 3.28515625 C-0.91886719 2.53105469 -0.95882812 1.77695312 -1 1 C-0.67 0.67 -0.34 0.34 0 0 Z " fill="#78C8E2" transform="translate(44,24)"/>
<path d="M0 0 C0.66 0.33 1.32 0.66 2 1 C2 1.66 2 2.32 2 3 C2.66 3 3.32 3 4 3 C4 2.34 4 1.68 4 1 C4.99 1 5.98 1 7 1 C7 1.99 7 2.98 7 4 C1.25 4.125 1.25 4.125 -1 3 C-0.67 2.01 -0.34 1.02 0 0 Z " fill="#FA0E20" transform="translate(22,66)"/>
<path d="M0 0 C4.455 1.98 4.455 1.98 9 4 C5.71023192 5.09658936 4.28696233 4.79953138 1 4 C0.67 2.68 0.34 1.36 0 0 Z " fill="#DEB4BB" transform="translate(18,60)"/>
<path d="M0 0 C0.66 1.32 1.32 2.64 2 4 C-0.6666419 5.33332095 -2.16680303 4.67102033 -5 4 C-5 3.67 -5 3.34 -5 3 C-3.35 3 -1.7 3 0 3 C0 2.01 0 1.02 0 0 Z M-5 5 C-3.35 5 -1.7 5 0 5 C-0.33 5.66 -0.66 6.32 -1 7 C-2.32 6.34 -3.64 5.68 -5 5 Z " fill="#E73E4A" transform="translate(53,58)"/>
<path d="M0 0 C1.65 0 3.3 0 5 0 C5.33 1.32 5.66 2.64 6 4 C3.69 4 1.38 4 -1 4 C-0.67 2.68 -0.34 1.36 0 0 Z " fill="#FFAA08" transform="translate(207,33)"/>
<path d="M0 0 C2.64 0.33 5.28 0.66 8 1 C8 1.66 8 2.32 8 3 C5.36 3 2.72 3 0 3 C0 2.01 0 1.02 0 0 Z " fill="#0018AB" transform="translate(237,68)"/>
<path d="M0 0 C1.32 0.33 2.64 0.66 4 1 C3.67 1.99 3.34 2.98 3 4 C1.35 4 -0.3 4 -2 4 C-1.34 2.68 -0.68 1.36 0 0 Z " fill="#FFCCD0" transform="translate(44,67)"/>
<path d="M0 0 C0.99 0 1.98 0 3 0 C2.34 2.31 1.68 4.62 1 7 C0.34 7 -0.32 7 -1 7 C-1.04254356 5.00045254 -1.04080783 2.99958364 -1 1 C-0.67 0.67 -0.34 0.34 0 0 Z " fill="#FB6673" transform="translate(42,59)"/>
<path d="M0 0 C0.33 0 0.66 0 1 0 C2.45184478 4.53701494 3.23509196 8.18061476 3 13 C-0.22430866 8.16353702 -0.09242903 5.73060016 0 0 Z " fill="#1DA7F1" transform="translate(41,31)"/>
<path d="M0 0 C1.65 0 3.3 0 5 0 C5 1.98 5 3.96 5 6 C3.2925002 4.71937515 1.62626404 3.38232443 0 2 C0 1.34 0 0.68 0 0 Z " fill="#FEA006" transform="translate(248,34)"/>
<path d="M0 0 C0.66 0 1.32 0 2 0 C2 0.66 2 1.32 2 2 C2.66 2 3.32 2 4 2 C3.34 3.65 2.68 5.3 2 7 C1.34 6.67 0.68 6.34 0 6 C0 4.02 0 2.04 0 0 Z " fill="#56BFF2" transform="translate(26,89)"/>
<path d="M0 0 C1.65 0 3.3 0 5 0 C5.33 0.99 5.66 1.98 6 3 C4.02 3 2.04 3 0 3 C0 2.01 0 1.02 0 0 Z " fill="#FFD7DA" transform="translate(27,72)"/>
<path d="M0 0 C2.64 0 5.28 0 8 0 C8 0.66 8 1.32 8 2 C5.03 2 2.06 2 -1 2 C-0.67 1.34 -0.34 0.68 0 0 Z " fill="#0018AB" transform="translate(191,69)"/>
<path d="M0 0 C1.65 0 3.3 0 5 0 C5 0.99 5 1.98 5 3 C3.68 3 2.36 3 1 3 C0.34 3.66 -0.32 4.32 -1 5 C-0.67 3.35 -0.34 1.7 0 0 Z " fill="#FF9604" transform="translate(207,36)"/>
<path d="M0 0 C-1.0975223 2.99324263 -1.67682892 3.84610901 -4.625 5.25 C-5.40875 5.4975 -6.1925 5.745 -7 6 C-5.81636731 2.44910192 -3.99368042 0 0 0 Z " fill="#DB7D0C" transform="translate(183,8)"/>
<path d="M0 0 C0.66 0 1.32 0 2 0 C2 0.99 2 1.98 2 3 C1.34 3 0.68 3 0 3 C0 2.01 0 1.02 0 0 Z " fill="#0018AB" transform="translate(188,64)"/>
</svg>
