<?xml version="1.0" encoding="UTF-8"?>
<!DOCTYPE svg PUBLIC "-//W3C//DTD SVG 1.1//EN" "http://www.w3.org/Graphics/SVG/1.1/DTD/svg11.dtd">
<svg xmlns="http://www.w3.org/2000/svg" version="1.1" width="192px" height="192px" style="shape-rendering:geometricPrecision; text-rendering:geometricPrecision; image-rendering:optimizeQuality; fill-rule:evenodd; clip-rule:evenodd" xmlns:xlink="http://www.w3.org/1999/xlink">
<g><path style="opacity:0.38" fill="#87d1e6" d="M 103.5,42.5 C 102.718,39.2856 101.885,35.9523 101,32.5C 100.617,31.944 100.117,31.6107 99.5,31.5C 99.0479,27.4543 98.3813,23.4543 97.5,19.5C 97.631,18.7611 97.4643,18.0944 97,17.5C 96,18.8333 95,18.8333 94,17.5C 93.7679,18.7375 93.2679,19.7375 92.5,20.5C 92.7038,17.4824 93.0371,14.4824 93.5,11.5C 94.8333,11.5 96.1667,11.5 97.5,11.5C 100.276,21.6177 102.276,31.9511 103.5,42.5 Z"/></g>
<g><path style="opacity:1" fill="#24aaf8" d="M 92.5,22.5 C 94.0481,22.8212 94.7148,23.8212 94.5,25.5C 92.9651,33.7221 91.9651,42.0554 91.5,50.5C 91.6989,57.2226 92.3655,63.8893 93.5,70.5C 91.9891,68.5242 91.1558,66.1909 91,63.5C 90.8288,55.9885 90.3288,48.6552 89.5,41.5C 90.6073,35.189 91.6073,28.8557 92.5,22.5 Z"/></g>
<g><path style="opacity:1" fill="#189ef4" d="M 89.5,41.5 C 90.3288,48.6552 90.8288,55.9885 91,63.5C 91.1558,66.1909 91.9891,68.5242 93.5,70.5C 93.6661,76.1764 93.4994,81.8431 93,87.5C 92.79,85.9419 92.29,84.6085 91.5,83.5C 91.6716,82.5084 91.3382,81.8417 90.5,81.5C 90.5,81.1667 90.5,80.8333 90.5,80.5C 88.8833,67.5026 88.5499,54.5026 89.5,41.5 Z"/></g>
<g><path style="opacity:0.584" fill="#73c5ed" d="M 92.5,20.5 C 92.5,21.1667 92.5,21.8333 92.5,22.5C 91.6073,28.8557 90.6073,35.189 89.5,41.5C 88.5499,54.5026 88.8833,67.5026 90.5,80.5C 89.8333,80.1667 89.1667,79.8333 88.5,79.5C 85.562,62.091 85.8953,44.7577 89.5,27.5C 89.7606,24.7082 90.7606,22.3749 92.5,20.5 Z"/></g>
<g><path style="opacity:1" fill="#0d80d4" d="M 97.5,19.5 C 98.3813,23.4543 99.0479,27.4543 99.5,31.5C 101.295,40.0411 101.961,48.7077 101.5,57.5C 100.833,58.1667 100.167,58.8333 99.5,59.5C 98.126,57.4833 98.2926,55.4833 100,53.5C 101.248,46.2898 100.081,39.6231 96.5,33.5C 96.1805,28.6367 96.5139,23.97 97.5,19.5 Z"/></g>
<g><path style="opacity:0.145" fill="#9ce6eb" d="M 74.5,51.5 C 73.1667,51.1667 71.8333,50.8333 70.5,50.5C 68.6682,49.2819 67.6682,49.9486 67.5,52.5C 66.2616,50.7857 65.595,48.7857 65.5,46.5C 68.3113,46.8257 70.978,47.6591 73.5,49C 74.2524,49.6708 74.5858,50.5041 74.5,51.5 Z"/></g>
<g><path style="opacity:0.569" fill="#87d2e9" d="M 122.5,57.5 C 121.539,55.7354 121.205,53.7354 121.5,51.5C 120.001,50.506 118.334,50.506 116.5,51.5C 116.414,50.5041 116.748,49.6708 117.5,49C 120.022,47.6591 122.689,46.8257 125.5,46.5C 124.697,50.2388 123.697,53.9054 122.5,57.5 Z"/></g>
<g><path style="opacity:0.494" fill="#6dc8ec" d="M 70.5,50.5 C 71.1098,51.391 71.4431,52.391 71.5,53.5C 70.1054,51.9456 69.4387,52.279 69.5,54.5C 70.4959,57.7975 70.6626,61.1308 70,64.5C 68.6754,71.8867 67.1754,79.22 65.5,86.5C 65.1667,86.5 64.8333,86.5 64.5,86.5C 65.2476,77.5921 66.5809,68.7587 68.5,60C 68.0828,57.5021 67.7495,55.0021 67.5,52.5C 67.6682,49.9486 68.6682,49.2819 70.5,50.5 Z"/></g>
<g><path style="opacity:1" fill="#3ac0fa" d="M 94.5,25.5 C 95.497,44.326 95.8303,63.326 95.5,82.5C 94.6784,88.2722 93.3451,93.9389 91.5,99.5C 91.5,94.1667 91.5,88.8333 91.5,83.5C 92.29,84.6085 92.79,85.9419 93,87.5C 93.4994,81.8431 93.6661,76.1764 93.5,70.5C 92.3655,63.8893 91.6989,57.2226 91.5,50.5C 91.9651,42.0554 92.9651,33.7221 94.5,25.5 Z"/></g>
<g><path style="opacity:0.971" fill="#2f97d5" d="M 99.5,31.5 C 100.117,31.6107 100.617,31.944 101,32.5C 101.885,35.9523 102.718,39.2856 103.5,42.5C 103.552,51.5182 103.218,60.5182 102.5,69.5C 101.517,65.7016 101.183,61.7016 101.5,57.5C 101.961,48.7077 101.295,40.0411 99.5,31.5 Z"/></g>
<g><path style="opacity:0.467" fill="#8ad2e9" d="M 74.5,51.5 C 78.1243,52.9617 80.6243,55.6284 82,59.5C 84.0948,66.2634 83.9281,72.9301 81.5,79.5C 81.5,80.1667 81.1667,80.5 80.5,80.5C 81.7261,74.0241 81.7261,67.6907 80.5,61.5C 78.9647,57.9473 76.9647,54.614 74.5,51.5 Z"/></g>
<g><path style="opacity:0.38" fill="#94ddf4" d="M 113.5,54.5 C 112.244,58.6874 110.244,62.3541 107.5,65.5C 108.052,61.9653 109.218,58.6319 111,55.5C 111.671,54.7476 112.504,54.4142 113.5,54.5 Z"/></g>
<g><path style="opacity:0.165" fill="#59a8d4" d="M 121.5,51.5 C 121.205,53.7354 121.539,55.7354 122.5,57.5C 124.093,67.1325 125.427,76.7991 126.5,86.5C 126.167,86.5 125.833,86.5 125.5,86.5C 122.836,75.8539 120.836,65.1873 119.5,54.5C 119.932,53.2905 120.599,52.2905 121.5,51.5 Z"/></g>
<g><path style="opacity:1" fill="#4cc6f5" d="M 121.5,51.5 C 120.599,52.2905 119.932,53.2905 119.5,54.5C 117.975,56.2163 116.975,58.2163 116.5,60.5C 115.876,62.8337 115.043,65.1671 114,67.5C 113.108,61.8933 114.608,57.0599 118.5,53C 116.811,53.1343 115.144,53.6343 113.5,54.5C 113.5,52.5 114.5,51.5 116.5,51.5C 118.334,50.506 120.001,50.506 121.5,51.5 Z"/></g>
<g><path style="opacity:1" fill="#1291e5" d="M 96.5,33.5 C 100.081,39.6231 101.248,46.2898 100,53.5C 98.2926,55.4833 98.126,57.4833 99.5,59.5C 97.523,68.6405 97.023,77.9739 98,87.5C 98.2321,86.2625 98.7321,85.2625 99.5,84.5C 99.19,87.7131 99.5233,90.7131 100.5,93.5C 100.5,94.8333 100.5,96.1667 100.5,97.5C 100.751,99.1703 101.418,100.67 102.5,102C 101.092,102.315 99.7589,101.982 98.5,101C 97.7362,98.9307 97.2362,96.764 97,94.5C 96.5,74.1694 96.3334,53.8361 96.5,33.5 Z"/></g>
<g><path style="opacity:1" fill="#0b72c0" d="M 101.5,57.5 C 101.183,61.7016 101.517,65.7016 102.5,69.5C 100.611,74.2113 99.6114,79.2113 99.5,84.5C 98.7321,85.2625 98.2321,86.2625 98,87.5C 97.023,77.9739 97.523,68.6405 99.5,59.5C 100.167,58.8333 100.833,58.1667 101.5,57.5 Z"/></g>
<g><path style="opacity:0.29" fill="#93d9ec" d="M 103.5,42.5 C 104.658,51.3444 104.658,60.3444 103.5,69.5C 103.167,69.5 102.833,69.5 102.5,69.5C 103.218,60.5182 103.552,51.5182 103.5,42.5 Z"/></g>
<g><path style="opacity:1" fill="#1997ed" d="M 114.5,86.5 C 113.009,81.3603 111.342,76.3603 109.5,71.5C 109.547,68.4318 110.047,65.4318 111,62.5C 111.771,69.805 113.604,76.805 116.5,83.5C 116.36,85.0296 115.693,86.0296 114.5,86.5 Z"/></g>
<g><path style="opacity:0.937" fill="#4692ca" d="M 80.5,61.5 C 81.7261,67.6907 81.7261,74.0241 80.5,80.5C 79.596,81.209 79.2627,82.209 79.5,83.5C 78.8333,83.5 78.1667,83.5 77.5,83.5C 80.0217,76.4151 81.0217,69.0818 80.5,61.5 Z"/></g>
<g><path style="opacity:0.663" fill="#5392c2" d="M 102.5,69.5 C 102.833,69.5 103.167,69.5 103.5,69.5C 102.886,73.1352 102.552,76.8019 102.5,80.5C 101.833,80.5 101.5,80.8333 101.5,81.5C 100.517,85.2984 100.183,89.2984 100.5,93.5C 99.5233,90.7131 99.19,87.7131 99.5,84.5C 99.6114,79.2113 100.611,74.2113 102.5,69.5 Z"/></g>
<g><path style="opacity:1" fill="#2ab0f6" d="M 116.5,60.5 C 116.327,66.9355 116.994,73.2689 118.5,79.5C 118.602,85.7181 118.268,92.0514 117.5,98.5C 116.833,95.5 116.167,92.5 115.5,89.5C 115.443,88.391 115.11,87.391 114.5,86.5C 115.693,86.0296 116.36,85.0296 116.5,83.5C 113.604,76.805 111.771,69.805 111,62.5C 110.047,65.4318 109.547,68.4318 109.5,71.5C 108.833,71.1667 108.167,70.8333 107.5,70.5C 107.5,68.8333 107.5,67.1667 107.5,65.5C 110.244,62.3541 112.244,58.6874 113.5,54.5C 115.144,53.6343 116.811,53.1343 118.5,53C 114.608,57.0599 113.108,61.8933 114,67.5C 115.043,65.1671 115.876,62.8337 116.5,60.5 Z"/></g>
<g><path style="opacity:1" fill="#138adc" d="M 119.5,54.5 C 120.836,65.1873 122.836,75.8539 125.5,86.5C 125.5,86.8333 125.5,87.1667 125.5,87.5C 124.833,87.5 124.5,87.8333 124.5,88.5C 123.681,85.6946 123.181,82.6946 123,79.5C 122.498,82.5131 121.998,85.5131 121.5,88.5C 120.632,85.5513 119.632,82.5513 118.5,79.5C 116.994,73.2689 116.327,66.9355 116.5,60.5C 116.975,58.2163 117.975,56.2163 119.5,54.5 Z"/></g>
<g><path style="opacity:1" fill="#46cbfa" d="M 75.5,71.5 C 74.1155,75.3359 73.1155,79.3359 72.5,83.5C 71.6618,83.8417 71.3284,84.5084 71.5,85.5C 70.8333,89.1667 70.1667,92.8333 69.5,96.5C 69.1712,90.7945 69.5046,85.1278 70.5,79.5C 72.4676,72.9624 73.801,66.2957 74.5,59.5C 75.4909,63.4454 75.8242,67.4454 75.5,71.5 Z"/></g>
<g><path style="opacity:0.972" fill="#f71d26" d="M 81.5,79.5 C 83.8333,79.5 86.1667,79.5 88.5,79.5C 89.1667,79.8333 89.8333,80.1667 90.5,80.5C 90.5,80.8333 90.5,81.1667 90.5,81.5C 90.5,85.1667 90.5,88.8333 90.5,92.5C 88.9582,93.3007 87.2915,93.634 85.5,93.5C 86.5152,88.1769 84.5152,84.8436 79.5,83.5C 79.2627,82.209 79.596,81.209 80.5,80.5C 81.1667,80.5 81.5,80.1667 81.5,79.5 Z"/></g>
<g><path style="opacity:1" fill="#118adf" d="M 70.5,50.5 C 71.8333,50.8333 73.1667,51.1667 74.5,51.5C 76.9647,54.614 78.9647,57.9473 80.5,61.5C 81.0217,69.0818 80.0217,76.4151 77.5,83.5C 76.8826,83.6107 76.3826,83.944 76,84.5C 73.8792,96.2499 72.7125,95.9166 72.5,83.5C 73.1155,79.3359 74.1155,75.3359 75.5,71.5C 76.647,67.3537 76.8136,63.0204 76,58.5C 75.0041,56.3395 73.5041,54.6728 71.5,53.5C 71.4431,52.391 71.1098,51.391 70.5,50.5 Z"/></g>
<g><path style="opacity:0.224" fill="#8bd2ee" d="M 107.5,70.5 C 108.167,70.8333 108.833,71.1667 109.5,71.5C 111.342,76.3603 113.009,81.3603 114.5,86.5C 115.11,87.391 115.443,88.391 115.5,89.5C 115.167,89.5 114.833,89.5 114.5,89.5C 110.776,83.7106 108.442,77.3773 107.5,70.5 Z"/></g>
<g><path style="opacity:0.993" fill="#fb0b1c" d="M 102.5,80.5 C 109.568,82.2157 111.234,86.2157 107.5,92.5C 107.703,94.0443 108.37,95.3777 109.5,96.5C 109.376,97.1067 109.043,97.44 108.5,97.5C 107.533,98.8062 106.199,99.4729 104.5,99.5C 105.15,97.5648 105.483,95.5648 105.5,93.5C 104.178,93.67 103.011,93.3366 102,92.5C 101.501,88.8484 101.335,85.1817 101.5,81.5C 101.5,80.8333 101.833,80.5 102.5,80.5 Z"/></g>
<g><path style="opacity:0.999" fill="#f81724" d="M 64.5,86.5 C 64.8333,86.5 65.1667,86.5 65.5,86.5C 65.5,89.5 65.5,92.5 65.5,95.5C 65.7989,97.604 65.4656,99.604 64.5,101.5C 63.2638,100.754 61.9305,100.421 60.5,100.5C 57.2356,99.6758 53.9023,99.3424 50.5,99.5C 49.9033,99.2648 49.5699,98.7648 49.5,98C 50.4138,96.5936 51.0805,95.0936 51.5,93.5C 56.1707,91.7265 60.504,89.3932 64.5,86.5 Z"/></g>
<g><path style="opacity:1" fill="#40c6f8" d="M 95.5,82.5 C 95.9948,91.2108 95.9948,99.8775 95.5,108.5C 93.9582,109.301 92.2915,109.634 90.5,109.5C 91.4558,108.341 92.4558,107.174 93.5,106C 93.3333,105.5 93.1667,105 93,104.5C 91.7367,106.797 89.9034,107.63 87.5,107C 88.056,106.617 88.3893,106.117 88.5,105.5C 89.956,103.716 90.956,101.716 91.5,99.5C 93.3451,93.9389 94.6784,88.2722 95.5,82.5 Z"/></g>
<g><path style="opacity:0.984" fill="#e2616e" d="M 101.5,81.5 C 101.335,85.1817 101.501,88.8484 102,92.5C 103.011,93.3366 104.178,93.67 105.5,93.5C 105.483,95.5648 105.15,97.5648 104.5,99.5C 104.167,99.5 103.833,99.5 103.5,99.5C 102.5,98.8333 101.5,98.1667 100.5,97.5C 100.5,96.1667 100.5,94.8333 100.5,93.5C 100.183,89.2984 100.517,85.2984 101.5,81.5 Z"/></g>
<g><path style="opacity:0.998" fill="#f02a2c" d="M 125.5,86.5 C 125.833,86.5 126.167,86.5 126.5,86.5C 128.776,86.7565 129.943,88.0898 130,90.5C 131.145,89.3157 132.312,89.3157 133.5,90.5C 133.722,92.6075 134.722,94.2742 136.5,95.5C 136.043,96.2975 135.376,96.6309 134.5,96.5C 131.823,93.6551 129.823,94.1551 128.5,98C 127.552,98.4828 126.552,98.6495 125.5,98.5C 125.629,100.216 125.962,101.883 126.5,103.5C 125.833,103.5 125.167,103.5 124.5,103.5C 125.098,98.187 125.431,92.8537 125.5,87.5C 125.5,87.1667 125.5,86.8333 125.5,86.5 Z"/></g>
<g><path style="opacity:1" fill="#3395df" d="M 90.5,81.5 C 91.3382,81.8417 91.6716,82.5084 91.5,83.5C 91.5,88.8333 91.5,94.1667 91.5,99.5C 90.956,101.716 89.956,103.716 88.5,105.5C 84.8878,106.511 81.2211,106.678 77.5,106C 75.6267,103.47 73.7934,100.97 72,98.5C 71.501,94.1794 71.3343,89.8461 71.5,85.5C 71.3284,84.5084 71.6618,83.8417 72.5,83.5C 72.7125,95.9166 73.8792,96.2499 76,84.5C 76.3826,83.944 76.8826,83.6107 77.5,83.5C 76.8505,85.4352 76.5172,87.4352 76.5,89.5C 75.2437,91.7257 75.2437,94.059 76.5,96.5C 76.2627,97.791 76.596,98.791 77.5,99.5C 78.0478,101.532 79.3812,102.532 81.5,102.5C 84.8316,104.004 87.1649,103.004 88.5,99.5C 89.9238,97.4855 90.5905,95.1522 90.5,92.5C 90.5,88.8333 90.5,85.1667 90.5,81.5 Z"/></g>
<g><path style="opacity:1" fill="#e82427" d="M 76.5,89.5 C 77.5,89.8333 78.1667,90.5 78.5,91.5C 80.2551,94.0898 79.5885,95.7565 76.5,96.5C 75.2437,94.059 75.2437,91.7257 76.5,89.5 Z"/></g>
<g><path style="opacity:1" fill="#f9eaeb" d="M 77.5,83.5 C 78.1667,83.5 78.8333,83.5 79.5,83.5C 84.5152,84.8436 86.5152,88.1769 85.5,93.5C 84.8333,94.1667 84.1667,94.8333 83.5,95.5C 82.8333,95.5 82.1667,95.5 81.5,95.5C 80.8571,93.9236 79.8571,92.5903 78.5,91.5C 78.1667,90.5 77.5,89.8333 76.5,89.5C 76.5172,87.4352 76.8505,85.4352 77.5,83.5 Z"/></g>
<g><path style="opacity:1" fill="#ea7a85" d="M 90.5,92.5 C 90.5905,95.1522 89.9238,97.4855 88.5,99.5C 87.3437,97.6127 85.677,96.2794 83.5,95.5C 84.1667,94.8333 84.8333,94.1667 85.5,93.5C 87.2915,93.634 88.9582,93.3007 90.5,92.5 Z"/></g>
<g><path style="opacity:0.946" fill="#fc0319" d="M 134.5,96.5 C 133.833,97.8333 133.167,99.1667 132.5,100.5C 131.833,101.5 131.167,102.5 130.5,103.5C 129.167,103.5 127.833,103.5 126.5,103.5C 125.962,101.883 125.629,100.216 125.5,98.5C 126.552,98.6495 127.552,98.4828 128.5,98C 129.823,94.1551 131.823,93.6551 134.5,96.5 Z"/></g>
<g><path style="opacity:0.024" fill="#be5c5f" d="M 133.5,90.5 C 137.589,92.517 138.422,95.517 136,99.5C 134.989,100.337 133.822,100.67 132.5,100.5C 133.167,99.1667 133.833,97.8333 134.5,96.5C 135.376,96.6309 136.043,96.2975 136.5,95.5C 134.722,94.2742 133.722,92.6075 133.5,90.5 Z"/></g>
<g><path style="opacity:1" fill="#36aef4" d="M 71.5,53.5 C 73.5041,54.6728 75.0041,56.3395 76,58.5C 76.8136,63.0204 76.647,67.3537 75.5,71.5C 75.8242,67.4454 75.4909,63.4454 74.5,59.5C 73.801,66.2957 72.4676,72.9624 70.5,79.5C 69.5046,85.1278 69.1712,90.7945 69.5,96.5C 69.5,96.8333 69.5,97.1667 69.5,97.5C 68.8333,98.5 68.1667,99.5 67.5,100.5C 67.1667,100.5 66.8333,100.5 66.5,100.5C 66.7845,98.5853 66.4511,96.9187 65.5,95.5C 65.5,92.5 65.5,89.5 65.5,86.5C 67.1754,79.22 68.6754,71.8867 70,64.5C 70.6626,61.1308 70.4959,57.7975 69.5,54.5C 69.4387,52.279 70.1054,51.9456 71.5,53.5 Z"/></g>
<g><path style="opacity:1" fill="#f17075" d="M 78.5,91.5 C 79.8571,92.5903 80.8571,93.9236 81.5,95.5C 82.038,97.1172 82.3713,98.7839 82.5,100.5C 81.5,100.5 80.5,100.5 79.5,100.5C 79.719,99.325 79.3857,98.325 78.5,97.5C 77.7025,97.9569 77.3691,98.6236 77.5,99.5C 76.596,98.791 76.2627,97.791 76.5,96.5C 79.5885,95.7565 80.2551,94.0898 78.5,91.5 Z"/></g>
<g><path style="opacity:0.024" fill="#bc9295" d="M 48.5,96.5 C 48.5,97.8333 48.5,99.1667 48.5,100.5C 47.4138,100.38 46.7472,99.7133 46.5,98.5C 46.7472,97.2867 47.4138,96.62 48.5,96.5 Z"/></g>
<g><path style="opacity:0.02" fill="#cf5559" d="M 51.5,93.5 C 51.0805,95.0936 50.4138,96.5936 49.5,98C 49.5699,98.7648 49.9033,99.2648 50.5,99.5C 50.1583,100.338 49.4916,100.672 48.5,100.5C 48.5,99.1667 48.5,97.8333 48.5,96.5C 49.1667,95.1667 50.1667,94.1667 51.5,93.5 Z"/></g>
<g><path style="opacity:1" fill="#ee3336" d="M 81.5,95.5 C 82.1667,95.5 82.8333,95.5 83.5,95.5C 85.677,96.2794 87.3437,97.6127 88.5,99.5C 85.8427,99.9348 83.5093,100.935 81.5,102.5C 79.3812,102.532 78.0478,101.532 77.5,99.5C 77.3691,98.6236 77.7025,97.9569 78.5,97.5C 79.3857,98.325 79.719,99.325 79.5,100.5C 80.5,100.5 81.5,100.5 82.5,100.5C 82.3713,98.7839 82.038,97.1172 81.5,95.5 Z"/></g>
<g><path style="opacity:1" fill="#35aded" d="M 97.5,19.5 C 96.5139,23.97 96.1805,28.6367 96.5,33.5C 96.3334,53.8361 96.5,74.1694 97,94.5C 97.2362,96.764 97.7362,98.9307 98.5,101C 99.7589,101.982 101.092,102.315 102.5,102C 101.418,100.67 100.751,99.1703 100.5,97.5C 101.5,98.1667 102.5,98.8333 103.5,99.5C 104.147,103.157 106.147,104.157 109.5,102.5C 111.38,102.771 112.713,102.104 113.5,100.5C 114.434,99.4324 114.768,98.099 114.5,96.5C 115.756,94.2743 115.756,91.941 114.5,89.5C 114.833,89.5 115.167,89.5 115.5,89.5C 116.167,92.5 116.833,95.5 117.5,98.5C 114.745,105.717 109.411,108.55 101.5,107C 102.056,107.383 102.389,107.883 102.5,108.5C 100.284,107.797 98.451,106.464 97,104.5C 96.79,106.058 96.29,107.391 95.5,108.5C 95.9948,99.8775 95.9948,91.2108 95.5,82.5C 95.8303,63.326 95.497,44.326 94.5,25.5C 94.7148,23.8212 94.0481,22.8212 92.5,22.5C 92.5,21.8333 92.5,21.1667 92.5,20.5C 93.2679,19.7375 93.7679,18.7375 94,17.5C 95,18.8333 96,18.8333 97,17.5C 97.4643,18.0944 97.631,18.7611 97.5,19.5 Z"/></g>
<g><path style="opacity:0.996" fill="#ed7a83" d="M 113.5,90.5 C 111.721,91.6697 110.721,93.3364 110.5,95.5C 111.959,95.4326 113.292,95.7659 114.5,96.5C 114.768,98.099 114.434,99.4324 113.5,100.5C 112.833,96.5 112.167,96.5 111.5,100.5C 110.5,100.5 109.5,100.5 108.5,100.5C 108.5,99.5 108.5,98.5 108.5,97.5C 109.043,97.44 109.376,97.1067 109.5,96.5C 108.37,95.3777 107.703,94.0443 107.5,92.5C 109.5,91.8333 111.5,91.1667 113.5,90.5 Z"/></g>
<g><path style="opacity:1" fill="#f5252c" d="M 114.5,89.5 C 115.756,91.941 115.756,94.2743 114.5,96.5C 113.292,95.7659 111.959,95.4326 110.5,95.5C 110.721,93.3364 111.721,91.6697 113.5,90.5C 113.5,89.8333 113.833,89.5 114.5,89.5 Z"/></g>
<g><path style="opacity:1" fill="#e33a3e" d="M 108.5,97.5 C 108.5,98.5 108.5,99.5 108.5,100.5C 109.5,100.5 110.5,100.5 111.5,100.5C 112.167,96.5 112.833,96.5 113.5,100.5C 112.713,102.104 111.38,102.771 109.5,102.5C 107.928,101.313 106.261,100.313 104.5,99.5C 106.199,99.4729 107.533,98.8062 108.5,97.5 Z"/></g>
<g><path style="opacity:1" fill="#de8d90" d="M 88.5,99.5 C 87.1649,103.004 84.8316,104.004 81.5,102.5C 83.5093,100.935 85.8427,99.9348 88.5,99.5 Z"/></g>
<g><path style="opacity:1" fill="#da9595" d="M 103.5,99.5 C 103.833,99.5 104.167,99.5 104.5,99.5C 106.261,100.313 107.928,101.313 109.5,102.5C 106.147,104.157 104.147,103.157 103.5,99.5 Z"/></g>
<g><path style="opacity:0.907" fill="#fd041b" d="M 146.5,101.5 C 146.5,106.167 146.5,110.833 146.5,115.5C 144.194,116.375 143.527,117.708 144.5,119.5C 142.052,120.473 139.385,120.806 136.5,120.5C 136.423,119.25 135.756,118.417 134.5,118C 139.674,116.032 141.341,112.532 139.5,107.5C 142.268,104.583 143.768,105.25 144,109.5C 143.947,106.325 144.78,103.658 146.5,101.5 Z"/></g>
<g><path style="opacity:0.043" fill="#eb444c" d="M 65.5,95.5 C 66.4511,96.9187 66.7845,98.5853 66.5,100.5C 66.4828,102.565 66.1495,104.565 65.5,106.5C 59.0569,102.936 52.3903,102.602 45.5,105.5C 46.347,104.034 47.6803,103.2 49.5,103C 53.7097,102.262 57.8764,102.428 62,103.5C 62.5,103.333 63,103.167 63.5,103C 62.4293,102.148 61.4293,101.315 60.5,100.5C 61.9305,100.421 63.2638,100.754 64.5,101.5C 65.4656,99.604 65.7989,97.604 65.5,95.5 Z"/></g>
<g><path style="opacity:1" fill="#5973a4" d="M 125.5,87.5 C 125.431,92.8537 125.098,98.187 124.5,103.5C 124.5,103.833 124.5,104.167 124.5,104.5C 123.209,104.263 122.209,104.596 121.5,105.5C 121.167,106.5 120.5,107.167 119.5,107.5C 119.227,105.042 120.227,103.375 122.5,102.5C 123.532,97.8803 124.198,93.2137 124.5,88.5C 124.5,87.8333 124.833,87.5 125.5,87.5 Z"/></g>
<g><path style="opacity:0.141" fill="#ed8283" d="M 142.5,100.5 C 142.426,102.411 141.426,103.578 139.5,104C 134.511,104.499 129.511,104.666 124.5,104.5C 124.5,104.167 124.5,103.833 124.5,103.5C 125.167,103.5 125.833,103.5 126.5,103.5C 127.833,103.5 129.167,103.5 130.5,103.5C 134.942,103.968 138.942,102.968 142.5,100.5 Z"/></g>
<g><path style="opacity:1" fill="#4ac5f8" d="M 118.5,79.5 C 119.632,82.5513 120.632,85.5513 121.5,88.5C 122.157,97.9244 118.49,104.924 110.5,109.5C 107.721,109.721 105.054,109.388 102.5,108.5C 102.389,107.883 102.056,107.383 101.5,107C 109.411,108.55 114.745,105.717 117.5,98.5C 118.268,92.0514 118.602,85.7181 118.5,79.5 Z"/></g>
<g><path style="opacity:1" fill="#1270be" d="M 124.5,88.5 C 124.198,93.2137 123.532,97.8803 122.5,102.5C 120.227,103.375 119.227,105.042 119.5,107.5C 118.488,108.872 117.488,110.205 116.5,111.5C 114.143,111.663 111.81,111.497 109.5,111C 110.056,110.617 110.389,110.117 110.5,109.5C 118.49,104.924 122.157,97.9244 121.5,88.5C 121.998,85.5131 122.498,82.5131 123,79.5C 123.181,82.6946 123.681,85.6946 124.5,88.5 Z"/></g>
<g><path style="opacity:1" fill="#fd292c" d="M 65.5,106.5 C 65.5,107.167 65.5,107.833 65.5,108.5C 64.6043,107.494 63.9377,107.494 63.5,108.5C 63.1667,108.5 62.8333,108.5 62.5,108.5C 59.7212,108.279 57.0545,108.612 54.5,109.5C 53.5489,110.919 53.2155,112.585 53.5,114.5C 52.776,112.782 52.1094,110.948 51.5,109C 52.1667,108.333 52.8333,107.667 53.5,107C 51.6332,106.289 50.1332,106.789 49,108.5C 47.9288,105.887 47.0955,105.887 46.5,108.5C 45.6618,108.158 45.3284,107.492 45.5,106.5C 45.5,106.167 45.5,105.833 45.5,105.5C 52.3903,102.602 59.0569,102.936 65.5,106.5 Z"/></g>
<g><path style="opacity:1" fill="#fa2125" d="M 146.5,101.5 C 144.78,103.658 143.947,106.325 144,109.5C 143.768,105.25 142.268,104.583 139.5,107.5C 141.341,112.532 139.674,116.032 134.5,118C 135.756,118.417 136.423,119.25 136.5,120.5C 135.833,120.5 135.167,120.5 134.5,120.5C 132.898,118.926 130.898,118.259 128.5,118.5C 125.937,114.255 124.603,109.589 124.5,104.5C 129.511,104.666 134.511,104.499 139.5,104C 141.426,103.578 142.426,102.411 142.5,100.5C 143.183,98.8235 144.517,98.1568 146.5,98.5C 146.5,99.5 146.5,100.5 146.5,101.5 Z"/></g>
<g><path style="opacity:1" fill="#37bdf7" d="M 71.5,85.5 C 71.3343,89.8461 71.501,94.1794 72,98.5C 73.7934,100.97 75.6267,103.47 77.5,106C 81.2211,106.678 84.8878,106.511 88.5,105.5C 88.3893,106.117 88.056,106.617 87.5,107C 89.9034,107.63 91.7367,106.797 93,104.5C 93.1667,105 93.3333,105.5 93.5,106C 92.4558,107.174 91.4558,108.341 90.5,109.5C 85.7506,110.939 81.0839,110.772 76.5,109C 73.0374,105.737 70.7041,101.903 69.5,97.5C 69.5,97.1667 69.5,96.8333 69.5,96.5C 70.1667,92.8333 70.8333,89.1667 71.5,85.5 Z"/></g>
<g><path style="opacity:1" fill="#fa121c" d="M 69.5,106.5 C 69.8333,107.167 70.1667,107.833 70.5,108.5C 69.6136,109.776 68.6136,109.776 67.5,108.5C 67.8555,107.478 68.5222,106.811 69.5,106.5 Z"/></g>
<g><path style="opacity:0.349" fill="#d74c45" d="M 121.5,105.5 C 122.209,104.596 123.209,104.263 124.5,104.5C 124.603,109.589 125.937,114.255 128.5,118.5C 127.833,118.5 127.167,118.5 126.5,118.5C 125.233,119.087 124.233,119.087 123.5,118.5C 124.585,115.227 124.752,111.894 124,108.5C 123.764,106.881 122.931,105.881 121.5,105.5 Z"/></g>
<g><path style="opacity:0.278" fill="#c77275" d="M 45.5,106.5 C 45.3284,107.492 45.6618,108.158 46.5,108.5C 48.8893,110.603 48.2226,111.937 44.5,112.5C 43.1542,110.208 43.4876,108.208 45.5,106.5 Z"/></g>
<g><path style="opacity:0.801" fill="#f25f6d" d="M 66.5,100.5 C 66.8333,100.5 67.1667,100.5 67.5,100.5C 67.2587,102.886 67.9254,104.886 69.5,106.5C 68.5222,106.811 67.8555,107.478 67.5,108.5C 68.6136,109.776 69.6136,109.776 70.5,108.5C 71.5,108.833 72.1667,109.5 72.5,110.5C 71.8333,111.167 71.1667,111.833 70.5,112.5C 69.8333,109.833 69.1667,109.833 68.5,112.5C 67.3509,112.791 66.6842,113.624 66.5,115C 66.9505,116.55 67.1171,118.05 67,119.5C 65.9614,118.756 65.4614,117.756 65.5,116.5C 65.5,113.833 65.5,111.167 65.5,108.5C 65.5,107.833 65.5,107.167 65.5,106.5C 66.1495,104.565 66.4828,102.565 66.5,100.5 Z"/></g>
<g><path style="opacity:1" fill="#3da8e8" d="M 69.5,97.5 C 70.7041,101.903 73.0374,105.737 76.5,109C 81.0839,110.772 85.7506,110.939 90.5,109.5C 92.2915,109.634 93.9582,109.301 95.5,108.5C 91.5666,110.17 87.5666,111.836 83.5,113.5C 83.5,114.5 83.5,115.5 83.5,116.5C 82.609,115.89 81.609,115.557 80.5,115.5C 79.609,114.89 78.609,114.557 77.5,114.5C 76.5,113.833 75.5,113.167 74.5,112.5C 74.1667,111.5 73.5,110.833 72.5,110.5C 72.1667,109.5 71.5,108.833 70.5,108.5C 70.1667,107.833 69.8333,107.167 69.5,106.5C 67.9254,104.886 67.2587,102.886 67.5,100.5C 68.1667,99.5 68.8333,98.5 69.5,97.5 Z"/></g>
<g><path style="opacity:1" fill="#138de0" d="M 102.5,108.5 C 105.054,109.388 107.721,109.721 110.5,109.5C 110.389,110.117 110.056,110.617 109.5,111C 111.81,111.497 114.143,111.663 116.5,111.5C 116.5,111.833 116.5,112.167 116.5,112.5C 116.167,112.5 115.833,112.5 115.5,112.5C 109.16,111.276 102.827,111.276 96.5,112.5C 96.6399,114.124 95.9733,115.29 94.5,116C 96.6193,116.098 98.286,116.931 99.5,118.5C 96.7341,120.129 93.7341,120.795 90.5,120.5C 90.5,120.167 90.5,119.833 90.5,119.5C 88.7185,117.643 86.3852,116.643 83.5,116.5C 83.5,115.5 83.5,114.5 83.5,113.5C 87.5666,111.836 91.5666,110.17 95.5,108.5C 96.29,107.391 96.79,106.058 97,104.5C 98.451,106.464 100.284,107.797 102.5,108.5 Z"/></g>
<g><path style="opacity:1" fill="#ffcfd2" d="M 136.5,113.5 C 136.5,112.167 136.5,110.833 136.5,109.5C 134.167,109.5 131.833,109.5 129.5,109.5C 129.5,110.833 129.5,112.167 129.5,113.5C 131.5,113.5 133.5,113.5 135.5,113.5C 133.393,114.468 131.059,114.802 128.5,114.5C 128.5,112.5 128.5,110.5 128.5,108.5C 131.5,108.5 134.5,108.5 137.5,108.5C 137.784,110.415 137.451,112.081 136.5,113.5 Z"/></g>
<g><path style="opacity:1" fill="#fffbfb" d="M 136.5,113.5 C 136.167,113.5 135.833,113.5 135.5,113.5C 133.5,113.5 131.5,113.5 129.5,113.5C 129.5,112.167 129.5,110.833 129.5,109.5C 131.833,109.5 134.167,109.5 136.5,109.5C 136.5,110.833 136.5,112.167 136.5,113.5 Z"/></g>
<g><path style="opacity:1" fill="#ffd0d4" d="M 70.5,112.5 C 69.8333,112.5 69.1667,112.5 68.5,112.5C 69.1667,109.833 69.8333,109.833 70.5,112.5 Z"/></g>
<g><path style="opacity:0.886" fill="#fd101f" d="M 53.5,114.5 C 56.8333,114.5 60.1667,114.5 63.5,114.5C 63.5,112.5 63.5,110.5 63.5,108.5C 63.9377,107.494 64.6043,107.494 65.5,108.5C 65.5,111.167 65.5,113.833 65.5,116.5C 64.8485,117.091 64.1818,117.757 63.5,118.5C 58.2302,117.549 52.8968,117.215 47.5,117.5C 47.1927,120.782 45.8594,123.448 43.5,125.5C 42.0352,121.125 42.3686,116.792 44.5,112.5C 48.2226,111.937 48.8893,110.603 46.5,108.5C 47.0955,105.887 47.9288,105.887 49,108.5C 50.1332,106.789 51.6332,106.289 53.5,107C 52.8333,107.667 52.1667,108.333 51.5,109C 52.1094,110.948 52.776,112.782 53.5,114.5 Z"/></g>
<g><path style="opacity:1" fill="#fff5f6" d="M 62.5,108.5 C 62.5,110.167 62.5,111.833 62.5,113.5C 59.8333,113.5 57.1667,113.5 54.5,113.5C 54.5,112.167 54.5,110.833 54.5,109.5C 57.0545,108.612 59.7212,108.279 62.5,108.5 Z"/></g>
<g><path style="opacity:1" fill="#ffafb4" d="M 62.5,108.5 C 62.8333,108.5 63.1667,108.5 63.5,108.5C 63.5,110.5 63.5,112.5 63.5,114.5C 60.1667,114.5 56.8333,114.5 53.5,114.5C 53.2155,112.585 53.5489,110.919 54.5,109.5C 54.5,110.833 54.5,112.167 54.5,113.5C 57.1667,113.5 59.8333,113.5 62.5,113.5C 62.5,111.833 62.5,110.167 62.5,108.5 Z"/></g>
<g><path style="opacity:1" fill="#fbcece" d="M 74.5,112.5 C 75.5,113.167 76.5,113.833 77.5,114.5C 78.9274,117.764 81.2608,120.264 84.5,122C 84.2716,122.399 83.9382,122.565 83.5,122.5C 81.5,121.5 79.5,120.5 77.5,119.5C 75.6878,117.539 74.6878,115.206 74.5,112.5 Z"/></g>
<g><path style="opacity:1" fill="#3599d9" d="M 115.5,112.5 C 114.833,113.167 114.167,113.833 113.5,114.5C 112.5,115.167 111.5,115.833 110.5,116.5C 110.265,115.903 109.765,115.57 109,115.5C 105.752,116.403 102.919,117.736 100.5,119.5C 100.167,120.167 99.8333,120.833 99.5,121.5C 96.5,121.5 93.5,121.5 90.5,121.5C 90.5,121.167 90.5,120.833 90.5,120.5C 93.7341,120.795 96.7341,120.129 99.5,118.5C 98.286,116.931 96.6193,116.098 94.5,116C 95.9733,115.29 96.6399,114.124 96.5,112.5C 102.827,111.276 109.16,111.276 115.5,112.5 Z"/></g>
<g><path style="opacity:0.267" fill="#e05252" d="M 146.5,115.5 C 146.771,117.38 146.104,118.713 144.5,119.5C 143.527,117.708 144.194,116.375 146.5,115.5 Z"/></g>
<g><path style="opacity:0.235" fill="#f02e37" d="M 72.5,110.5 C 73.5,110.833 74.1667,111.5 74.5,112.5C 74.6878,115.206 75.6878,117.539 77.5,119.5C 76.8333,120.167 76.1667,120.833 75.5,121.5C 75.5,120.167 74.8333,119.5 73.5,119.5C 72.1417,118.374 70.8084,118.374 69.5,119.5C 70.6302,120.622 71.2969,121.956 71.5,123.5C 70.1806,122.103 68.5139,121.437 66.5,121.5C 62.8514,122.33 59.1847,122.996 55.5,123.5C 57.2726,122.108 59.2726,120.941 61.5,120C 58.8333,119.333 56.1667,119.333 53.5,120C 49.9889,121.587 46.6555,123.421 43.5,125.5C 45.8594,123.448 47.1927,120.782 47.5,117.5C 52.8968,117.215 58.2302,117.549 63.5,118.5C 64.1818,117.757 64.8485,117.091 65.5,116.5C 65.4614,117.756 65.9614,118.756 67,119.5C 67.1171,118.05 66.9505,116.55 66.5,115C 66.6842,113.624 67.3509,112.791 68.5,112.5C 69.1667,112.5 69.8333,112.5 70.5,112.5C 71.1667,111.833 71.8333,111.167 72.5,110.5 Z"/></g>
<g><path style="opacity:1" fill="#ffcdd1" d="M 69.5,114.5 C 71.4646,114.948 71.7979,115.948 70.5,117.5C 69.6143,116.675 69.281,115.675 69.5,114.5 Z"/></g>
<g><path style="opacity:1" fill="#f6b1b5" d="M 115.5,112.5 C 115.833,112.5 116.167,112.5 116.5,112.5C 115.349,116.493 113.015,119.493 109.5,121.5C 108.348,122.625 107.348,122.625 106.5,121.5C 109.855,120.145 112.189,117.811 113.5,114.5C 114.167,113.833 114.833,113.167 115.5,112.5 Z"/></g>
<g><path style="opacity:0.008" fill="#a14742" d="M 128.5,119.5 C 128.5,119.167 128.5,118.833 128.5,118.5C 130.898,118.259 132.898,118.926 134.5,120.5C 132.435,120.483 130.435,120.15 128.5,119.5 Z"/></g>
<g><path style="opacity:1" fill="#f94f54" d="M 77.5,114.5 C 78.609,114.557 79.609,114.89 80.5,115.5C 81.1667,116.833 82.1667,117.833 83.5,118.5C 85.3949,120.241 87.7282,121.241 90.5,121.5C 93.5,121.5 96.5,121.5 99.5,121.5C 102.486,121.097 105.152,120.097 107.5,118.5C 108.5,117.833 109.5,117.167 110.5,116.5C 111.5,115.833 112.5,115.167 113.5,114.5C 112.189,117.811 109.855,120.145 106.5,121.5C 102.647,121.686 100.981,123.686 101.5,127.5C 100.024,125.568 98.3569,125.235 96.5,126.5C 95.8333,126.5 95.1667,126.5 94.5,126.5C 94.0296,125.307 93.0296,124.64 91.5,124.5C 90.2739,124.52 89.2739,124.853 88.5,125.5C 87.5,125.5 86.5,125.5 85.5,125.5C 85.2178,124.222 84.5511,123.222 83.5,122.5C 83.9382,122.565 84.2716,122.399 84.5,122C 81.2608,120.264 78.9274,117.764 77.5,114.5 Z"/></g>
<g><path style="opacity:1" fill="#e6d7dc" d="M 107.5,118.5 C 105.152,120.097 102.486,121.097 99.5,121.5C 99.8333,120.833 100.167,120.167 100.5,119.5C 102.717,118.631 105.05,118.298 107.5,118.5 Z"/></g>
<g><path style="opacity:1" fill="#e9cfd1" d="M 83.5,118.5 C 85.9496,118.298 88.283,118.631 90.5,119.5C 90.5,119.833 90.5,120.167 90.5,120.5C 90.5,120.833 90.5,121.167 90.5,121.5C 87.7282,121.241 85.3949,120.241 83.5,118.5 Z"/></g>
<g><path style="opacity:1" fill="#91c7de" d="M 110.5,116.5 C 109.5,117.167 108.5,117.833 107.5,118.5C 105.05,118.298 102.717,118.631 100.5,119.5C 102.919,117.736 105.752,116.403 109,115.5C 109.765,115.57 110.265,115.903 110.5,116.5 Z"/></g>
<g><path style="opacity:1" fill="#90c7e0" d="M 80.5,115.5 C 81.609,115.557 82.609,115.89 83.5,116.5C 86.3852,116.643 88.7185,117.643 90.5,119.5C 88.283,118.631 85.9496,118.298 83.5,118.5C 82.1667,117.833 81.1667,116.833 80.5,115.5 Z"/></g>
<g><path style="opacity:1" fill="#ff7d82" d="M 106.5,121.5 C 107.348,122.625 108.348,122.625 109.5,121.5C 110.167,122.167 110.833,122.833 111.5,123.5C 110.167,123.5 109.5,124.167 109.5,125.5C 106.559,122.593 104.893,123.26 104.5,127.5C 103.5,127.5 102.5,127.5 101.5,127.5C 100.981,123.686 102.647,121.686 106.5,121.5 Z"/></g>
<g><path style="opacity:0.553" fill="#f52d30" d="M 121.5,105.5 C 122.931,105.881 123.764,106.881 124,108.5C 124.752,111.894 124.585,115.227 123.5,118.5C 124.233,119.087 125.233,119.087 126.5,118.5C 126.842,119.338 127.508,119.672 128.5,119.5C 130.572,122.198 133.238,123.865 136.5,124.5C 138.833,125.167 141.167,125.833 143.5,126.5C 140.813,126.664 138.146,126.497 135.5,126C 131.661,124.447 127.994,122.613 124.5,120.5C 122.102,121.389 120.102,122.889 118.5,125C 119.094,125.464 119.761,125.631 120.5,125.5C 120.158,126.338 119.492,126.672 118.5,126.5C 117.305,126.322 116.138,125.989 115,125.5C 113.251,125.748 112.418,126.748 112.5,128.5C 111.833,128.833 111.167,129.167 110.5,129.5C 105.637,129.819 100.97,129.486 96.5,128.5C 96.5,127.833 96.5,127.167 96.5,126.5C 98.3569,125.235 100.024,125.568 101.5,127.5C 102.5,127.5 103.5,127.5 104.5,127.5C 104.893,123.26 106.559,122.593 109.5,125.5C 110.833,125.5 111.5,124.833 111.5,123.5C 110.833,122.833 110.167,122.167 109.5,121.5C 113.015,119.493 115.349,116.493 116.5,112.5C 116.5,112.167 116.5,111.833 116.5,111.5C 117.488,110.205 118.488,108.872 119.5,107.5C 120.5,107.167 121.167,106.5 121.5,105.5 Z"/></g>
<g><path style="opacity:1" fill="#ffc1c7" d="M 111.5,123.5 C 111.5,124.833 110.833,125.5 109.5,125.5C 109.5,124.167 110.167,123.5 111.5,123.5 Z"/></g>
<g><path style="opacity:1" fill="#ff949c" d="M 114.5,119.5 C 115.5,119.5 116.5,119.5 117.5,119.5C 117.5,120.5 117.5,121.5 117.5,122.5C 116.5,122.5 115.5,122.5 114.5,122.5C 114.5,121.5 114.5,120.5 114.5,119.5 Z"/></g>
<g><path style="opacity:1" fill="#ffcfd4" d="M 118.5,115.5 C 120.337,115.639 120.67,116.306 119.5,117.5C 118.702,117.043 118.369,116.376 118.5,115.5 Z"/></g>
<g><path style="opacity:1" fill="#ffd2d6" d="M 119.5,110.5 C 121.337,110.639 121.67,111.306 120.5,112.5C 119.702,112.043 119.369,111.376 119.5,110.5 Z"/></g>
<g><path style="opacity:0.999" fill="#f32124" d="M 143.5,126.5 C 144.338,126.842 144.672,127.508 144.5,128.5C 143.341,130.25 141.674,131.25 139.5,131.5C 135.952,132.13 132.619,133.13 129.5,134.5C 128.711,134.217 128.044,133.717 127.5,133C 131.226,132.572 134.559,131.239 137.5,129C 136.271,128.219 134.938,127.719 133.5,127.5C 131.666,128.754 129.666,129.421 127.5,129.5C 127.611,128.883 127.944,128.383 128.5,128C 126.091,126.293 123.425,125.46 120.5,125.5C 119.761,125.631 119.094,125.464 118.5,125C 120.102,122.889 122.102,121.389 124.5,120.5C 127.994,122.613 131.661,124.447 135.5,126C 138.146,126.497 140.813,126.664 143.5,126.5 Z"/></g>
<g><path style="opacity:0.97" fill="#f91f27" d="M 71.5,123.5 C 71.1583,124.338 70.4916,124.672 69.5,124.5C 67.1137,124.259 65.1137,124.925 63.5,126.5C 63.189,125.522 62.5223,124.855 61.5,124.5C 54.0769,127.758 54.0769,129.758 61.5,130.5C 60.482,133.497 60.482,136.163 61.5,138.5C 60.5,138.167 59.8333,137.5 59.5,136.5C 59.631,135.761 59.4643,135.094 59,134.5C 54.3129,132.796 52.4795,129.463 53.5,124.5C 53.8417,123.662 54.5084,123.328 55.5,123.5C 59.1847,122.996 62.8514,122.33 66.5,121.5C 68.5139,121.437 70.1806,122.103 71.5,123.5 Z"/></g>
<g><path style="opacity:0.388" fill="#f82b30" d="M 73.5,119.5 C 74.8333,119.5 75.5,120.167 75.5,121.5C 76.1667,120.833 76.8333,120.167 77.5,119.5C 79.5,120.5 81.5,121.5 83.5,122.5C 84.5511,123.222 85.2178,124.222 85.5,125.5C 86.5,128.167 87.5,128.167 88.5,125.5C 89.2739,124.853 90.2739,124.52 91.5,124.5C 93.0296,124.64 94.0296,125.307 94.5,126.5C 94.5,127.167 94.5,127.833 94.5,128.5C 93.4282,130.84 91.7615,131.173 89.5,129.5C 88.7025,129.957 88.3691,130.624 88.5,131.5C 86.9826,131.511 85.8159,132.177 85,133.5C 84.6174,132.944 84.1174,132.611 83.5,132.5C 86.2583,131.033 85.925,130.367 82.5,130.5C 82.5858,129.504 82.2524,128.671 81.5,128C 79.1563,126.972 76.8229,126.306 74.5,126C 76.9025,127.853 79.2359,129.686 81.5,131.5C 78.3579,133.58 75.3579,135.914 72.5,138.5C 73.4111,135.728 74.2444,133.061 75,130.5C 73.2863,130.205 71.453,130.538 69.5,131.5C 70.5736,130.115 71.9069,128.949 73.5,128C 71.9069,127.051 70.5736,125.885 69.5,124.5C 70.4916,124.672 71.1583,124.338 71.5,123.5C 71.2969,121.956 70.6302,120.622 69.5,119.5C 70.8084,118.374 72.1417,118.374 73.5,119.5 Z"/></g>
<g><path style="opacity:1" fill="#ffd3d8" d="M 73.5,119.5 C 74.8333,119.5 75.5,120.167 75.5,121.5C 74.1667,121.5 73.5,120.833 73.5,119.5 Z"/></g>
<g><path style="opacity:1" fill="#ff98a0" d="M 77.5,122.5 C 78.5,122.5 79.5,122.5 80.5,122.5C 80.5,123.5 80.5,124.5 80.5,125.5C 79.5,125.5 78.5,125.5 77.5,125.5C 77.5,124.5 77.5,123.5 77.5,122.5 Z"/></g>
<g><path style="opacity:1" fill="#ffe0e1" d="M 69.5,124.5 C 70.5736,125.885 71.9069,127.051 73.5,128C 71.9069,128.949 70.5736,130.115 69.5,131.5C 65.9285,132.299 63.9285,130.632 63.5,126.5C 65.1137,124.925 67.1137,124.259 69.5,124.5 Z"/></g>
<g><path style="opacity:0.486" fill="#d76b6b" d="M 144.5,128.5 C 144.672,127.508 144.338,126.842 143.5,126.5C 141.167,125.833 138.833,125.167 136.5,124.5C 139.86,124.384 143.193,124.051 146.5,123.5C 146.88,125.698 146.213,127.365 144.5,128.5 Z"/></g>
<g><path style="opacity:0.498" fill="#c95657" d="M 82.5,130.5 C 82.5,131.167 82.1667,131.5 81.5,131.5C 79.2359,129.686 76.9025,127.853 74.5,126C 76.8229,126.306 79.1563,126.972 81.5,128C 82.2524,128.671 82.5858,129.504 82.5,130.5 Z"/></g>
<g><path style="opacity:1" fill="#ffc3c8" d="M 85.5,125.5 C 86.5,125.5 87.5,125.5 88.5,125.5C 87.5,128.167 86.5,128.167 85.5,125.5 Z"/></g>
<g><path style="opacity:1" fill="#ffd0d5" d="M 94.5,126.5 C 95.1667,126.5 95.8333,126.5 96.5,126.5C 96.5,127.167 96.5,127.833 96.5,128.5C 95.8333,128.5 95.1667,128.5 94.5,128.5C 94.5,127.833 94.5,127.167 94.5,126.5 Z"/></g>
<g><path style="opacity:0.929" fill="#f96766" d="M 118.5,126.5 C 117.316,127.688 117.316,128.855 118.5,130C 120.473,130.495 122.473,130.662 124.5,130.5C 120.371,132.426 117.038,131.426 114.5,127.5C 113.817,127.863 113.15,128.196 112.5,128.5C 112.418,126.748 113.251,125.748 115,125.5C 116.138,125.989 117.305,126.322 118.5,126.5 Z"/></g>
<g><path style="opacity:1" fill="#fff0f1" d="M 120.5,125.5 C 123.425,125.46 126.091,126.293 128.5,128C 127.944,128.383 127.611,128.883 127.5,129.5C 126.391,129.557 125.391,129.89 124.5,130.5C 122.473,130.662 120.473,130.495 118.5,130C 117.316,128.855 117.316,127.688 118.5,126.5C 119.492,126.672 120.158,126.338 120.5,125.5 Z"/></g>
<g><path style="opacity:1" fill="#ee5a5c" d="M 94.5,128.5 C 95.1667,128.5 95.8333,128.5 96.5,128.5C 100.97,129.486 105.637,129.819 110.5,129.5C 110.5,129.833 110.5,130.167 110.5,130.5C 108.692,131.918 108.025,133.918 108.5,136.5C 107.5,136.5 106.5,136.5 105.5,136.5C 105.5,134.833 105.5,133.167 105.5,131.5C 103.833,131.5 102.167,131.5 100.5,131.5C 100.5,133.167 100.5,134.833 100.5,136.5C 100.167,136.5 99.8333,136.5 99.5,136.5C 99.5,135.167 99.5,133.833 99.5,132.5C 96.5,132.5 93.5,132.5 90.5,132.5C 90.5,133.833 90.5,135.167 90.5,136.5C 89.8333,134.833 89.1667,133.167 88.5,131.5C 88.3691,130.624 88.7025,129.957 89.5,129.5C 91.7615,131.173 93.4282,130.84 94.5,128.5 Z"/></g>
<g><path style="opacity:0.999" fill="#f90f1b" d="M 124.5,130.5 C 125.391,129.89 126.391,129.557 127.5,129.5C 129.666,129.421 131.666,128.754 133.5,127.5C 134.938,127.719 136.271,128.219 137.5,129C 134.559,131.239 131.226,132.572 127.5,133C 128.044,133.717 128.711,134.217 129.5,134.5C 130.404,135.209 130.737,136.209 130.5,137.5C 126.116,137.826 121.783,137.492 117.5,136.5C 115.736,134.722 113.736,133.389 111.5,132.5C 110.662,132.158 110.328,131.492 110.5,130.5C 110.5,130.167 110.5,129.833 110.5,129.5C 111.167,129.167 111.833,128.833 112.5,128.5C 113.15,128.196 113.817,127.863 114.5,127.5C 117.038,131.426 120.371,132.426 124.5,130.5 Z"/></g>
<g><path style="opacity:0.983" fill="#fe051a" d="M 63.5,126.5 C 63.9285,130.632 65.9285,132.299 69.5,131.5C 71.453,130.538 73.2863,130.205 75,130.5C 74.2444,133.061 73.4111,135.728 72.5,138.5C 73.1098,139.391 73.4431,140.391 73.5,141.5C 71.3792,141.325 69.3792,141.659 67.5,142.5C 64.9501,141.943 62.9501,140.61 61.5,138.5C 60.482,136.163 60.482,133.497 61.5,130.5C 54.0769,129.758 54.0769,127.758 61.5,124.5C 62.5223,124.855 63.189,125.522 63.5,126.5 Z"/></g>
<g><path style="opacity:0.041" fill="#ac5954" d="M 139.5,131.5 C 136.782,133.86 133.782,135.86 130.5,137.5C 130.737,136.209 130.404,135.209 129.5,134.5C 132.619,133.13 135.952,132.13 139.5,131.5 Z"/></g>
<g><path style="opacity:1" fill="#fff0f2" d="M 99.5,136.5 C 96.6377,137.681 93.6377,137.681 90.5,136.5C 90.5,135.167 90.5,133.833 90.5,132.5C 93.5,132.5 96.5,132.5 99.5,132.5C 99.5,133.833 99.5,135.167 99.5,136.5 Z"/></g>
<g><path style="opacity:0.008" fill="#d96668" d="M 53.5,124.5 C 52.4795,129.463 54.3129,132.796 59,134.5C 59.4643,135.094 59.631,135.761 59.5,136.5C 52.2853,134.71 50.2853,130.71 53.5,124.5 Z"/></g>
<g><path style="opacity:1" fill="#fb1522" d="M 88.5,131.5 C 89.1667,133.167 89.8333,134.833 90.5,136.5C 90.6107,137.117 90.944,137.617 91.5,138C 93,138.167 94.5,138.333 96,138.5C 97.9855,138.431 99.4855,137.765 100.5,136.5C 101.404,137.209 101.737,138.209 101.5,139.5C 98.4816,139.335 95.4816,139.502 92.5,140C 93.7375,140.232 94.7375,140.732 95.5,141.5C 91.3157,143.628 86.9823,143.961 82.5,142.5C 81.8442,141.378 81.5108,140.045 81.5,138.5C 81.361,136.117 82.0277,134.117 83.5,132.5C 84.1174,132.611 84.6174,132.944 85,133.5C 85.8159,132.177 86.9826,131.511 88.5,131.5 Z"/></g>
<g><path style="opacity:1" fill="#ffb9bf" d="M 90.5,136.5 C 93.6377,137.681 96.6377,137.681 99.5,136.5C 99.8333,136.5 100.167,136.5 100.5,136.5C 99.4855,137.765 97.9855,138.431 96,138.5C 94.5,138.333 93,138.167 91.5,138C 90.944,137.617 90.6107,137.117 90.5,136.5 Z"/></g>
<g><path style="opacity:0.329" fill="#b0403e" d="M 111.5,132.5 C 113.736,133.389 115.736,134.722 117.5,136.5C 121.783,137.492 126.116,137.826 130.5,137.5C 122.873,141.009 116.539,139.343 111.5,132.5 Z"/></g>
<g><path style="opacity:0.999" fill="#f90e1c" d="M 108.5,136.5 C 109.484,138.48 110.817,140.147 112.5,141.5C 113.806,142.467 114.473,143.801 114.5,145.5C 113.5,145.5 112.5,145.5 111.5,145.5C 107.081,144.028 102.414,143.362 97.5,143.5C 96.8333,143.167 96.1667,142.833 95.5,142.5C 95.5,142.167 95.5,141.833 95.5,141.5C 94.7375,140.732 93.7375,140.232 92.5,140C 95.4816,139.502 98.4816,139.335 101.5,139.5C 101.737,138.209 101.404,137.209 100.5,136.5C 100.5,134.833 100.5,133.167 100.5,131.5C 102.167,131.5 103.833,131.5 105.5,131.5C 105.5,133.167 105.5,134.833 105.5,136.5C 106.5,136.5 107.5,136.5 108.5,136.5 Z"/></g>
<g><path style="opacity:0.643" fill="#cf4144" d="M 73.5,141.5 C 74.1667,141.5 74.5,141.833 74.5,142.5C 73.2921,143.234 71.9587,143.567 70.5,143.5C 69.209,143.737 68.209,143.404 67.5,142.5C 69.3792,141.659 71.3792,141.325 73.5,141.5 Z"/></g>
<g><path style="opacity:0.078" fill="#e69996" d="M 112.5,141.5 C 116.527,141.26 117.861,142.926 116.5,146.5C 115.817,146.137 115.15,145.804 114.5,145.5C 114.473,143.801 113.806,142.467 112.5,141.5 Z"/></g>
<g><path style="opacity:0.024" fill="#d0bcb8" d="M 74.5,142.5 C 74.38,143.586 73.7133,144.253 72.5,144.5C 71.5836,144.457 70.9169,144.124 70.5,143.5C 71.9587,143.567 73.2921,143.234 74.5,142.5 Z"/></g>
<g><path style="opacity:0.733" fill="#b74b4a" d="M 95.5,141.5 C 95.5,141.833 95.5,142.167 95.5,142.5C 93.4561,143.522 91.4561,144.522 89.5,145.5C 89.1667,145.5 88.8333,145.5 88.5,145.5C 85.911,145.539 83.911,144.539 82.5,142.5C 86.9823,143.961 91.3157,143.628 95.5,141.5 Z"/></g>
<g><path style="opacity:0.033" fill="#c23e43" d="M 97.5,143.5 C 102.414,143.362 107.081,144.028 111.5,145.5C 111.389,146.117 111.056,146.617 110.5,147C 107.854,147.497 105.187,147.664 102.5,147.5C 102.586,146.504 102.252,145.671 101.5,145C 99.9419,144.79 98.6085,144.29 97.5,143.5 Z"/></g>
<g><path style="opacity:1" fill="#46bef5" d="M 95.5,142.5 C 96.1667,142.833 96.8333,143.167 97.5,143.5C 98.6085,144.29 99.9419,144.79 101.5,145C 102.252,145.671 102.586,146.504 102.5,147.5C 102.298,149.95 102.631,152.283 103.5,154.5C 102.5,154.5 101.5,154.5 100.5,154.5C 100.813,151.753 100.48,149.086 99.5,146.5C 94.9945,151.469 95.6612,155.469 101.5,158.5C 99.8068,159.228 98.3068,160.228 97,161.5C 96.5017,164.817 96.335,168.15 96.5,171.5C 95.5,171.5 94.5,171.5 93.5,171.5C 94.1267,168.266 94.1267,165.099 93.5,162C 92.1834,160.386 90.5167,159.219 88.5,158.5C 93.0203,156.739 94.6869,153.406 93.5,148.5C 92.5,148.5 91.5,148.5 90.5,148.5C 90.7947,150.735 90.4614,152.735 89.5,154.5C 89.5,151.5 89.5,148.5 89.5,145.5C 91.4561,144.522 93.4561,143.522 95.5,142.5 Z"/></g>
<g><path style="opacity:1" fill="#209cee" d="M 96.5,171.5 C 95.8825,173.229 94.8825,174.729 93.5,176C 94.2524,176.671 94.5858,177.504 94.5,178.5C 93.5084,178.672 92.8417,178.338 92.5,177.5C 92.0847,175.253 91.4181,173.086 90.5,171C 92.5648,165.962 90.8981,163.129 85.5,162.5C 84.1461,158.541 85.4794,155.874 89.5,154.5C 90.4614,152.735 90.7947,150.735 90.5,148.5C 91.5,148.5 92.5,148.5 93.5,148.5C 94.6869,153.406 93.0203,156.739 88.5,158.5C 90.5167,159.219 92.1834,160.386 93.5,162C 94.1267,165.099 94.1267,168.266 93.5,171.5C 94.5,171.5 95.5,171.5 96.5,171.5 Z"/></g>
<g><path style="opacity:0.049" fill="#9bd6f0" d="M 88.5,145.5 C 88.8333,145.5 89.1667,145.5 89.5,145.5C 89.5,148.5 89.5,151.5 89.5,154.5C 85.4794,155.874 84.1461,158.541 85.5,162.5C 83.5159,162.516 82.5159,161.516 82.5,159.5C 83.4107,156.918 85.0774,154.918 87.5,153.5C 88.48,150.914 88.8134,148.247 88.5,145.5 Z"/></g>
<g><path style="opacity:0.357" fill="#72b8df" d="M 104.5,154.5 C 108.465,156.227 109.298,158.894 107,162.5C 104.667,163.413 102.834,164.913 101.5,167C 102.252,167.671 102.586,168.504 102.5,169.5C 100.868,169.175 99.8684,168.175 99.5,166.5C 101.069,164.417 102.903,162.417 105,160.5C 105.49,158.455 105.323,156.455 104.5,154.5 Z"/></g>
<g><path style="opacity:0.376" fill="#7cc7e9" d="M 85.5,162.5 C 90.8981,163.129 92.5648,165.962 90.5,171C 91.4181,173.086 92.0847,175.253 92.5,177.5C 90.5891,177.426 89.4224,176.426 89,174.5C 88.231,171.901 88.3977,169.401 89.5,167C 88.3012,165.306 86.9678,163.806 85.5,162.5 Z"/></g>
<g><path style="opacity:1" fill="#1590e7" d="M 103.5,154.5 C 103.833,154.5 104.167,154.5 104.5,154.5C 105.323,156.455 105.49,158.455 105,160.5C 102.903,162.417 101.069,164.417 99.5,166.5C 99.8684,168.175 100.868,169.175 102.5,169.5C 102.5,170.5 102.5,171.5 102.5,172.5C 99.4572,173.205 97.7905,175.205 97.5,178.5C 96.5,178.5 95.5,178.5 94.5,178.5C 94.5858,177.504 94.2524,176.671 93.5,176C 94.8825,174.729 95.8825,173.229 96.5,171.5C 96.335,168.15 96.5017,164.817 97,161.5C 98.3068,160.228 99.8068,159.228 101.5,158.5C 95.6612,155.469 94.9945,151.469 99.5,146.5C 100.48,149.086 100.813,151.753 100.5,154.5C 101.5,154.5 102.5,154.5 103.5,154.5 Z"/></g>
<g><path style="opacity:0.106" fill="#81c4e4" d="M 102.5,172.5 C 102.228,175.732 100.562,177.732 97.5,178.5C 97.7905,175.205 99.4572,173.205 102.5,172.5 Z"/></g>
</svg>
